<svg width="1440" height="178" viewBox="0 0 1440 178" fill="none" xmlns="http://www.w3.org/2000/svg">
<g clip-path="url(#clip0_910_16417)">
<rect width="1440" height="178" fill="#005896"/>
<path d="M64.389 43.6902L35.5057 42.5298L33.5073 57.3462C23.745 58.963 14.5899 62.4442 6.38251 67.3669L-4.77192 57.3495L-26.0156 76.9501L-16.9241 88.873C-22.4947 96.6562 -26.6929 105.508 -29.0869 115.104L-44.0152 115.909L-45.1757 144.793L-30.3594 146.791C-28.7426 156.554 -25.2669 165.711 -20.3386 173.916L-30.356 185.07L-10.7498 206.312L1.17299 197.22C8.95628 202.791 17.8056 206.984 27.4039 209.383L28.2095 224.312L57.0928 225.472L59.0912 210.656C68.8536 209.039 78.0107 205.563 86.2159 200.635L97.3703 210.652L118.617 191.044L109.526 179.121C115.091 171.34 119.289 162.488 121.686 152.884L136.615 152.079L137.775 123.196L122.959 121.197C121.342 111.435 117.861 102.28 112.938 94.0725L122.953 82.9126L103.347 61.6711L91.4244 70.7624C83.6411 65.1919 74.7893 60.9938 65.1877 58.6021L64.389 43.6902ZM85.41 135.577C84.5436 157.173 66.3346 173.975 44.7384 173.109C23.1422 172.243 6.33985 154.033 7.20631 132.437C8.07277 110.841 26.2818 94.0386 47.8779 94.905C69.4686 95.7738 86.2765 113.981 85.41 135.577Z" fill="white" fill-opacity="0.2"/>
<path d="M190.034 34.1996L175.593 33.6194L174.594 41.0276C169.712 41.836 165.135 43.5766 161.031 46.038L155.454 41.0292L144.832 50.8295L149.378 56.791C146.593 60.6826 144.493 65.1085 143.296 69.9065L135.832 70.3092L135.252 84.7509L142.66 85.7501C143.469 90.6313 145.206 95.2099 147.671 99.3124L142.662 104.89L152.465 115.51L158.426 110.965C162.318 113.75 166.743 115.846 171.542 117.046L171.945 124.51L186.386 125.09L187.385 117.682C192.267 116.874 196.845 115.136 200.948 112.672L206.525 117.681L217.149 107.876L212.603 101.915C215.385 98.0245 217.484 93.5987 218.683 88.7967L226.147 88.394L226.727 73.9523L219.319 72.9531C218.511 68.0719 216.77 63.4945 214.309 59.3908L219.316 53.8108L209.513 43.19L203.552 47.7357C199.66 44.9504 195.235 42.8514 190.434 41.6555L190.034 34.1996ZM200.545 80.1429C200.112 90.941 191.007 99.3422 180.209 98.909C169.411 98.4757 161.01 89.3712 161.443 78.5731C161.876 67.775 170.981 59.3738 181.779 59.807C192.574 60.2414 200.978 69.3448 200.545 80.1429Z" fill="white" fill-opacity="0.2"/>
<path d="M1475.71 -60.1891L1449.38 -72.1232L1441.96 -59.1451C1432.31 -61.3171 1422.52 -61.5331 1413.06 -60.0571L1406.49 -73.5332L1379.44 -63.3572L1383.38 -48.891C1375.29 -43.773 1368.07 -37.1489 1362.25 -29.1569L1348.11 -34.0229L1336.18 -7.69479L1349.15 -0.272758C1346.98 9.3813 1346.76 19.1734 1348.24 28.6294L1334.77 35.1995L1344.95 62.2536L1359.41 58.3115C1364.53 66.3996 1371.16 73.6116 1379.15 79.4437L1374.28 93.5798L1400.61 105.514L1408.03 92.5358C1417.69 94.7078 1427.48 94.9297 1436.93 93.4477L1443.5 106.924L1470.56 96.7417L1466.62 82.2757C1474.7 77.1577 1481.92 70.5336 1487.75 62.5356L1501.89 67.4016L1513.82 41.0734L1500.85 33.6514C1503.02 23.9973 1503.23 14.2054 1501.76 4.74931L1515.23 -1.82678L1505.05 -28.8809L1490.59 -24.9389C1485.47 -33.027 1478.84 -40.2449 1470.85 -46.071L1475.71 -60.1891ZM1460.65 32.8595C1451.72 52.5456 1428.53 61.2696 1408.85 52.3476C1389.16 43.4255 1380.44 20.2353 1389.36 0.54921C1398.28 -19.1369 1421.47 -27.861 1441.16 -18.9389C1460.84 -10.0169 1469.57 13.1733 1460.65 32.8595Z" fill="white" fill-opacity="0.2"/>
</g>
<defs>
<clipPath id="clip0_910_16417">
<rect width="1440" height="178" fill="white"/>
</clipPath>
</defs>
</svg>
