<svg width="1440" height="347" viewBox="0 0 1440 347" fill="none" xmlns="http://www.w3.org/2000/svg">
<g clip-path="url(#clip0_2679_12646)">
<rect width="1440" height="347" fill="#0169B8"/>
<path d="M147.893 162.688L95.2371 138.82L80.3931 164.776C61.085 160.432 41.5007 160 22.5886 162.952L9.44848 136L-44.6598 156.352L-36.7756 185.284C-52.9517 195.52 -67.3878 208.769 -79.0399 224.753L-107.312 215.021L-131.18 267.677L-105.224 282.521C-109.568 301.829 -110.012 321.413 -107.048 340.325L-134 353.465L-113.636 407.574L-84.7037 399.689C-74.4677 415.866 -61.22 430.29 -45.2359 441.954L-54.9676 470.226L-2.31134 494.094L12.5327 468.138C31.8408 472.482 51.4248 472.926 70.3369 469.962L83.4769 496.914L137.597 476.55L129.713 447.618C145.877 437.382 160.313 424.134 171.977 408.138L200.249 417.87L224.118 365.213L198.162 350.369C202.506 331.061 202.938 311.477 199.986 292.565L226.938 279.413L206.574 225.305L177.642 233.189C167.406 217.012 154.157 202.577 138.161 190.924L147.893 162.688ZM117.761 348.785C99.917 388.158 53.5368 405.606 14.1646 387.762C-25.2076 369.917 -42.6555 323.537 -24.8115 284.165C-6.96737 244.793 39.4128 227.344 78.785 245.189C118.145 263.033 135.605 309.413 117.761 348.785Z" fill="white" fill-opacity="0.2"/>
<path d="M1332.47 130.672L1319.31 124.705L1315.6 131.194C1310.77 130.108 1305.88 130 1301.15 130.738L1297.86 124L1284.34 129.088L1286.31 136.321C1282.26 138.88 1278.65 142.192 1275.74 146.188L1268.67 143.755L1262.7 156.919L1269.19 160.63C1268.11 165.457 1268 170.353 1268.74 175.081L1262 178.366L1267.09 191.893L1274.32 189.922C1276.88 193.966 1280.2 197.572 1284.19 200.488L1281.76 207.556L1294.92 213.524L1298.63 207.034C1303.46 208.12 1308.36 208.231 1313.08 207.49L1316.37 214.229L1329.9 209.137L1327.93 201.904C1331.97 199.345 1335.58 196.033 1338.49 192.034L1345.56 194.467L1351.53 181.303L1345.04 177.592C1346.13 172.765 1346.23 167.869 1345.5 163.141L1352.23 159.853L1347.14 146.326L1339.91 148.297C1337.35 144.253 1334.04 140.644 1330.04 137.731L1332.47 130.672ZM1324.94 177.196C1320.48 187.039 1308.88 191.401 1299.04 186.94C1289.2 182.479 1284.84 170.884 1289.3 161.041C1293.76 151.198 1305.35 146.836 1315.2 151.297C1325.04 155.758 1329.4 167.353 1324.94 177.196Z" fill="white" fill-opacity="0.2"/>
<path d="M1472.95 -30.6559L1446.62 -42.59L1439.2 -29.6119C1429.54 -31.7839 1419.75 -31.9999 1410.29 -30.5239L1403.72 -44L1376.67 -33.8239L1380.61 -19.3578C1372.52 -14.2398 1365.31 -7.61573 1359.48 0.376315L1345.34 -4.48974L1333.41 21.8384L1346.39 29.2604C1344.22 38.9145 1343.99 48.7066 1345.48 58.1626L1332 64.7327L1342.18 91.7868L1356.65 87.8447C1361.77 95.9328 1368.39 103.145 1376.38 108.977L1371.52 123.113L1397.84 135.047L1405.27 122.069C1414.92 124.241 1424.71 124.463 1434.17 122.981L1440.74 136.457L1467.8 126.275L1463.86 111.809C1471.94 106.691 1479.16 100.067 1484.99 92.0688L1499.12 96.9348L1511.06 70.6066L1498.08 63.1846C1500.25 53.5305 1500.47 43.7386 1498.99 34.2825L1512.47 27.7064L1502.29 0.652256L1487.82 4.59426C1482.7 -3.49378 1476.08 -10.7117 1468.08 -16.5378L1472.95 -30.6559ZM1457.88 62.3927C1448.96 82.0788 1425.77 90.8028 1406.08 81.8808C1386.4 72.9587 1377.67 49.7685 1386.59 30.0824C1395.52 10.3963 1418.71 1.67225 1438.39 10.5943C1458.07 19.5163 1466.8 42.7065 1457.88 62.3927Z" fill="white" fill-opacity="0.2"/>
</g>
<defs>
<clipPath id="clip0_2679_12646">
<rect width="1440" height="347" fill="white"/>
</clipPath>
</defs>
</svg>
