<svg width="500" height="421" viewBox="0 0 500 421" fill="none" xmlns="http://www.w3.org/2000/svg">
<g clip-path="url(#clip0_493_8213)">
<path d="M282.929 58.1619C289.047 60.8169 294.781 63.7589 299.978 66.8939C318.15 77.8479 332.768 93.7959 350.625 104.783C367.487 115.157 388.079 117.679 407.374 119.413C441.007 122.436 511.155 151.426 498.489 205.157C493.881 224.711 477.631 237.991 469.311 255.698C460.461 274.534 461.39 298.027 447.299 314.356C441.1 321.536 432.543 326.278 423.758 329.87C365.293 353.768 299.637 352.657 237.644 350.023C188.713 347.944 110.123 358.933 67.144 332.099C45.806 318.776 56.902 282.357 42.137 262.796C29.73 246.359 12.844 235.563 4.54904 214.988C-9.56697 179.978 10.554 134.417 45.784 121.989C67.799 114.223 91.122 110.665 112.884 102.136C135.367 93.3209 144.03 80.1179 161.176 64.4909C192.173 36.2449 244.929 41.6659 282.929 58.1619Z" fill="#CCE9FF"/>
<path d="M288.929 29.6155C295.047 32.2705 300.781 35.2125 305.978 38.3475C324.15 49.3015 338.768 65.2495 356.625 76.2365C373.487 86.6105 394.079 89.1325 413.374 90.8665C447.007 93.8895 517.155 122.879 504.489 176.61C499.881 196.164 483.631 209.444 475.311 227.151C466.461 245.987 467.39 269.48 453.299 285.809C447.1 292.989 438.543 297.731 429.758 301.323C371.293 325.221 305.637 324.111 243.644 321.477C194.713 319.397 116.123 330.386 73.144 303.552C51.806 290.229 62.902 253.81 48.137 234.249C35.73 217.812 18.844 207.016 10.549 186.441C-3.56697 151.431 16.554 105.87 51.784 93.4425C73.799 85.6765 97.122 82.1185 118.884 73.5895C141.367 64.7745 150.03 51.5715 167.176 35.9445C198.173 7.69848 250.929 13.1195 288.929 29.6155Z" fill="#CCE9FF" fill-opacity="0.3"/>
<path d="M337.076 336.726H167.365V230.59C167.365 228.584 168.961 226.959 170.929 226.959H333.512C335.481 226.959 337.076 228.584 337.076 230.59V336.726Z" fill="#D3D3D3"/>
<path d="M173.577 234.649H330.867V328.244H173.577V234.649Z" fill="#F2F2F2"/>
<path d="M140.374 368.32C138.814 370.36 141.795 376.453 146.47 376.453H361.599C366.271 376.453 369.214 370.36 367.425 368.32H140.374Z" fill="#D3D3D3"/>
<path d="M366.825 367.205C368.614 369.242 366.271 370.895 361.6 370.895H146.471C141.796 370.895 139.272 369.242 140.832 367.205L162.857 338.408C164.417 336.369 168.499 334.717 171.977 334.717H332.028C335.502 334.717 339.774 336.369 341.563 338.408C349.981 348.01 358.405 357.604 366.825 367.205Z" fill="#F2F2F2"/>
<g opacity="0.5">
<path d="M188.61 344.43H181.344C182.372 342.908 182.887 342.145 183.913 340.622H190.892L188.61 344.43ZM198.027 344.43H190.761C191.641 342.908 192.081 342.145 192.959 340.622H199.936L198.027 344.43ZM195.018 339.893H184.411L185.369 338.472H195.815L195.018 339.893ZM207.45 339.894L196.84 339.893L197.607 338.472H208.053C207.813 339.041 207.69 339.325 207.45 339.894ZM219.883 339.893H209.272L209.846 338.472H220.297L219.883 339.893ZM232.314 339.893H221.706L222.087 338.472H232.535C232.449 339.041 232.404 339.325 232.314 339.893ZM244.748 339.893H234.137L234.33 338.472H244.775L244.748 339.893ZM257.18 339.893H246.572V338.472H257.017C257.083 339.041 257.112 339.325 257.18 339.893ZM269.614 339.893H259.004L258.81 338.472H269.259C269.399 339.041 269.471 339.325 269.614 339.893ZM282.048 339.893H271.437L271.053 338.472H281.499C281.72 339.041 281.829 339.325 282.048 339.893ZM294.481 339.893H283.871C283.638 339.325 283.523 339.041 283.291 338.472H293.742L294.481 339.893ZM306.911 339.893H296.303C295.996 339.325 295.841 339.041 295.536 338.472H305.979C306.351 339.041 306.537 339.325 306.911 339.893ZM320.784 339.893H308.736L307.775 338.472H319.639C320.096 339.041 320.327 339.325 320.784 339.893ZM207.44 344.43H200.176C200.906 342.908 201.273 342.146 202.001 340.624L208.978 340.622C208.364 342.147 208.056 342.906 207.44 344.43ZM216.855 344.43H209.59C210.173 342.908 210.463 342.145 211.047 340.622L218.024 340.624L216.855 344.43ZM226.272 344.43H219.008C219.442 342.906 219.66 342.146 220.092 340.622H227.069C226.751 342.145 226.589 342.908 226.272 344.43ZM235.687 344.43H228.423C228.707 342.908 228.847 342.143 229.134 340.622H236.113C235.941 342.145 235.854 342.908 235.687 344.43ZM245.097 344.43H237.839L238.179 340.622H245.154C245.133 342.145 245.122 342.908 245.097 344.43ZM254.517 344.43H247.253L247.225 340.622H254.2C254.328 342.145 254.391 342.908 254.517 344.43ZM263.931 344.43H256.67L256.272 340.622H263.244C263.52 342.145 263.656 342.908 263.931 344.43ZM273.344 344.43H266.082C265.775 342.908 265.62 342.145 265.311 340.622H272.288C272.709 342.145 272.921 342.908 273.344 344.43ZM185.567 349.506H177.924L180.488 345.699H187.849L185.567 349.506ZM195.48 349.506H187.834C188.714 347.984 189.154 347.222 190.032 345.699H197.393C196.626 347.221 196.242 347.983 195.48 349.506ZM205.389 349.506H197.743C198.473 347.984 198.836 347.222 199.568 345.699H206.926C206.311 347.222 206.002 347.983 205.389 349.506ZM215.299 349.506H207.651C208.233 347.984 208.525 347.222 209.105 345.699H216.467C215.999 347.222 215.765 347.983 215.299 349.506ZM225.21 349.506H217.565C217.999 347.984 218.214 347.222 218.647 345.702C221.592 345.702 223.061 345.699 226.006 345.699C225.685 347.222 225.528 347.983 225.21 349.506ZM235.116 349.506H227.471L228.184 345.699H235.542C235.373 347.221 235.286 347.983 235.116 349.506ZM245.024 349.506H237.382L237.724 345.699H245.078L245.024 349.506ZM254.936 349.506H247.291L247.263 345.699H254.621C254.746 347.222 254.812 347.983 254.936 349.506ZM264.844 349.506H257.203C257.042 347.984 256.961 347.222 256.804 345.699H264.158L264.844 349.506ZM274.753 349.506H267.11C266.801 347.984 266.645 347.222 266.338 345.699H273.696L274.753 349.506ZM182.527 354.582H174.5C175.525 353.06 176.041 352.297 177.068 350.776L184.809 350.774C183.896 352.295 183.438 353.059 182.527 354.582ZM192.931 354.582H184.906L187.101 350.776H194.844C194.079 352.296 193.695 353.059 192.931 354.582ZM203.337 354.582H195.308L197.133 350.776H204.874L203.337 354.582ZM213.74 354.582H205.71L207.165 350.776H214.908L213.74 354.582ZM224.143 354.582H216.119C216.551 353.06 216.771 352.297 217.201 350.776H224.941C224.625 352.296 224.464 353.059 224.143 354.582ZM234.545 354.582H226.52C226.804 353.06 226.949 352.297 227.234 350.776H234.975L234.545 354.582ZM244.947 354.582H236.926L237.266 350.776H245.003C244.983 352.296 244.971 353.059 244.947 354.582ZM255.358 354.582H247.33C247.321 353.06 247.314 352.297 247.302 350.776H255.042C255.169 352.296 255.23 353.059 255.358 354.582ZM265.76 354.582H257.738C257.577 353.06 257.496 352.297 257.337 350.776H265.074C265.348 352.296 265.487 353.059 265.76 354.582ZM276.161 354.582H268.134C267.828 353.06 267.674 352.297 267.365 350.776H275.105L276.161 354.582ZM179.485 359.655H171.076C172.102 358.133 172.619 357.372 173.645 355.851H181.765C181.006 357.12 180.246 358.388 179.485 359.655ZM190.385 359.655H181.978L184.176 355.851H192.298C191.533 357.372 191.148 358.133 190.385 359.655ZM201.282 359.655H192.875C193.605 358.133 193.971 357.372 194.703 355.851H202.822C202.207 357.372 201.9 358.133 201.282 359.655ZM212.145 359.776H203.723C204.327 358.207 204.625 357.421 205.225 355.852H213.35C212.868 357.42 212.628 358.207 212.145 359.776ZM277.573 359.655H214.672C215.103 358.133 215.319 357.372 215.753 355.851H276.516L277.573 359.655ZM231.078 368.018H278.794L274.776 361.534H234.876L231.078 368.018ZM281.864 344.43H274.6C274.155 342.908 273.936 342.145 273.494 340.622H280.471C281.028 342.143 281.304 342.908 281.864 344.43ZM283.72 349.506H276.072C275.631 347.984 275.411 347.222 274.968 345.699H282.33C282.884 347.222 283.163 347.983 283.72 349.506ZM285.576 354.582H277.548C277.105 353.06 276.887 352.297 276.444 350.776H284.185C284.741 352.296 285.017 353.059 285.576 354.582ZM287.432 359.655H279.023L277.917 355.851H286.039L287.432 359.655ZM290.379 344.43H283.115C282.538 342.908 282.248 342.145 281.674 340.622H288.652C289.341 342.145 289.688 342.908 290.379 344.43ZM292.684 349.506H285.038C284.461 347.984 284.171 347.222 283.597 345.699H290.956C291.645 347.221 291.993 347.983 292.684 349.506ZM294.986 354.582H286.959L285.516 350.776H293.257C293.951 352.296 294.294 353.059 294.986 354.582ZM297.289 359.655H288.879C288.305 358.133 288.015 357.372 287.441 355.851H295.561C296.253 357.372 296.596 358.133 297.289 359.655ZM298.895 344.43H291.632L289.854 340.622H296.833C297.658 342.145 298.072 342.908 298.895 344.43ZM301.645 349.506H294L292.222 345.699H299.583C300.407 347.222 300.822 347.983 301.645 349.506ZM304.398 354.582H296.37C295.659 353.06 295.305 352.297 294.592 350.776H302.335L304.398 354.582ZM307.147 359.655H298.738C298.028 358.133 297.674 357.372 296.961 355.851H305.084L307.147 359.655ZM307.41 344.43H300.147L298.036 340.622H305.011C305.974 342.145 306.451 342.908 307.41 344.43ZM310.609 349.506H302.964L300.852 345.699H308.211C309.17 347.222 309.652 347.983 310.609 349.506ZM313.807 354.582H305.782C304.937 353.06 304.516 352.297 303.669 350.776H311.41C312.37 352.296 312.849 353.059 313.807 354.582ZM317.006 359.655H308.597C307.894 358.386 307.19 357.118 306.484 355.851H314.608C315.566 357.372 316.045 358.133 317.006 359.655ZM315.93 344.43H308.664C307.683 342.908 307.193 342.145 306.213 340.622H313.193C314.287 342.145 314.833 342.908 315.93 344.43ZM319.572 349.506H311.926C310.946 347.984 310.457 347.222 309.48 345.699H316.839C317.933 347.222 318.48 347.983 319.572 349.506ZM323.219 354.582H315.189C314.211 353.06 313.723 352.297 312.743 350.776H320.486C321.581 352.296 322.126 353.059 323.219 354.582ZM326.863 359.655H318.452L316.005 355.851H324.13L326.863 359.655ZM324.442 344.43H317.18C316.066 342.908 315.511 342.145 314.394 340.622H321.374C322.601 342.145 323.214 342.908 324.442 344.43ZM328.535 349.506H320.889C319.779 347.984 319.22 347.222 318.108 345.699H325.466L328.535 349.506ZM332.628 354.582H324.601C323.487 353.06 322.932 352.297 321.818 350.776H329.559C330.787 352.296 331.4 353.059 332.628 354.582ZM336.721 359.655H328.31L325.529 355.851H333.651C334.879 357.372 335.491 358.133 336.721 359.655Z" fill="#D3D3D3"/>
</g>
<path d="M292.497 328.219H217.609C218.144 326.045 218.634 324.309 219.064 323.101C219.287 322.481 219.594 321.894 219.976 321.357C221.303 319.477 223.575 317.878 226.502 316.526C229.996 314.91 234.418 313.64 239.266 312.633C244.417 311.577 250.036 310.816 255.507 310.265C255.877 310.232 256.243 310.193 256.613 310.161C262.698 309.593 268.544 309.281 273.261 309.13C279.773 308.905 284.163 308.952 284.163 308.952C284.163 308.952 284.515 309.513 285.132 310.633C286.577 313.289 289.466 319.11 292.497 328.219Z" fill="#005896"/>
<path d="M235.13 206.023C234.988 206.983 234.738 207.872 234.384 208.728L234.596 206.308C234.775 206.2 234.954 206.13 235.13 206.023Z" fill="#FFE3CA"/>
<path d="M274.799 202.43V202.462C274.726 202.43 274.655 202.393 274.621 202.393C274.693 202.394 274.726 202.43 274.799 202.43Z" fill="#EEBEA7"/>
<path d="M351.656 253.497C351.656 253.497 356.282 249.209 355.365 245.992C354.588 243.262 355.761 240.204 356.053 238.935C356.449 237.254 356.608 231.797 357.862 232.094C359.985 232.61 359.495 241.321 359.756 243.178C360.018 245.033 365.643 238.82 367.56 238.495C369.482 238.163 379.246 248.059 374.896 251.881C370.546 255.695 364.547 257.243 363.913 258.067C363.28 258.891 360.299 261.155 360.299 261.155L351.656 253.497Z" fill="#F1B99E"/>
<path d="M366.332 239.141C366.332 239.141 380.433 228.341 381.974 228.406C383.521 228.468 384.055 229.272 382.777 230.334C381.504 231.399 369.462 241.171 369.462 241.171C369.462 241.171 388.294 231.187 389.573 230.964C390.315 230.832 390.885 232.26 390.251 232.895C389.621 233.523 372.096 244.549 372.096 244.549C372.096 244.549 389.695 235.257 390.817 235.389C391.801 235.508 392.502 237.13 391.244 237.908C389.985 238.685 374.136 248.235 374.136 248.235C374.136 248.235 387.376 242.283 388.257 242.948C388.792 243.36 389.556 244.264 386.097 245.692C382.631 247.122 375.094 251.687 375.094 251.687L366.332 239.141Z" fill="#F1B99E"/>
<path d="M265.656 193.107V194.067C265.581 193.892 265.512 193.748 265.478 193.57C265.405 193.535 265.405 193.465 265.405 193.426C265.478 193.322 265.548 193.217 265.656 193.107Z" fill="#FFBE55"/>
<path d="M255.054 198.944C254.912 198.977 254.731 198.977 254.591 198.977V198.907C254.731 198.944 254.912 198.944 255.054 198.944ZM265.656 193.107V193.393C265.595 193.451 265.536 193.51 265.478 193.57C265.087 193.997 264.658 194.387 264.232 194.78C264.053 194.923 263.912 195.063 263.736 195.206C263.947 194.995 264.196 194.744 264.413 194.531C264.733 194.211 265.051 193.82 265.405 193.426C265.478 193.322 265.548 193.217 265.656 193.107Z" fill="#EEBEA7"/>
<path d="M273.802 180.835C271.846 185.176 269.461 189.09 266.756 192.185C266.403 192.611 266.009 193.037 265.655 193.394V193.108C265.547 193.217 265.477 193.323 265.404 193.427C265.05 193.821 264.732 194.212 264.412 194.532C264.195 194.746 263.946 194.996 263.735 195.207C263.66 195.244 263.592 195.316 263.521 195.386C263.413 195.492 263.307 195.6 263.198 195.635C262.918 195.88 262.62 196.106 262.309 196.31C261.919 196.595 261.564 196.843 261.174 197.057C261.081 197.12 260.986 197.179 260.889 197.236C260.53 197.447 260.178 197.626 259.86 197.767C259.54 197.939 259.205 198.082 258.86 198.195L258.826 198.231C258.542 198.303 258.327 198.409 258.077 198.48C258.004 198.516 257.937 198.552 257.863 198.552C257.617 198.622 257.367 198.692 257.116 198.73C257.047 198.73 257.011 198.764 256.94 198.764H256.831C256.655 198.802 256.443 198.837 256.265 198.873C256.086 198.907 255.873 198.907 255.696 198.907C255.52 198.944 255.337 198.944 255.195 198.944H255.161C255.127 198.977 255.091 198.977 255.055 198.944C254.913 198.944 254.732 198.944 254.592 198.907V198.977C254.38 198.977 254.165 198.944 253.918 198.907C253.667 198.873 253.383 198.837 253.132 198.802C252.99 198.764 252.851 198.764 252.669 198.73C252.529 198.692 252.385 198.692 252.243 198.622C251.497 198.444 250.788 198.159 250.039 197.767C249.805 197.652 249.579 197.522 249.362 197.379C248.189 196.703 247.049 195.742 245.874 194.531C245.451 194.107 245.058 193.607 244.631 193.107C242.817 190.83 241.005 187.809 239.331 183.967C238.648 182.43 238.007 180.876 237.409 179.305C238.297 181.048 236.748 164.788 237.105 165.359C232.268 156.109 237.089 163.722 238.801 159.135C249.506 163.652 270.315 171.444 270.315 163.545C270.315 163.545 270.777 168.348 271.313 173.328C271.739 177.419 272.202 181.655 272.417 183.255C272.416 183.254 272.982 182.364 273.802 180.835Z" fill="#F4C7B1"/>
<path d="M255.054 198.944C254.912 198.977 254.731 198.977 254.591 198.977V198.907C254.731 198.944 254.912 198.944 255.054 198.944ZM265.656 193.107V193.393C265.595 193.451 265.536 193.51 265.478 193.57C265.087 193.997 264.658 194.387 264.232 194.78C264.053 194.923 263.912 195.063 263.736 195.206C263.947 194.995 264.196 194.744 264.413 194.531C264.733 194.211 265.051 193.82 265.405 193.426C265.478 193.322 265.548 193.217 265.656 193.107Z" fill="#EEBEA7"/>
<path d="M237.407 179.305C234.559 173.684 229.971 162.942 230.79 152.766V152.729C229.511 144.299 240.005 129.108 256.015 129.89C272.022 129.108 282.519 144.299 281.237 152.729V152.766C281.732 158.92 280.239 165.252 278.39 170.555C279.564 170.516 280.7 170.659 281.839 171.051C288.209 173.151 291.196 181.44 288.493 189.516C285.826 197.626 278.46 202.463 272.093 200.365C269.139 199.404 266.897 197.093 265.654 194.067V193.393C266.008 193.037 266.403 192.61 266.755 192.184C269.46 189.089 271.845 185.175 273.801 180.834C272.981 182.364 272.483 184.244 272.483 184.244C272.268 182.646 271.736 177.418 271.31 173.327C270.773 168.347 270.312 163.544 270.312 163.544C270.312 171.444 249.503 163.651 238.798 159.134L237.407 179.305Z" fill="#FFBE55"/>
<path d="M265.656 193.107V194.067C265.656 194.744 265.622 195.562 265.656 196.487C264.623 197.767 263.592 198.836 262.525 199.653C262.166 199.938 261.812 200.188 261.458 200.436C261.189 200.638 260.903 200.817 260.603 200.969H260.569C258.933 201.893 257.295 202.356 255.695 202.392H254.875C254.769 202.392 254.664 202.392 254.591 202.356V198.905C254.731 198.942 254.912 198.942 255.054 198.942C255.09 198.975 255.126 198.975 255.16 198.942H255.194C255.375 198.975 255.518 198.975 255.695 198.975C255.909 198.975 256.157 198.942 256.37 198.905C256.618 198.871 256.905 198.835 257.155 198.8C257.295 198.762 257.436 198.762 257.617 198.728C257.76 198.69 257.901 198.69 258.044 198.62C258.791 198.442 259.501 198.157 260.245 197.765C260.462 197.661 260.713 197.519 260.923 197.377C261.704 196.95 262.452 196.378 263.199 195.632C263.308 195.597 263.414 195.489 263.522 195.383C263.592 195.313 263.661 195.241 263.736 195.204C263.947 194.993 264.196 194.742 264.413 194.529C264.733 194.209 265.051 193.818 265.405 193.424C265.478 193.322 265.548 193.217 265.656 193.107Z" fill="#A5735B"/>
<path d="M254.593 223.595V319.899L271.208 319.189L284.87 318.584L283.48 301.757L281.951 282.935C279.579 283.942 277.218 284.974 274.869 286.033C275.51 278.597 275.794 271.767 275.368 266.18C273.696 245.403 271.1 228.47 269.071 217.406V217.37C269.283 215.236 268.998 212.852 268.502 210.647C268.429 210.192 268.334 209.741 268.218 209.295C268.075 208.796 267.971 208.335 267.828 207.872L267.505 206.806C267.435 206.557 267.327 206.308 267.259 206.093C266.998 205.223 266.688 204.368 266.331 203.532H266.262C266.547 204.814 267.543 209.083 268.786 215.805V215.842C267.972 219.399 265.372 221.391 262.169 222.496C262.135 222.496 262.066 222.529 262.026 222.529C259.824 223.278 257.333 223.561 254.951 223.596C254.844 223.595 254.701 223.632 254.593 223.595Z" fill="#005896"/>
<path d="M292.55 253.554C293.405 254.867 294.612 257.287 295.823 260.027C295.647 263.051 295.433 264.863 295.433 264.863C295.433 264.863 294.117 268.314 292.373 273.724C291.908 275.073 287.43 298.981 286.932 300.548C286.824 300.832 286.751 301.152 286.647 301.437C285.011 302.253 285.376 300.829 282.528 301.971C281.678 302.325 280.75 302.681 279.789 303.106C279.647 303.181 279.471 303.25 279.218 303.356C278.934 303.463 278.65 303.57 278.365 303.712C276.473 304.526 274.588 305.356 272.711 306.203C273.349 298.767 275.795 271.767 275.367 266.181C273.696 245.404 271.101 228.471 269.072 217.407V217.371C268.963 216.838 268.896 216.341 268.788 215.842V215.805C267.543 209.083 266.547 204.815 266.261 203.532H275.476V203.605C278.036 203.426 290.121 201.725 298.376 209.587C293.821 207.63 287.785 209.401 285.76 210.648C284.94 211.117 284.185 211.691 283.514 212.355C282.482 213.318 281.639 214.464 281.026 215.735C275.121 227.938 290.059 249.78 292.55 253.554Z" fill="#005896"/>
<path d="M293.222 328.219H270.326C270.565 325.301 270.869 322.276 271.206 319.191C271.549 315.88 271.958 312.514 272.348 309.13C272.478 307.962 272.613 306.801 272.741 305.636C272.741 305.636 272.749 305.636 272.758 305.628C275.539 304.611 279.195 299.885 283.203 298.302C283.298 298.269 283.386 298.23 283.482 298.197C284.625 297.806 285.761 300.972 286.929 300.548C287.68 308.498 290.36 318.871 293.222 328.219Z" fill="#005896"/>
<path d="M254.593 202.358V223.596C254.701 223.633 254.844 223.596 254.952 223.596C257.334 223.561 259.825 223.278 262.027 222.529C262.068 222.529 262.136 222.496 262.17 222.496C265.372 221.391 267.972 219.399 268.787 215.842V215.805C267.544 209.083 266.549 204.815 266.263 203.532H265.764V202.857C265.764 202.431 265.727 202.039 265.727 201.647C265.693 200.366 265.693 199.157 265.658 197.982V196.489C264.627 197.769 263.594 198.838 262.528 199.655C262.198 199.949 261.842 200.211 261.463 200.438C261.193 200.639 260.907 200.817 260.608 200.971H260.574C258.828 201.968 257.121 202.394 255.414 202.394C255.128 202.394 254.844 202.394 254.593 202.358Z" fill="#F4C7B1"/>
<path d="M356.657 249.012L357.48 250.477L357.505 250.505L363.933 261.868L364.926 263.617C364.926 263.617 362.978 264.402 359.913 265.699C357.123 266.878 353.419 268.427 349.405 270.165C348.292 270.662 347.174 271.149 346.051 271.625C338.244 275.088 330.026 278.785 325.911 281.151C316.934 286.278 309.464 288.069 304.913 287.975C300.386 287.855 290.457 261.057 288.906 254.628C287.334 248.227 281.525 236.432 277.363 225.201C275.602 220.429 276.111 216.218 277.619 212.875C279.625 208.343 283.407 205.414 285.742 204.946C286.663 204.735 287.607 204.642 288.55 204.671C290.005 204.677 291.378 204.956 292.668 205.455C305.302 210.378 309.214 236.552 309.954 241.01C310.226 242.557 310.985 245.151 311.963 247.983C314.13 254.608 317.285 262.603 317.285 262.603C323.629 259.869 326.248 259.088 328.665 258.395C330.42 257.882 332.075 257.464 334.937 256.364C335.8 256.044 336.723 255.671 337.715 255.332C340.138 254.455 342.57 253.606 345.012 252.785C351.051 250.767 356.657 249.012 356.657 249.012Z" fill="#005896"/>
<path d="M255.695 198.907V202.358C255.589 202.394 255.519 202.394 255.411 202.394H254.59C252.988 202.358 251.35 201.895 249.714 200.971H249.68C249.381 200.817 249.095 200.639 248.825 200.438C248.462 200.188 248.107 199.926 247.76 199.655C246.693 198.838 245.66 197.768 244.629 196.489C244.663 195.102 244.629 193.927 244.629 193.109C245.056 193.609 245.449 194.108 245.872 194.533C247.047 195.744 248.187 196.706 249.36 197.381C249.574 197.523 249.823 197.666 250.037 197.769C250.786 198.161 251.496 198.446 252.241 198.624C252.383 198.694 252.526 198.694 252.667 198.732C252.85 198.766 252.988 198.766 253.13 198.804C253.381 198.839 253.665 198.875 253.916 198.909C254.162 198.946 254.378 198.979 254.59 198.979C254.73 198.979 254.911 198.979 255.053 198.946C255.089 198.979 255.125 198.979 255.159 198.946H255.193C255.336 198.944 255.518 198.944 255.695 198.907Z" fill="#A5735B"/>
<path d="M255.695 223.595V319.899L239.08 319.189L225.419 318.584L226.807 301.757L228.336 282.935C230.542 283.863 233.033 284.964 235.418 286.033C234.775 278.597 234.495 271.767 234.92 266.18C236.591 245.403 239.186 228.47 241.214 217.406V217.37C241.004 215.236 241.289 212.852 241.785 210.647C241.854 210.181 241.963 209.723 242.071 209.295C242.214 208.796 242.316 208.335 242.459 207.872L242.782 206.806C242.852 206.557 242.96 206.308 243.03 206.093C243.292 205.223 243.601 204.369 243.956 203.532H244.025C243.741 204.814 242.743 209.083 241.5 215.805V215.842C242.316 219.399 244.916 221.391 248.12 222.496C248.154 222.496 248.224 222.529 248.262 222.529C250.464 223.278 252.957 223.561 255.337 223.596C255.443 223.595 255.589 223.632 255.695 223.595Z" fill="#005896"/>
<path d="M244.024 203.531C243.74 204.813 242.742 209.082 241.499 215.804V215.841C241.393 216.339 241.321 216.837 241.214 217.37V217.406C239.186 228.47 236.591 245.403 234.92 266.18C234.494 271.766 234.775 278.597 235.418 286.033C233.069 284.974 230.708 283.942 228.336 282.935C227.377 282.508 226.449 282.154 225.599 281.8C222.749 280.66 221.255 279.841 219.62 279.022C219.516 278.738 219.442 278.42 219.335 278.135C218.837 276.569 218.376 275.074 217.914 273.725C216.169 268.316 214.854 264.864 214.854 264.864C214.854 264.864 214.642 263.052 214.464 260.028C215.673 257.287 216.883 254.868 217.738 253.555C220.226 249.781 235.166 227.939 229.26 215.736C228.647 214.465 227.803 213.319 226.772 212.356C226.1 211.693 225.346 211.119 224.528 210.649C222.505 209.403 214.526 210.813 209.973 212.77C218.227 204.905 232.252 203.427 234.813 203.606V203.533H244.024V203.531ZM239.959 328.219H217.062C217.75 325.973 218.429 323.669 219.062 321.357C221.101 314.031 222.788 306.593 223.356 300.548C224.523 300.972 225.668 301.364 226.811 301.755C230.937 303.21 234.705 304.603 237.544 305.636C237.8 307.969 238.079 310.312 238.352 312.633C238.6 314.838 238.854 317.03 239.079 319.19C239.416 322.276 239.719 325.301 239.959 328.219Z" fill="#005896"/>
<path d="M255.695 202.358V223.596C255.589 223.633 255.444 223.596 255.336 223.596C252.956 223.561 250.463 223.278 248.261 222.529C248.224 222.529 248.154 222.496 248.119 222.496C244.915 221.391 242.315 219.399 241.499 215.842V215.805C242.742 209.083 243.741 204.815 244.024 203.532H244.523V202.857C244.523 202.431 244.56 202.039 244.56 201.647C244.594 200.366 244.594 199.157 244.629 197.982V196.489C245.66 197.769 246.693 198.838 247.76 199.655C248.119 199.976 248.473 200.224 248.825 200.438C249.112 200.651 249.396 200.826 249.68 200.971H249.714C251.458 201.968 253.171 202.394 254.874 202.394C255.16 202.394 255.443 202.394 255.695 202.358Z" fill="#F4C7B1"/>
<path d="M265.512 296.527C265.263 298.092 264.232 299.266 264.232 299.266C264.232 299.266 264.836 301.328 263.45 302.68C263.45 302.68 263.912 304.636 262.098 305.917C262.098 305.917 262.525 307.839 261.1 308.658C261.1 308.658 258.004 309.05 256.87 308.837C252.27 307.79 247.68 306.699 243.102 305.563L246.125 292.861V292.827C247.442 291.938 248.685 291.117 249.078 290.869C250.039 290.298 253.313 290.478 256.688 291.544C259.965 292.577 263.629 294.035 264.659 294.604C265.194 294.889 265.724 294.998 265.512 296.527Z" fill="#EEA886"/>
<path d="M246.517 291.189L246.124 292.827V292.861L243.101 305.563L242.639 307.521C242.639 307.521 240.68 306.774 237.546 305.634C234.702 304.602 230.934 303.216 226.807 301.758C225.668 301.365 224.527 300.973 223.358 300.549C215.281 297.771 206.741 294.89 202.116 293.823C192.048 291.474 185.357 287.704 182.085 284.539C178.85 281.373 189.806 254.976 193.046 249.212C196.248 243.448 200.015 230.855 204.607 219.792C206.563 215.094 209.798 212.356 213.18 210.934C217.736 208.976 222.503 209.402 224.526 210.648C225.345 211.117 226.099 211.691 226.77 212.355C227.802 213.318 228.645 214.464 229.258 215.735C235.164 227.938 220.224 249.78 217.736 253.554C216.881 254.867 215.671 257.287 214.462 260.027C211.545 266.357 208.414 274.362 208.414 274.362C214.923 276.677 217.377 277.884 219.618 279.021C221.253 279.84 222.747 280.659 225.597 281.799C226.447 282.153 227.375 282.507 228.334 282.934C230.54 283.862 233.031 284.963 235.416 286.032C239.13 287.721 242.83 289.44 246.517 291.189Z" fill="#005896"/>
<path d="M280.037 170.744L279.731 156.804C279.686 154.478 279.731 152.174 279.399 150.017C279.071 147.829 278.477 145.687 277.557 143.704C275.749 139.729 272.715 136.374 268.905 134.246C265.099 132.085 260.672 131.103 256.257 131.121C251.843 131.103 247.407 132.085 243.616 134.246C239.798 136.374 236.765 139.729 234.951 143.704C234.037 145.686 233.444 147.829 233.115 150.017C232.784 152.197 232.817 154.448 232.786 156.804L232.474 170.744H230.727L230.428 156.804C230.4 154.518 230.295 152.111 230.603 149.68C230.907 147.272 231.498 144.87 232.475 142.611C234.367 138.054 237.902 134.191 242.179 131.748C246.462 129.267 251.407 128.149 256.258 128.124C261.112 128.149 266.052 129.267 270.334 131.748C274.614 134.191 278.144 138.054 280.033 142.611C281.009 144.87 281.607 147.272 281.917 149.68C282.221 152.13 282.12 154.495 282.093 156.804L281.79 170.744H280.037Z" fill="#005896"/>
<path d="M232.123 178.313C228.986 178.313 228.195 176.064 228.195 173.286V164.273C228.195 161.498 228.986 159.244 232.123 159.244H232.873V178.313H232.123Z" fill="#005896"/>
<path d="M232.873 159.245H234.494V178.314H232.873V159.245Z" fill="#005896"/>
<path d="M280.868 178.313C284.008 178.313 284.805 176.064 284.805 173.286V164.273C284.805 161.498 284.008 159.244 280.868 159.244H280.118V178.313H280.868Z" fill="#005896"/>
<path d="M278.496 159.245H280.118V178.314H278.496V159.245Z" fill="#005896"/>
<path d="M257.42 195.69V193.941C264.656 193.941 278.437 183.658 278.437 178.313H280.182C280.182 185.079 264.938 195.69 257.42 195.69Z" fill="#CCE9FF"/>
<path d="M258.582 197.258H256.252C254.319 197.258 252.755 196.168 252.755 194.815C252.755 193.467 254.319 192.378 256.252 192.378H258.582C260.513 192.378 262.078 193.468 262.078 194.815C262.077 196.168 260.513 197.258 258.582 197.258Z" fill="#005896"/>
<path d="M195.023 101.446V115.259L194.94 134.01L194.829 156.658L194.759 173.366L178.114 156.594L173.035 156.576L105.682 156.261C94.3028 154.041 85.7158 144.027 85.7158 132.02V101.446C85.7158 88.7632 95.3058 78.2882 107.624 76.9092L175.136 77.2202C186.47 79.4572 195.023 89.4522 195.023 101.446Z" fill="#005896"/>
<path opacity="0.8" d="M174.026 102.109C174.027 102.585 173.933 103.057 173.752 103.497C173.57 103.937 173.303 104.337 172.966 104.674C172.63 105.012 172.23 105.279 171.79 105.462C171.35 105.644 170.879 105.739 170.402 105.739H108.317C107.841 105.739 107.369 105.645 106.929 105.463C106.488 105.28 106.088 105.013 105.751 104.676C105.414 104.339 105.147 103.938 104.965 103.498C104.783 103.058 104.689 102.586 104.689 102.109C104.689 101.633 104.783 101.161 104.966 100.721C105.148 100.281 105.415 99.8807 105.752 99.5439C106.089 99.2071 106.489 98.94 106.929 98.7577C107.369 98.5755 107.841 98.4818 108.317 98.4819H170.402C172.402 98.4819 174.026 100.105 174.026 102.109ZM174.026 115.617C174.026 116.579 173.644 117.501 172.965 118.181C172.286 118.862 171.364 119.246 170.402 119.248H108.317C107.355 119.246 106.433 118.863 105.753 118.182C105.073 117.502 104.691 116.579 104.689 115.617C104.689 115.14 104.783 114.668 104.965 114.228C105.148 113.788 105.415 113.388 105.752 113.051C106.089 112.713 106.489 112.446 106.929 112.264C107.369 112.081 107.841 111.987 108.317 111.987H170.402C170.879 111.987 171.35 112.082 171.79 112.264C172.23 112.447 172.63 112.714 172.966 113.051C173.303 113.388 173.57 113.789 173.752 114.229C173.933 114.669 174.027 115.141 174.026 115.617ZM155.059 129.124C155.059 131.114 153.429 132.744 151.425 132.744H108.313C107.354 132.743 106.434 132.361 105.756 131.682C105.078 131.003 104.697 130.083 104.697 129.124C104.697 128.121 105.092 127.219 105.752 126.56C106.087 126.221 106.486 125.952 106.926 125.768C107.365 125.584 107.837 125.488 108.313 125.488H151.425C152.389 125.489 153.313 125.872 153.995 126.554C154.676 127.236 155.059 128.16 155.059 129.124Z" fill="#CCE9FF"/>
<path d="M362.518 158.769L384.087 152.586C384.329 152.519 384.582 152.504 384.83 152.541C385.078 152.578 385.316 152.667 385.53 152.803C385.743 152.938 385.927 153.117 386.072 153.328C386.216 153.539 386.316 153.778 386.368 154.031L389.031 168.268C389.155 168.866 389.067 169.489 388.784 170.026C388.501 170.563 388.041 170.979 387.487 171.197L366.444 179.872C366.202 179.972 365.943 180.016 365.683 180C365.423 179.985 365.17 179.911 364.941 179.784C364.712 179.657 364.513 179.48 364.358 179.265C364.202 179.049 364.095 178.802 364.043 178.54L360.783 161.831C360.702 161.513 360.682 161.181 360.725 160.854C360.768 160.528 360.873 160.214 361.034 159.93C361.195 159.645 361.409 159.396 361.663 159.197C361.918 158.998 362.208 158.853 362.518 158.769Z" stroke="#005896" stroke-width="1.134" stroke-linecap="round" stroke-linejoin="round"/>
<path d="M361.254 159.676L375.761 163.056C376.229 163.153 376.713 163.115 377.16 162.946C377.607 162.776 378 162.483 378.294 162.097L385.415 152.75" stroke="#005896" stroke-width="1.134" stroke-linecap="round" stroke-linejoin="round"/>
<path d="M382.576 292.117L404.146 285.933C404.388 285.867 404.641 285.851 404.889 285.889C405.137 285.926 405.375 286.015 405.588 286.15C405.802 286.286 405.986 286.464 406.13 286.675C406.274 286.887 406.375 287.126 406.426 287.378L409.089 301.615C409.213 302.213 409.126 302.837 408.843 303.374C408.56 303.911 408.1 304.326 407.546 304.545L386.502 313.22C386.261 313.32 386.001 313.363 385.742 313.348C385.482 313.333 385.229 313.259 384.999 313.132C384.77 313.005 384.571 312.827 384.416 312.612C384.261 312.397 384.154 312.15 384.102 311.887L380.842 295.179C380.76 294.86 380.74 294.528 380.783 294.202C380.826 293.876 380.931 293.562 381.092 293.277C381.253 292.993 381.467 292.744 381.722 292.545C381.976 292.346 382.267 292.2 382.576 292.117Z" stroke="#005896" stroke-width="1.134" stroke-linecap="round" stroke-linejoin="round"/>
<path d="M381.312 293.023L395.82 296.404C396.287 296.501 396.771 296.463 397.219 296.293C397.666 296.124 398.058 295.83 398.352 295.445L405.474 286.097" stroke="#005896" stroke-width="1.134" stroke-linecap="round" stroke-linejoin="round"/>
<path d="M23.303 200.282L61.3202 190.369C61.7466 190.262 62.1919 190.238 62.629 190.297C63.0661 190.357 63.4856 190.5 63.8619 190.717C64.2382 190.934 64.5632 191.22 64.8172 191.559C65.0712 191.897 65.2488 192.281 65.3389 192.685L70.0327 215.509C70.2512 216.468 70.0973 217.468 69.5986 218.329C69.0998 219.19 68.289 219.855 67.312 220.206L30.2226 234.113C29.7973 234.273 29.3397 234.343 28.882 234.318C28.4243 234.294 27.9778 234.176 27.5741 233.972C27.1705 233.768 26.8195 233.484 26.546 233.139C26.2725 232.794 26.0832 232.397 25.9916 231.977L20.2465 205.191C20.1025 204.68 20.0674 204.148 20.1431 203.625C20.2188 203.102 20.4038 202.598 20.6876 202.142C20.9714 201.686 21.3485 201.287 21.7972 200.968C22.246 200.649 22.7576 200.416 23.303 200.282Z" stroke="#005896" stroke-width="1.134" stroke-linecap="round" stroke-linejoin="round"/>
<path d="M21.0762 201.735L46.6457 207.154C47.4693 207.31 48.3227 207.249 49.1108 206.978C49.8988 206.706 50.5905 206.235 51.109 205.617L63.6604 190.632" stroke="#005896" stroke-width="1.134" stroke-linecap="round" stroke-linejoin="round"/>
<path d="M410.757 262.349L427.562 264.452C427.749 264.478 427.93 264.542 428.093 264.642C428.255 264.742 428.396 264.875 428.507 265.033C428.618 265.191 428.696 265.371 428.737 265.561C428.778 265.751 428.781 265.948 428.746 266.14L426.585 276.872C426.503 277.327 426.266 277.736 425.917 278.027C425.568 278.318 425.129 278.471 424.681 278.458L407.54 278.251C407.343 278.249 407.15 278.202 406.973 278.114C406.796 278.026 406.64 277.899 406.516 277.742C406.392 277.585 406.303 277.402 406.255 277.206C406.207 277.009 406.202 276.805 406.24 276.606L408.682 263.971C408.714 263.724 408.794 263.486 408.916 263.271C409.038 263.056 409.2 262.868 409.393 262.717C409.586 262.567 409.805 262.457 410.039 262.394C410.273 262.33 410.517 262.315 410.757 262.349Z" stroke="#005896" stroke-width="1.134" stroke-linecap="round" stroke-linejoin="round"/>
<path d="M409.618 262.605L418.792 269.284C419.091 269.491 419.44 269.608 419.8 269.623C420.16 269.638 420.517 269.55 420.831 269.368L428.442 264.962" stroke="#005896" stroke-width="1.134" stroke-linecap="round" stroke-linejoin="round"/>
<path d="M390.698 129.001L407.503 131.105C407.691 131.13 407.871 131.195 408.034 131.295C408.197 131.395 408.338 131.528 408.449 131.686C408.559 131.844 408.638 132.023 408.679 132.214C408.72 132.404 408.723 132.601 408.687 132.792L406.527 143.525C406.445 143.979 406.208 144.388 405.858 144.679C405.509 144.97 405.071 145.123 404.622 145.111L387.481 144.903C387.285 144.901 387.091 144.854 386.914 144.766C386.737 144.678 386.581 144.551 386.457 144.394C386.333 144.237 386.244 144.054 386.197 143.858C386.149 143.662 386.144 143.457 386.182 143.258L388.623 130.623C388.656 130.376 388.736 130.139 388.858 129.924C388.98 129.709 389.142 129.52 389.335 129.37C389.527 129.219 389.747 129.109 389.981 129.046C390.215 128.983 390.459 128.968 390.698 129.001Z" stroke="#005896" stroke-width="1.134" stroke-linecap="round" stroke-linejoin="round"/>
<path d="M389.56 129.258L398.734 135.936C399.033 136.143 399.381 136.26 399.741 136.275C400.101 136.29 400.458 136.202 400.772 136.02L408.383 131.614" stroke="#005896" stroke-width="1.134" stroke-linecap="round" stroke-linejoin="round"/>
<path d="M106.274 242.559L135.892 245.932C136.223 245.972 136.542 246.076 136.828 246.236C137.115 246.396 137.364 246.609 137.559 246.863C137.754 247.116 137.892 247.404 137.965 247.709C138.037 248.014 138.042 248.33 137.979 248.637L134.172 265.842C134.027 266.571 133.609 267.227 132.994 267.693C132.378 268.159 131.606 268.405 130.815 268.385L100.604 268.053C100.257 268.049 99.9163 267.974 99.6043 267.833C99.2924 267.692 99.0174 267.488 98.7988 267.237C98.5803 266.985 98.4234 266.692 98.3395 266.377C98.2556 266.062 98.2466 265.734 98.3131 265.415L102.616 245.159C102.674 244.764 102.815 244.383 103.03 244.038C103.245 243.693 103.531 243.392 103.87 243.15C104.21 242.909 104.597 242.732 105.009 242.631C105.422 242.53 105.851 242.505 106.274 242.559Z" stroke="#005896" stroke-width="1.134" stroke-linecap="round" stroke-linejoin="round"/>
<path d="M104.267 242.971L120.436 253.677C120.963 254.009 121.578 254.197 122.212 254.221C122.846 254.245 123.476 254.103 124.029 253.812L137.444 246.748" stroke="#005896" stroke-width="1.134" stroke-linecap="round" stroke-linejoin="round"/>
</g>
<defs>
<clipPath id="clip0_493_8213">
<rect width="500" height="421" fill="white"/>
</clipPath>
</defs>
</svg>
