<svg width="1440" height="436" viewBox="0 0 1440 436" fill="none" xmlns="http://www.w3.org/2000/svg">
<g clip-path="url(#clip0_493_8206)">
<rect width="1440" height="436" fill="#005896"/>
<ellipse cx="66.2545" cy="143.787" rx="59.7458" ry="57.7869" fill="#74A7E0" fill-opacity="0.5"/>
<path d="M103.992 169.213C103.992 200.836 77.4821 226.5 44.7458 226.5C12.0094 226.5 -14.5 200.836 -14.5 169.213C-14.5 137.59 12.0094 111.926 44.7458 111.926C77.4821 111.926 103.992 137.59 103.992 169.213Z" stroke="#97A5EF" stroke-opacity="0.5"/>
<g clip-path="url(#clip1_493_8206)">
<path d="M1138.93 66.1619C1145.05 68.8169 1150.78 71.7589 1155.98 74.8939C1174.15 85.8479 1188.77 101.796 1206.63 112.783C1223.49 123.157 1244.08 125.679 1263.37 127.413C1297.01 130.436 1367.16 159.426 1354.49 213.157C1349.88 232.711 1333.63 245.991 1325.31 263.698C1316.46 282.534 1317.39 306.027 1303.3 322.356C1297.1 329.536 1288.54 334.278 1279.76 337.87C1221.29 361.768 1155.64 360.657 1093.64 358.023C1044.71 355.944 966.123 366.933 923.144 340.099C901.806 326.776 912.902 290.357 898.137 270.796C885.73 254.359 868.844 243.563 860.549 222.988C846.433 187.978 866.554 142.417 901.784 129.989C923.799 122.223 947.122 118.665 968.884 110.136C991.367 101.321 1000.03 88.1179 1017.18 72.4909C1048.17 44.2449 1100.93 49.6659 1138.93 66.1619Z" fill="#CCE9FF"/>
<path d="M1144.93 37.6155C1151.05 40.2705 1156.78 43.2125 1161.98 46.3475C1180.15 57.3015 1194.77 73.2495 1212.63 84.2365C1229.49 94.6105 1250.08 97.1325 1269.37 98.8665C1303.01 101.889 1373.16 130.879 1360.49 184.61C1355.88 204.164 1339.63 217.444 1331.31 235.151C1322.46 253.987 1323.39 277.48 1309.3 293.809C1303.1 300.989 1294.54 305.731 1285.76 309.323C1227.29 333.221 1161.64 332.111 1099.64 329.477C1050.71 327.397 972.123 338.386 929.144 311.552C907.806 298.229 918.902 261.81 904.137 242.249C891.73 225.812 874.844 215.016 866.549 194.441C852.433 159.431 872.554 113.87 907.784 101.442C929.799 93.6765 953.122 90.1185 974.884 81.5895C997.367 72.7745 1006.03 59.5715 1023.18 43.9445C1054.17 15.6985 1106.93 21.1195 1144.93 37.6155Z" fill="#CCE9FF" fill-opacity="0.3"/>
<path d="M1193.08 344.726H1023.37V238.59C1023.37 236.584 1024.96 234.959 1026.93 234.959H1189.51C1191.48 234.959 1193.08 236.584 1193.08 238.59V344.726Z" fill="#D3D3D3"/>
<path d="M1029.58 242.649H1186.87V336.244H1029.58V242.649Z" fill="#F2F2F2"/>
<path d="M996.374 376.32C994.814 378.36 997.795 384.453 1002.47 384.453H1217.6C1222.27 384.453 1225.21 378.36 1223.42 376.32H996.374Z" fill="#D3D3D3"/>
<path d="M1222.83 375.205C1224.61 377.242 1222.27 378.895 1217.6 378.895H1002.47C997.796 378.895 995.272 377.242 996.832 375.205L1018.86 346.408C1020.42 344.369 1024.5 342.717 1027.98 342.717H1188.03C1191.5 342.717 1195.77 344.369 1197.56 346.408C1205.98 356.01 1214.41 365.604 1222.83 375.205Z" fill="#F2F2F2"/>
<g opacity="0.5">
<path d="M1044.61 352.43H1037.34C1038.37 350.908 1038.89 350.145 1039.91 348.622H1046.89L1044.61 352.43ZM1054.03 352.43H1046.76C1047.64 350.908 1048.08 350.145 1048.96 348.622H1055.94L1054.03 352.43ZM1051.02 347.893H1040.41L1041.37 346.472H1051.82L1051.02 347.893ZM1063.45 347.894L1052.84 347.893L1053.61 346.472H1064.05C1063.81 347.041 1063.69 347.325 1063.45 347.894ZM1075.88 347.893H1065.27L1065.85 346.472H1076.3L1075.88 347.893ZM1088.31 347.893H1077.71L1078.09 346.472H1088.54C1088.45 347.041 1088.4 347.325 1088.31 347.893ZM1100.75 347.893H1090.14L1090.33 346.472H1100.78L1100.75 347.893ZM1113.18 347.893H1102.57V346.472H1113.02C1113.08 347.041 1113.11 347.325 1113.18 347.893ZM1125.61 347.893H1115L1114.81 346.472H1125.26C1125.4 347.041 1125.47 347.325 1125.61 347.893ZM1138.05 347.893H1127.44L1127.05 346.472H1137.5C1137.72 347.041 1137.83 347.325 1138.05 347.893ZM1150.48 347.893H1139.87C1139.64 347.325 1139.52 347.041 1139.29 346.472H1149.74L1150.48 347.893ZM1162.91 347.893H1152.3C1152 347.325 1151.84 347.041 1151.54 346.472H1161.98C1162.35 347.041 1162.54 347.325 1162.91 347.893ZM1176.78 347.893H1164.74L1163.78 346.472H1175.64C1176.1 347.041 1176.33 347.325 1176.78 347.893ZM1063.44 352.43H1056.18C1056.91 350.908 1057.27 350.146 1058 348.624L1064.98 348.622C1064.36 350.147 1064.06 350.906 1063.44 352.43ZM1072.86 352.43H1065.59C1066.17 350.908 1066.46 350.145 1067.05 348.622L1074.02 348.624L1072.86 352.43ZM1082.27 352.43H1075.01C1075.44 350.906 1075.66 350.146 1076.09 348.622H1083.07C1082.75 350.145 1082.59 350.908 1082.27 352.43ZM1091.69 352.43H1084.42C1084.71 350.908 1084.85 350.143 1085.13 348.622H1092.11C1091.94 350.145 1091.85 350.908 1091.69 352.43ZM1101.1 352.43H1093.84L1094.18 348.622H1101.15C1101.13 350.145 1101.12 350.908 1101.1 352.43ZM1110.52 352.43H1103.25L1103.23 348.622H1110.2C1110.33 350.145 1110.39 350.908 1110.52 352.43ZM1119.93 352.43H1112.67L1112.27 348.622H1119.24C1119.52 350.145 1119.66 350.908 1119.93 352.43ZM1129.34 352.43H1122.08C1121.78 350.908 1121.62 350.145 1121.31 348.622H1128.29C1128.71 350.145 1128.92 350.908 1129.34 352.43ZM1041.57 357.506H1033.92L1036.49 353.699H1043.85L1041.57 357.506ZM1051.48 357.506H1043.83C1044.71 355.984 1045.15 355.222 1046.03 353.699H1053.39C1052.63 355.221 1052.24 355.983 1051.48 357.506ZM1061.39 357.506H1053.74C1054.47 355.984 1054.84 355.222 1055.57 353.699H1062.93C1062.31 355.222 1062 355.983 1061.39 357.506ZM1071.3 357.506H1063.65C1064.23 355.984 1064.53 355.222 1065.11 353.699H1072.47C1072 355.222 1071.77 355.983 1071.3 357.506ZM1081.21 357.506H1073.57C1074 355.984 1074.21 355.222 1074.65 353.702C1077.59 353.702 1079.06 353.699 1082.01 353.699C1081.69 355.222 1081.53 355.983 1081.21 357.506ZM1091.12 357.506H1083.47L1084.18 353.699H1091.54C1091.37 355.221 1091.29 355.983 1091.12 357.506ZM1101.02 357.506H1093.38L1093.72 353.699H1101.08L1101.02 357.506ZM1110.94 357.506H1103.29L1103.26 353.699H1110.62C1110.75 355.222 1110.81 355.983 1110.94 357.506ZM1120.84 357.506H1113.2C1113.04 355.984 1112.96 355.222 1112.8 353.699H1120.16L1120.84 357.506ZM1130.75 357.506H1123.11C1122.8 355.984 1122.65 355.222 1122.34 353.699H1129.7L1130.75 357.506ZM1038.53 362.582H1030.5C1031.53 361.06 1032.04 360.297 1033.07 358.776L1040.81 358.774C1039.9 360.295 1039.44 361.059 1038.53 362.582ZM1048.93 362.582H1040.91L1043.1 358.776H1050.84C1050.08 360.296 1049.7 361.059 1048.93 362.582ZM1059.34 362.582H1051.31L1053.13 358.776H1060.87L1059.34 362.582ZM1069.74 362.582H1061.71L1063.17 358.776H1070.91L1069.74 362.582ZM1080.14 362.582H1072.12C1072.55 361.06 1072.77 360.297 1073.2 358.776H1080.94C1080.63 360.296 1080.46 361.059 1080.14 362.582ZM1090.55 362.582H1082.52C1082.8 361.06 1082.95 360.297 1083.23 358.776H1090.98L1090.55 362.582ZM1100.95 362.582H1092.93L1093.27 358.776H1101C1100.98 360.296 1100.97 361.059 1100.95 362.582ZM1111.36 362.582H1103.33C1103.32 361.06 1103.31 360.297 1103.3 358.776H1111.04C1111.17 360.296 1111.23 361.059 1111.36 362.582ZM1121.76 362.582H1113.74C1113.58 361.06 1113.5 360.297 1113.34 358.776H1121.07C1121.35 360.296 1121.49 361.059 1121.76 362.582ZM1132.16 362.582H1124.13C1123.83 361.06 1123.67 360.297 1123.37 358.776H1131.11L1132.16 362.582ZM1035.49 367.655H1027.08C1028.1 366.133 1028.62 365.372 1029.65 363.851H1037.77C1037.01 365.12 1036.25 366.388 1035.49 367.655ZM1046.39 367.655H1037.98L1040.18 363.851H1048.3C1047.53 365.372 1047.15 366.133 1046.39 367.655ZM1057.28 367.655H1048.88C1049.61 366.133 1049.97 365.372 1050.7 363.851H1058.82C1058.21 365.372 1057.9 366.133 1057.28 367.655ZM1068.15 367.776H1059.72C1060.33 366.207 1060.63 365.421 1061.23 363.852H1069.35C1068.87 365.42 1068.63 366.207 1068.15 367.776ZM1133.57 367.655H1070.67C1071.1 366.133 1071.32 365.372 1071.75 363.851H1132.52L1133.57 367.655ZM1087.08 376.018H1134.79L1130.78 369.534H1090.88L1087.08 376.018ZM1137.86 352.43H1130.6C1130.16 350.908 1129.94 350.145 1129.49 348.622H1136.47C1137.03 350.143 1137.3 350.908 1137.86 352.43ZM1139.72 357.506H1132.07C1131.63 355.984 1131.41 355.222 1130.97 353.699H1138.33C1138.88 355.222 1139.16 355.983 1139.72 357.506ZM1141.58 362.582H1133.55C1133.11 361.06 1132.89 360.297 1132.44 358.776H1140.19C1140.74 360.296 1141.02 361.059 1141.58 362.582ZM1143.43 367.655H1135.02L1133.92 363.851H1142.04L1143.43 367.655ZM1146.38 352.43H1139.12C1138.54 350.908 1138.25 350.145 1137.67 348.622H1144.65C1145.34 350.145 1145.69 350.908 1146.38 352.43ZM1148.68 357.506H1141.04C1140.46 355.984 1140.17 355.222 1139.6 353.699H1146.96C1147.65 355.221 1147.99 355.983 1148.68 357.506ZM1150.99 362.582H1142.96L1141.52 358.776H1149.26C1149.95 360.296 1150.29 361.059 1150.99 362.582ZM1153.29 367.655H1144.88C1144.31 366.133 1144.02 365.372 1143.44 363.851H1151.56C1152.25 365.372 1152.6 366.133 1153.29 367.655ZM1154.9 352.43H1147.63L1145.85 348.622H1152.83C1153.66 350.145 1154.07 350.908 1154.9 352.43ZM1157.65 357.506H1150L1148.22 353.699H1155.58C1156.41 355.222 1156.82 355.983 1157.65 357.506ZM1160.4 362.582H1152.37C1151.66 361.06 1151.31 360.297 1150.59 358.776H1158.34L1160.4 362.582ZM1163.15 367.655H1154.74C1154.03 366.133 1153.67 365.372 1152.96 363.851H1161.08L1163.15 367.655ZM1163.41 352.43H1156.15L1154.04 348.622H1161.01C1161.97 350.145 1162.45 350.908 1163.41 352.43ZM1166.61 357.506H1158.96L1156.85 353.699H1164.21C1165.17 355.222 1165.65 355.983 1166.61 357.506ZM1169.81 362.582H1161.78C1160.94 361.06 1160.52 360.297 1159.67 358.776H1167.41C1168.37 360.296 1168.85 361.059 1169.81 362.582ZM1173.01 367.655H1164.6C1163.89 366.386 1163.19 365.118 1162.48 363.851H1170.61C1171.57 365.372 1172.05 366.133 1173.01 367.655ZM1171.93 352.43H1164.66C1163.68 350.908 1163.19 350.145 1162.21 348.622H1169.19C1170.29 350.145 1170.83 350.908 1171.93 352.43ZM1175.57 357.506H1167.93C1166.95 355.984 1166.46 355.222 1165.48 353.699H1172.84C1173.93 355.222 1174.48 355.983 1175.57 357.506ZM1179.22 362.582H1171.19C1170.21 361.06 1169.72 360.297 1168.74 358.776H1176.49C1177.58 360.296 1178.13 361.059 1179.22 362.582ZM1182.86 367.655H1174.45L1172.01 363.851H1180.13L1182.86 367.655ZM1180.44 352.43H1173.18C1172.07 350.908 1171.51 350.145 1170.39 348.622H1177.37C1178.6 350.145 1179.21 350.908 1180.44 352.43ZM1184.54 357.506H1176.89C1175.78 355.984 1175.22 355.222 1174.11 353.699H1181.47L1184.54 357.506ZM1188.63 362.582H1180.6C1179.49 361.06 1178.93 360.297 1177.82 358.776H1185.56C1186.79 360.296 1187.4 361.059 1188.63 362.582ZM1192.72 367.655H1184.31L1181.53 363.851H1189.65C1190.88 365.372 1191.49 366.133 1192.72 367.655Z" fill="#D3D3D3"/>
</g>
<path d="M1148.5 336.219H1073.61C1074.14 334.045 1074.63 332.309 1075.06 331.101C1075.29 330.481 1075.59 329.894 1075.98 329.357C1077.3 327.477 1079.58 325.878 1082.5 324.526C1086 322.91 1090.42 321.64 1095.27 320.633C1100.42 319.577 1106.04 318.816 1111.51 318.265C1111.88 318.232 1112.24 318.193 1112.61 318.161C1118.7 317.593 1124.54 317.281 1129.26 317.13C1135.77 316.905 1140.16 316.952 1140.16 316.952C1140.16 316.952 1140.52 317.513 1141.13 318.633C1142.58 321.289 1145.47 327.11 1148.5 336.219Z" fill="#005896"/>
<path d="M1091.13 214.023C1090.99 214.983 1090.74 215.872 1090.38 216.728L1090.6 214.308C1090.77 214.2 1090.95 214.13 1091.13 214.023Z" fill="#FFE3CA"/>
<path d="M1130.8 210.43V210.462C1130.73 210.43 1130.66 210.393 1130.62 210.393C1130.69 210.394 1130.73 210.43 1130.8 210.43Z" fill="#EEBEA7"/>
<path d="M1207.66 261.497C1207.66 261.497 1212.28 257.209 1211.37 253.992C1210.59 251.262 1211.76 248.204 1212.05 246.935C1212.45 245.254 1212.61 239.797 1213.86 240.094C1215.99 240.61 1215.5 249.321 1215.76 251.178C1216.02 253.033 1221.64 246.82 1223.56 246.495C1225.48 246.163 1235.25 256.059 1230.9 259.881C1226.55 263.695 1220.55 265.243 1219.91 266.067C1219.28 266.891 1216.3 269.155 1216.3 269.155L1207.66 261.497Z" fill="#F1B99E"/>
<path d="M1222.33 247.141C1222.33 247.141 1236.43 236.341 1237.97 236.406C1239.52 236.468 1240.06 237.272 1238.78 238.334C1237.5 239.399 1225.46 249.171 1225.46 249.171C1225.46 249.171 1244.29 239.187 1245.57 238.964C1246.32 238.832 1246.89 240.26 1246.25 240.895C1245.62 241.523 1228.1 252.549 1228.1 252.549C1228.1 252.549 1245.7 243.257 1246.82 243.389C1247.8 243.508 1248.5 245.13 1247.24 245.908C1245.99 246.685 1230.14 256.235 1230.14 256.235C1230.14 256.235 1243.38 250.283 1244.26 250.948C1244.79 251.36 1245.56 252.264 1242.1 253.692C1238.63 255.122 1231.09 259.687 1231.09 259.687L1222.33 247.141Z" fill="#F1B99E"/>
<path d="M1121.66 201.107V202.067C1121.58 201.892 1121.51 201.748 1121.48 201.57C1121.41 201.535 1121.41 201.465 1121.41 201.426C1121.48 201.322 1121.55 201.217 1121.66 201.107Z" fill="#FFBE55"/>
<path d="M1111.05 206.944C1110.91 206.977 1110.73 206.977 1110.59 206.977V206.907C1110.73 206.944 1110.91 206.944 1111.05 206.944ZM1121.66 201.107V201.393C1121.6 201.451 1121.54 201.51 1121.48 201.57C1121.09 201.997 1120.66 202.387 1120.23 202.78C1120.05 202.923 1119.91 203.063 1119.74 203.206C1119.95 202.995 1120.2 202.744 1120.41 202.531C1120.73 202.211 1121.05 201.82 1121.4 201.426C1121.48 201.322 1121.55 201.217 1121.66 201.107Z" fill="#EEBEA7"/>
<path d="M1129.8 188.835C1127.85 193.176 1125.46 197.09 1122.76 200.185C1122.4 200.611 1122.01 201.037 1121.65 201.394V201.108C1121.55 201.217 1121.48 201.323 1121.4 201.427C1121.05 201.821 1120.73 202.212 1120.41 202.532C1120.19 202.746 1119.95 202.996 1119.73 203.207C1119.66 203.244 1119.59 203.316 1119.52 203.386C1119.41 203.492 1119.31 203.6 1119.2 203.635C1118.92 203.88 1118.62 204.106 1118.31 204.31C1117.92 204.595 1117.56 204.843 1117.17 205.057C1117.08 205.12 1116.99 205.179 1116.89 205.236C1116.53 205.447 1116.18 205.626 1115.86 205.767C1115.54 205.939 1115.21 206.082 1114.86 206.195L1114.83 206.231C1114.54 206.303 1114.33 206.409 1114.08 206.48C1114 206.516 1113.94 206.552 1113.86 206.552C1113.62 206.622 1113.37 206.692 1113.12 206.73C1113.05 206.73 1113.01 206.764 1112.94 206.764H1112.83C1112.65 206.802 1112.44 206.837 1112.26 206.873C1112.09 206.907 1111.87 206.907 1111.7 206.907C1111.52 206.944 1111.34 206.944 1111.19 206.944H1111.16C1111.13 206.977 1111.09 206.977 1111.05 206.944C1110.91 206.944 1110.73 206.944 1110.59 206.907V206.977C1110.38 206.977 1110.16 206.944 1109.92 206.907C1109.67 206.873 1109.38 206.837 1109.13 206.802C1108.99 206.764 1108.85 206.764 1108.67 206.73C1108.53 206.692 1108.38 206.692 1108.24 206.622C1107.5 206.444 1106.79 206.159 1106.04 205.767C1105.81 205.652 1105.58 205.522 1105.36 205.379C1104.19 204.703 1103.05 203.742 1101.87 202.531C1101.45 202.107 1101.06 201.607 1100.63 201.107C1098.82 198.83 1097 195.809 1095.33 191.967C1094.65 190.43 1094.01 188.876 1093.41 187.305C1094.3 189.048 1092.75 172.788 1093.1 173.359C1088.27 164.109 1093.09 171.722 1094.8 167.135C1105.51 171.652 1126.31 179.444 1126.31 171.545C1126.31 171.545 1126.78 176.348 1127.31 181.328C1127.74 185.419 1128.2 189.655 1128.42 191.255C1128.42 191.254 1128.98 190.364 1129.8 188.835Z" fill="#F4C7B1"/>
<path d="M1111.05 206.944C1110.91 206.977 1110.73 206.977 1110.59 206.977V206.907C1110.73 206.944 1110.91 206.944 1111.05 206.944ZM1121.66 201.107V201.393C1121.6 201.451 1121.54 201.51 1121.48 201.57C1121.09 201.997 1120.66 202.387 1120.23 202.78C1120.05 202.923 1119.91 203.063 1119.74 203.206C1119.95 202.995 1120.2 202.744 1120.41 202.531C1120.73 202.211 1121.05 201.82 1121.4 201.426C1121.48 201.322 1121.55 201.217 1121.66 201.107Z" fill="#EEBEA7"/>
<path d="M1093.41 187.305C1090.56 181.684 1085.97 170.942 1086.79 160.766V160.729C1085.51 152.299 1096 137.108 1112.01 137.89C1128.02 137.108 1138.52 152.299 1137.24 160.729V160.766C1137.73 166.92 1136.24 173.252 1134.39 178.555C1135.56 178.516 1136.7 178.659 1137.84 179.051C1144.21 181.151 1147.2 189.44 1144.49 197.516C1141.83 205.626 1134.46 210.463 1128.09 208.365C1125.14 207.404 1122.9 205.093 1121.65 202.067V201.393C1122.01 201.037 1122.4 200.61 1122.75 200.184C1125.46 197.089 1127.84 193.175 1129.8 188.834C1128.98 190.364 1128.48 192.244 1128.48 192.244C1128.27 190.646 1127.74 185.418 1127.31 181.327C1126.77 176.347 1126.31 171.544 1126.31 171.544C1126.31 179.444 1105.5 171.651 1094.8 167.134L1093.41 187.305Z" fill="#FFBE55"/>
<path d="M1121.66 201.107V202.067C1121.66 202.744 1121.62 203.562 1121.66 204.487C1120.62 205.767 1119.59 206.836 1118.52 207.653C1118.17 207.938 1117.81 208.188 1117.46 208.436C1117.19 208.638 1116.9 208.817 1116.6 208.969H1116.57C1114.93 209.893 1113.29 210.356 1111.69 210.392H1110.87C1110.77 210.392 1110.66 210.392 1110.59 210.356V206.905C1110.73 206.942 1110.91 206.942 1111.05 206.942C1111.09 206.975 1111.13 206.975 1111.16 206.942H1111.19C1111.37 206.975 1111.52 206.975 1111.69 206.975C1111.91 206.975 1112.16 206.942 1112.37 206.905C1112.62 206.871 1112.9 206.835 1113.15 206.8C1113.29 206.762 1113.44 206.762 1113.62 206.728C1113.76 206.69 1113.9 206.69 1114.04 206.62C1114.79 206.442 1115.5 206.157 1116.24 205.765C1116.46 205.661 1116.71 205.519 1116.92 205.377C1117.7 204.95 1118.45 204.378 1119.2 203.632C1119.31 203.597 1119.41 203.489 1119.52 203.383C1119.59 203.313 1119.66 203.241 1119.74 203.204C1119.95 202.993 1120.2 202.742 1120.41 202.529C1120.73 202.209 1121.05 201.818 1121.4 201.424C1121.48 201.322 1121.55 201.217 1121.66 201.107Z" fill="#A5735B"/>
<path d="M1110.59 231.595V327.899L1127.21 327.189L1140.87 326.584L1139.48 309.757L1137.95 290.935C1135.58 291.942 1133.22 292.974 1130.87 294.033C1131.51 286.597 1131.79 279.767 1131.37 274.18C1129.7 253.403 1127.1 236.47 1125.07 225.406V225.37C1125.28 223.236 1125 220.852 1124.5 218.647C1124.43 218.192 1124.33 217.741 1124.22 217.295C1124.07 216.796 1123.97 216.335 1123.83 215.872L1123.5 214.806C1123.43 214.557 1123.33 214.308 1123.26 214.093C1123 213.223 1122.69 212.368 1122.33 211.532H1122.26C1122.55 212.814 1123.54 217.083 1124.79 223.805V223.842C1123.97 227.399 1121.37 229.391 1118.17 230.496C1118.13 230.496 1118.07 230.529 1118.03 230.529C1115.82 231.278 1113.33 231.561 1110.95 231.596C1110.84 231.595 1110.7 231.632 1110.59 231.595Z" fill="#005896"/>
<path d="M1148.55 261.554C1149.4 262.867 1150.61 265.287 1151.82 268.027C1151.65 271.051 1151.43 272.863 1151.43 272.863C1151.43 272.863 1150.12 276.314 1148.37 281.724C1147.91 283.073 1143.43 306.981 1142.93 308.548C1142.82 308.832 1142.75 309.152 1142.65 309.437C1141.01 310.253 1141.38 308.829 1138.53 309.971C1137.68 310.325 1136.75 310.681 1135.79 311.106C1135.65 311.181 1135.47 311.25 1135.22 311.356C1134.93 311.463 1134.65 311.57 1134.36 311.712C1132.47 312.526 1130.59 313.356 1128.71 314.203C1129.35 306.767 1131.79 279.767 1131.37 274.181C1129.7 253.404 1127.1 236.471 1125.07 225.407V225.371C1124.96 224.838 1124.9 224.341 1124.79 223.842V223.805C1123.54 217.083 1122.55 212.815 1122.26 211.532H1131.48V211.605C1134.04 211.426 1146.12 209.725 1154.38 217.587C1149.82 215.63 1143.78 217.401 1141.76 218.648C1140.94 219.117 1140.19 219.691 1139.51 220.355C1138.48 221.318 1137.64 222.464 1137.03 223.735C1131.12 235.938 1146.06 257.78 1148.55 261.554Z" fill="#005896"/>
<path d="M1149.22 336.219H1126.33C1126.57 333.301 1126.87 330.276 1127.21 327.191C1127.55 323.88 1127.96 320.514 1128.35 317.13C1128.48 315.962 1128.61 314.801 1128.74 313.636C1128.74 313.636 1128.75 313.636 1128.76 313.628C1131.54 312.611 1135.2 307.885 1139.2 306.302C1139.3 306.269 1139.39 306.23 1139.48 306.197C1140.63 305.806 1141.76 308.972 1142.93 308.548C1143.68 316.498 1146.36 326.871 1149.22 336.219Z" fill="#005896"/>
<path d="M1110.59 210.358V231.596C1110.7 231.633 1110.84 231.596 1110.95 231.596C1113.33 231.561 1115.82 231.278 1118.03 230.529C1118.07 230.529 1118.14 230.496 1118.17 230.496C1121.37 229.391 1123.97 227.399 1124.79 223.842V223.805C1123.54 217.083 1122.55 212.815 1122.26 211.532H1121.76V210.857C1121.76 210.431 1121.73 210.039 1121.73 209.647C1121.69 208.366 1121.69 207.157 1121.66 205.982V204.489C1120.63 205.769 1119.59 206.838 1118.53 207.655C1118.2 207.949 1117.84 208.211 1117.46 208.438C1117.19 208.639 1116.91 208.817 1116.61 208.971H1116.57C1114.83 209.968 1113.12 210.394 1111.41 210.394C1111.13 210.394 1110.84 210.394 1110.59 210.358Z" fill="#F4C7B1"/>
<path d="M1212.66 257.012L1213.48 258.477L1213.51 258.505L1219.93 269.868L1220.93 271.617C1220.93 271.617 1218.98 272.402 1215.91 273.699C1213.12 274.878 1209.42 276.427 1205.41 278.165C1204.29 278.662 1203.17 279.149 1202.05 279.625C1194.24 283.088 1186.03 286.785 1181.91 289.151C1172.93 294.278 1165.46 296.069 1160.91 295.975C1156.39 295.855 1146.46 269.057 1144.91 262.628C1143.33 256.227 1137.53 244.432 1133.36 233.201C1131.6 228.429 1132.11 224.218 1133.62 220.875C1135.63 216.343 1139.41 213.414 1141.74 212.946C1142.66 212.735 1143.61 212.642 1144.55 212.671C1146.01 212.677 1147.38 212.956 1148.67 213.455C1161.3 218.378 1165.21 244.552 1165.95 249.01C1166.23 250.557 1166.99 253.151 1167.96 255.983C1170.13 262.608 1173.29 270.603 1173.29 270.603C1179.63 267.869 1182.25 267.088 1184.67 266.395C1186.42 265.882 1188.08 265.464 1190.94 264.364C1191.8 264.044 1192.72 263.671 1193.72 263.332C1196.14 262.455 1198.57 261.606 1201.01 260.785C1207.05 258.767 1212.66 257.012 1212.66 257.012Z" fill="#005896"/>
<path d="M1111.69 206.907V210.358C1111.59 210.394 1111.52 210.394 1111.41 210.394H1110.59C1108.99 210.358 1107.35 209.895 1105.71 208.971H1105.68C1105.38 208.817 1105.09 208.639 1104.82 208.438C1104.46 208.188 1104.11 207.926 1103.76 207.655C1102.69 206.838 1101.66 205.768 1100.63 204.489C1100.66 203.102 1100.63 201.927 1100.63 201.109C1101.06 201.609 1101.45 202.108 1101.87 202.533C1103.05 203.744 1104.19 204.706 1105.36 205.381C1105.57 205.523 1105.82 205.666 1106.04 205.769C1106.79 206.161 1107.5 206.446 1108.24 206.624C1108.38 206.694 1108.53 206.694 1108.67 206.732C1108.85 206.766 1108.99 206.766 1109.13 206.804C1109.38 206.839 1109.66 206.875 1109.92 206.909C1110.16 206.946 1110.38 206.979 1110.59 206.979C1110.73 206.979 1110.91 206.979 1111.05 206.946C1111.09 206.979 1111.12 206.979 1111.16 206.946H1111.19C1111.34 206.944 1111.52 206.944 1111.69 206.907Z" fill="#A5735B"/>
<path d="M1111.69 231.595V327.899L1095.08 327.189L1081.42 326.584L1082.81 309.757L1084.34 290.935C1086.54 291.863 1089.03 292.964 1091.42 294.033C1090.77 286.597 1090.49 279.767 1090.92 274.18C1092.59 253.403 1095.19 236.47 1097.21 225.406V225.37C1097 223.236 1097.29 220.852 1097.78 218.647C1097.85 218.181 1097.96 217.723 1098.07 217.295C1098.21 216.796 1098.32 216.335 1098.46 215.872L1098.78 214.806C1098.85 214.557 1098.96 214.308 1099.03 214.093C1099.29 213.223 1099.6 212.369 1099.96 211.532H1100.02C1099.74 212.814 1098.74 217.083 1097.5 223.805V223.842C1098.32 227.399 1100.92 229.391 1104.12 230.496C1104.15 230.496 1104.22 230.529 1104.26 230.529C1106.46 231.278 1108.96 231.561 1111.34 231.596C1111.44 231.595 1111.59 231.632 1111.69 231.595Z" fill="#005896"/>
<path d="M1100.02 211.531C1099.74 212.813 1098.74 217.082 1097.5 223.804V223.841C1097.39 224.339 1097.32 224.837 1097.21 225.37V225.406C1095.19 236.47 1092.59 253.403 1090.92 274.18C1090.49 279.766 1090.77 286.597 1091.42 294.033C1089.07 292.974 1086.71 291.942 1084.34 290.935C1083.38 290.508 1082.45 290.154 1081.6 289.8C1078.75 288.66 1077.25 287.841 1075.62 287.022C1075.52 286.738 1075.44 286.42 1075.33 286.135C1074.84 284.569 1074.38 283.074 1073.91 281.725C1072.17 276.316 1070.85 272.864 1070.85 272.864C1070.85 272.864 1070.64 271.052 1070.46 268.028C1071.67 265.287 1072.88 262.868 1073.74 261.555C1076.23 257.781 1091.17 235.939 1085.26 223.736C1084.65 222.465 1083.8 221.319 1082.77 220.356C1082.1 219.693 1081.35 219.119 1080.53 218.649C1078.5 217.403 1070.53 218.813 1065.97 220.77C1074.23 212.905 1088.25 211.427 1090.81 211.606V211.533H1100.02V211.531ZM1095.96 336.219H1073.06C1073.75 333.973 1074.43 331.669 1075.06 329.357C1077.1 322.031 1078.79 314.593 1079.36 308.548C1080.52 308.972 1081.67 309.364 1082.81 309.755C1086.94 311.21 1090.7 312.603 1093.54 313.636C1093.8 315.969 1094.08 318.312 1094.35 320.633C1094.6 322.838 1094.85 325.03 1095.08 327.19C1095.42 330.276 1095.72 333.301 1095.96 336.219Z" fill="#005896"/>
<path d="M1111.7 210.358V231.596C1111.59 231.633 1111.44 231.596 1111.34 231.596C1108.96 231.561 1106.46 231.278 1104.26 230.529C1104.22 230.529 1104.15 230.496 1104.12 230.496C1100.92 229.391 1098.32 227.399 1097.5 223.842V223.805C1098.74 217.083 1099.74 212.815 1100.02 211.532H1100.52V210.857C1100.52 210.431 1100.56 210.039 1100.56 209.647C1100.59 208.366 1100.59 207.157 1100.63 205.982V204.489C1101.66 205.769 1102.69 206.838 1103.76 207.655C1104.12 207.976 1104.47 208.224 1104.83 208.438C1105.11 208.651 1105.4 208.826 1105.68 208.971H1105.71C1107.46 209.968 1109.17 210.394 1110.87 210.394C1111.16 210.394 1111.44 210.394 1111.7 210.358Z" fill="#F4C7B1"/>
<path d="M1121.51 304.527C1121.26 306.092 1120.23 307.266 1120.23 307.266C1120.23 307.266 1120.84 309.328 1119.45 310.68C1119.45 310.68 1119.91 312.636 1118.1 313.917C1118.1 313.917 1118.52 315.839 1117.1 316.658C1117.1 316.658 1114 317.05 1112.87 316.837C1108.27 315.79 1103.68 314.699 1099.1 313.563L1102.12 300.861V300.827C1103.44 299.938 1104.68 299.117 1105.08 298.869C1106.04 298.298 1109.31 298.478 1112.69 299.544C1115.96 300.577 1119.63 302.035 1120.66 302.604C1121.19 302.889 1121.72 302.998 1121.51 304.527Z" fill="#EEA886"/>
<path d="M1102.52 299.189L1102.12 300.827V300.861L1099.1 313.563L1098.64 315.521C1098.64 315.521 1096.68 314.774 1093.55 313.634C1090.7 312.602 1086.93 311.216 1082.81 309.758C1081.67 309.365 1080.53 308.973 1079.36 308.549C1071.28 305.771 1062.74 302.89 1058.12 301.823C1048.05 299.474 1041.36 295.704 1038.08 292.539C1034.85 289.373 1045.81 262.976 1049.05 257.212C1052.25 251.448 1056.01 238.855 1060.61 227.792C1062.56 223.094 1065.8 220.356 1069.18 218.934C1073.74 216.976 1078.5 217.402 1080.53 218.648C1081.34 219.117 1082.1 219.691 1082.77 220.355C1083.8 221.318 1084.65 222.464 1085.26 223.735C1091.16 235.938 1076.22 257.78 1073.74 261.554C1072.88 262.867 1071.67 265.287 1070.46 268.027C1067.54 274.357 1064.41 282.362 1064.41 282.362C1070.92 284.677 1073.38 285.884 1075.62 287.021C1077.25 287.84 1078.75 288.659 1081.6 289.799C1082.45 290.153 1083.37 290.507 1084.33 290.934C1086.54 291.862 1089.03 292.963 1091.42 294.032C1095.13 295.721 1098.83 297.44 1102.52 299.189Z" fill="#005896"/>
<path d="M1136.04 178.744L1135.73 164.804C1135.69 162.478 1135.73 160.174 1135.4 158.017C1135.07 155.829 1134.48 153.687 1133.56 151.704C1131.75 147.729 1128.71 144.374 1124.9 142.246C1121.1 140.085 1116.67 139.103 1112.26 139.121C1107.84 139.103 1103.41 140.085 1099.62 142.246C1095.8 144.374 1092.76 147.729 1090.95 151.704C1090.04 153.686 1089.44 155.829 1089.11 158.017C1088.78 160.197 1088.82 162.448 1088.79 164.804L1088.47 178.744H1086.73L1086.43 164.804C1086.4 162.518 1086.29 160.111 1086.6 157.68C1086.91 155.272 1087.5 152.87 1088.47 150.611C1090.37 146.054 1093.9 142.191 1098.18 139.748C1102.46 137.267 1107.41 136.149 1112.26 136.124C1117.11 136.149 1122.05 137.267 1126.33 139.748C1130.61 142.191 1134.14 146.054 1136.03 150.611C1137.01 152.87 1137.61 155.272 1137.92 157.68C1138.22 160.13 1138.12 162.495 1138.09 164.804L1137.79 178.744H1136.04Z" fill="#005896"/>
<path d="M1088.12 186.313C1084.99 186.313 1084.2 184.064 1084.2 181.286V172.273C1084.2 169.498 1084.99 167.244 1088.12 167.244H1088.87V186.313H1088.12Z" fill="#005896"/>
<path d="M1088.87 167.245H1090.49V186.314H1088.87V167.245Z" fill="#005896"/>
<path d="M1136.87 186.313C1140.01 186.313 1140.81 184.064 1140.81 181.286V172.273C1140.81 169.498 1140.01 167.244 1136.87 167.244H1136.12V186.313H1136.87Z" fill="#005896"/>
<path d="M1134.5 167.245H1136.12V186.314H1134.5V167.245Z" fill="#005896"/>
<path d="M1113.42 203.69V201.941C1120.66 201.941 1134.44 191.658 1134.44 186.313H1136.18C1136.18 193.079 1120.94 203.69 1113.42 203.69Z" fill="#CCE9FF"/>
<path d="M1114.58 205.258H1112.25C1110.32 205.258 1108.75 204.168 1108.75 202.815C1108.75 201.467 1110.32 200.378 1112.25 200.378H1114.58C1116.51 200.378 1118.08 201.468 1118.08 202.815C1118.08 204.168 1116.51 205.258 1114.58 205.258Z" fill="#005896"/>
<path d="M1051.02 109.446V123.259L1050.94 142.01L1050.83 164.658L1050.76 181.366L1034.11 164.594L1029.03 164.576L961.682 164.261C950.303 162.041 941.716 152.027 941.716 140.02V109.446C941.716 96.7632 951.306 86.2882 963.624 84.9092L1031.14 85.2202C1042.47 87.4572 1051.02 97.4522 1051.02 109.446Z" fill="#005896"/>
<path opacity="0.8" d="M1030.03 110.109C1030.03 110.585 1029.93 111.057 1029.75 111.497C1029.57 111.937 1029.3 112.337 1028.97 112.674C1028.63 113.012 1028.23 113.279 1027.79 113.462C1027.35 113.644 1026.88 113.739 1026.4 113.739H964.317C963.841 113.739 963.369 113.645 962.929 113.463C962.488 113.28 962.088 113.013 961.751 112.676C961.414 112.339 961.147 111.938 960.965 111.498C960.783 111.058 960.689 110.586 960.689 110.109C960.689 109.633 960.783 109.161 960.966 108.721C961.148 108.281 961.415 107.881 961.752 107.544C962.089 107.207 962.489 106.94 962.929 106.758C963.369 106.576 963.841 106.482 964.317 106.482H1026.4C1028.4 106.482 1030.03 108.105 1030.03 110.109ZM1030.03 123.617C1030.03 124.579 1029.64 125.501 1028.96 126.181C1028.29 126.862 1027.36 127.246 1026.4 127.248H964.317C963.355 127.246 962.433 126.863 961.753 126.182C961.073 125.502 960.691 124.579 960.689 123.617C960.689 123.14 960.783 122.668 960.965 122.228C961.148 121.788 961.415 121.388 961.752 121.051C962.089 120.713 962.489 120.446 962.929 120.264C963.369 120.081 963.841 119.987 964.317 119.987H1026.4C1026.88 119.987 1027.35 120.082 1027.79 120.264C1028.23 120.447 1028.63 120.714 1028.97 121.051C1029.3 121.388 1029.57 121.789 1029.75 122.229C1029.93 122.669 1030.03 123.141 1030.03 123.617ZM1011.06 137.124C1011.06 139.114 1009.43 140.744 1007.43 140.744H964.313C963.354 140.743 962.434 140.361 961.756 139.682C961.078 139.003 960.697 138.083 960.697 137.124C960.697 136.121 961.092 135.219 961.752 134.56C962.087 134.221 962.486 133.952 962.926 133.768C963.365 133.584 963.837 133.488 964.313 133.488H1007.43C1008.39 133.489 1009.31 133.872 1009.99 134.554C1010.68 135.236 1011.06 136.16 1011.06 137.124Z" fill="#CCE9FF"/>
<path d="M1218.52 166.769L1240.09 160.586C1240.33 160.519 1240.58 160.504 1240.83 160.541C1241.08 160.578 1241.32 160.667 1241.53 160.803C1241.74 160.938 1241.93 161.117 1242.07 161.328C1242.22 161.539 1242.32 161.778 1242.37 162.031L1245.03 176.268C1245.15 176.866 1245.07 177.489 1244.78 178.026C1244.5 178.563 1244.04 178.979 1243.49 179.197L1222.44 187.872C1222.2 187.972 1221.94 188.016 1221.68 188C1221.42 187.985 1221.17 187.911 1220.94 187.784C1220.71 187.657 1220.51 187.48 1220.36 187.265C1220.2 187.049 1220.09 186.802 1220.04 186.54L1216.78 169.831C1216.7 169.513 1216.68 169.181 1216.72 168.854C1216.77 168.528 1216.87 168.214 1217.03 167.93C1217.19 167.645 1217.41 167.396 1217.66 167.197C1217.92 166.998 1218.21 166.853 1218.52 166.769Z" stroke="#005896" stroke-width="1.134" stroke-linecap="round" stroke-linejoin="round"/>
<path d="M1217.25 167.676L1231.76 171.056C1232.23 171.153 1232.71 171.115 1233.16 170.946C1233.61 170.776 1234 170.483 1234.29 170.097L1241.42 160.75" stroke="#005896" stroke-width="1.134" stroke-linecap="round" stroke-linejoin="round"/>
<path d="M1238.58 300.117L1260.15 293.933C1260.39 293.867 1260.64 293.851 1260.89 293.889C1261.14 293.926 1261.37 294.015 1261.59 294.15C1261.8 294.286 1261.99 294.464 1262.13 294.675C1262.27 294.887 1262.37 295.126 1262.43 295.378L1265.09 309.615C1265.21 310.213 1265.13 310.837 1264.84 311.374C1264.56 311.911 1264.1 312.326 1263.55 312.545L1242.5 321.22C1242.26 321.32 1242 321.363 1241.74 321.348C1241.48 321.333 1241.23 321.259 1241 321.132C1240.77 321.005 1240.57 320.827 1240.42 320.612C1240.26 320.397 1240.15 320.15 1240.1 319.887L1236.84 303.179C1236.76 302.86 1236.74 302.528 1236.78 302.202C1236.83 301.876 1236.93 301.562 1237.09 301.277C1237.25 300.993 1237.47 300.744 1237.72 300.545C1237.98 300.346 1238.27 300.2 1238.58 300.117Z" stroke="#005896" stroke-width="1.134" stroke-linecap="round" stroke-linejoin="round"/>
<path d="M1237.31 301.023L1251.82 304.404C1252.29 304.501 1252.77 304.463 1253.22 304.293C1253.67 304.124 1254.06 303.83 1254.35 303.445L1261.47 294.097" stroke="#005896" stroke-width="1.134" stroke-linecap="round" stroke-linejoin="round"/>
<path d="M879.303 208.282L917.32 198.369C917.747 198.262 918.192 198.238 918.629 198.297C919.066 198.357 919.486 198.5 919.862 198.717C920.238 198.934 920.563 199.22 920.817 199.559C921.071 199.897 921.249 200.281 921.339 200.685L926.033 223.509C926.251 224.468 926.097 225.468 925.599 226.329C925.1 227.19 924.289 227.855 923.312 228.206L886.223 242.113C885.797 242.273 885.34 242.343 884.882 242.318C884.424 242.294 883.978 242.176 883.574 241.972C883.17 241.768 882.819 241.484 882.546 241.139C882.272 240.794 882.083 240.397 881.992 239.977L876.246 213.191C876.102 212.68 876.067 212.148 876.143 211.625C876.219 211.102 876.404 210.598 876.688 210.142C876.971 209.686 877.348 209.287 877.797 208.968C878.246 208.649 878.758 208.416 879.303 208.282Z" stroke="#005896" stroke-width="1.134" stroke-linecap="round" stroke-linejoin="round"/>
<path d="M877.076 209.735L902.646 215.154C903.469 215.31 904.323 215.249 905.111 214.978C905.899 214.706 906.591 214.235 907.109 213.617L919.66 198.632" stroke="#005896" stroke-width="1.134" stroke-linecap="round" stroke-linejoin="round"/>
<path d="M1266.76 270.349L1283.56 272.452C1283.75 272.478 1283.93 272.542 1284.09 272.642C1284.26 272.742 1284.4 272.875 1284.51 273.033C1284.62 273.191 1284.7 273.371 1284.74 273.561C1284.78 273.751 1284.78 273.948 1284.75 274.14L1282.59 284.872C1282.5 285.327 1282.27 285.736 1281.92 286.027C1281.57 286.318 1281.13 286.471 1280.68 286.458L1263.54 286.251C1263.34 286.249 1263.15 286.202 1262.97 286.114C1262.8 286.026 1262.64 285.899 1262.52 285.742C1262.39 285.585 1262.3 285.402 1262.26 285.206C1262.21 285.009 1262.2 284.805 1262.24 284.606L1264.68 271.971C1264.71 271.724 1264.79 271.486 1264.92 271.271C1265.04 271.056 1265.2 270.868 1265.39 270.717C1265.59 270.567 1265.81 270.457 1266.04 270.394C1266.27 270.33 1266.52 270.315 1266.76 270.349Z" stroke="#005896" stroke-width="1.134" stroke-linecap="round" stroke-linejoin="round"/>
<path d="M1265.62 270.605L1274.79 277.284C1275.09 277.491 1275.44 277.608 1275.8 277.623C1276.16 277.638 1276.52 277.55 1276.83 277.368L1284.44 272.962" stroke="#005896" stroke-width="1.134" stroke-linecap="round" stroke-linejoin="round"/>
<path d="M1246.7 137.001L1263.5 139.105C1263.69 139.13 1263.87 139.195 1264.03 139.295C1264.2 139.395 1264.34 139.528 1264.45 139.686C1264.56 139.844 1264.64 140.023 1264.68 140.214C1264.72 140.404 1264.72 140.601 1264.69 140.792L1262.53 151.525C1262.44 151.979 1262.21 152.388 1261.86 152.679C1261.51 152.97 1261.07 153.123 1260.62 153.111L1243.48 152.903C1243.28 152.901 1243.09 152.854 1242.91 152.766C1242.74 152.678 1242.58 152.551 1242.46 152.394C1242.33 152.237 1242.24 152.054 1242.2 151.858C1242.15 151.662 1242.14 151.457 1242.18 151.258L1244.62 138.623C1244.66 138.376 1244.74 138.139 1244.86 137.924C1244.98 137.709 1245.14 137.52 1245.33 137.37C1245.53 137.219 1245.75 137.109 1245.98 137.046C1246.21 136.983 1246.46 136.968 1246.7 137.001Z" stroke="#005896" stroke-width="1.134" stroke-linecap="round" stroke-linejoin="round"/>
<path d="M1245.56 137.258L1254.73 143.936C1255.03 144.143 1255.38 144.26 1255.74 144.275C1256.1 144.29 1256.46 144.202 1256.77 144.02L1264.38 139.614" stroke="#005896" stroke-width="1.134" stroke-linecap="round" stroke-linejoin="round"/>
<path d="M962.274 250.559L991.892 253.932C992.223 253.972 992.542 254.076 992.828 254.236C993.115 254.396 993.364 254.609 993.559 254.863C993.754 255.116 993.892 255.404 993.965 255.709C994.037 256.014 994.042 256.33 993.979 256.637L990.172 273.842C990.027 274.571 989.609 275.227 988.994 275.693C988.378 276.159 987.606 276.405 986.815 276.385L956.604 276.053C956.257 276.049 955.916 275.974 955.604 275.833C955.292 275.692 955.017 275.488 954.799 275.237C954.58 274.985 954.423 274.692 954.34 274.377C954.256 274.062 954.247 273.734 954.313 273.415L958.616 253.159C958.674 252.764 958.815 252.383 959.03 252.038C959.245 251.693 959.531 251.392 959.87 251.15C960.21 250.909 960.597 250.732 961.009 250.631C961.422 250.53 961.851 250.505 962.274 250.559Z" stroke="#005896" stroke-width="1.134" stroke-linecap="round" stroke-linejoin="round"/>
<path d="M960.267 250.971L976.436 261.677C976.963 262.009 977.578 262.197 978.212 262.221C978.846 262.245 979.476 262.103 980.029 261.812L993.444 254.748" stroke="#005896" stroke-width="1.134" stroke-linecap="round" stroke-linejoin="round"/>
</g>
</g>
<defs>
<clipPath id="clip0_493_8206">
<rect width="1440" height="436" fill="white"/>
</clipPath>
<clipPath id="clip1_493_8206">
<rect width="500" height="421" fill="white" transform="translate(856 8)"/>
</clipPath>
</defs>
</svg>
