<svg width="371" height="400" viewBox="0 0 371 400" fill="none" xmlns="http://www.w3.org/2000/svg">
<g clip-path="url(#clip0_486_7629)">
<path opacity="0.18" d="M105.767 96.8374C86.3043 112.634 79.8343 135.579 63.3126 153.288C43.9993 174 10.5873 188.22 3.61695 213.24C-4.02059 240.793 24.5368 266.052 53.34 283.119C67.2104 291.345 82.108 299.278 91.1326 310.883C96.7774 318.147 99.7797 326.434 104.301 334.162C118.645 358.827 150.345 377.649 185.118 379.021C219.891 380.393 255.445 362.534 264.865 336.477C269.465 323.738 268.315 309.484 277.225 298.247C288.883 283.508 313.367 278.961 331.074 268.482C364.943 248.453 366.813 203.498 334.682 181.783C306.511 162.763 259.387 160.271 243.55 133.995C239.257 126.875 238.037 118.867 234.279 111.569C214.729 73.6196 139.319 69.5987 105.767 96.8374Z" fill="#005896"/>
<path d="M167.025 193.859C177.454 193.859 185.908 187.284 185.908 179.175C185.908 171.065 177.454 164.49 167.025 164.49C156.596 164.49 148.142 171.065 148.142 179.175C148.142 187.284 156.596 193.859 167.025 193.859Z" fill="#3F3D56"/>
<path d="M230.97 290.28C230.97 290.28 229.908 308.712 228.38 312.283C226.853 315.853 228.67 317.492 223.877 318.427C219.083 319.362 220.769 299.271 220.769 299.271L222.384 291.571L230.97 290.28Z" fill="url(#paint0_linear_486_7629)"/>
<path d="M180.852 295.639L191.939 346.109H201.42L203.791 317.034L205.976 353.536H216.379C216.379 353.536 225.325 313.552 223.674 306.193C223.222 303.767 222.239 301.419 220.769 299.25L180.852 295.639Z" fill="#25233A"/>
<path d="M187.391 216.954C187.005 213.056 187.277 208.912 189.972 205.615C191.07 204.289 192.513 203.156 194.208 202.291C195.903 201.425 197.813 200.846 199.813 200.59C205.581 199.907 211.226 201.955 216.493 203.935C224.218 206.884 231.996 209.861 238.791 213.95C245.586 218.039 251.424 223.398 253.996 229.781C255.152 232.889 255.769 236.104 255.831 239.339C256.041 242.357 255.772 245.383 255.032 248.35C253.696 252.895 250.799 257.072 246.652 260.438C242.504 263.804 237.26 266.233 231.478 267.465C218.31 270.127 203.307 266.366 191.395 271.452C190.614 271.874 189.707 272.132 188.761 272.203C188.118 272.155 187.509 271.958 187.011 271.638C186.513 271.318 186.151 270.889 185.969 270.407C185.631 269.437 185.631 268.415 185.969 267.444C186.802 264.431 188.753 261.673 191.579 259.512C195.213 256.747 200.059 255.149 204.027 252.685C204.702 252.335 205.219 251.829 205.502 251.238C205.976 249.872 204.15 248.746 202.473 248.241C200.797 247.736 198.795 247.285 198.128 245.995C197.584 244.95 198.128 243.79 198.505 242.697C200.024 237.919 196.75 234.71 193.37 231.167C189.446 227.071 187.883 221.951 187.391 216.954Z" fill="#3F3D56"/>
<path d="M216.625 218.367C216.625 218.367 222.542 226.061 229.345 231.154C236.149 236.246 247.737 245.401 240.354 252.351C235.918 256.523 230.27 259.816 223.876 261.956L208.891 250.248V231.133L216.625 218.367Z" fill="#25233A"/>
<path d="M164.69 211.533L178.982 210.707C178.982 210.707 174.97 232.28 194.476 239.284C213.983 246.288 225.983 247.749 227.309 253.156C228.635 258.562 233.797 289.768 233.797 289.768L223.973 291.549L223.675 267.417L224.052 297.857C224.052 297.857 202.772 307.142 196.645 305.312C190.517 303.482 177.656 301.96 177.964 286.45C178.271 270.939 187.62 259.962 177.472 248.159C167.324 236.355 164.427 217.124 164.69 211.533Z" fill="#005896"/>
<path d="M164.69 211.533L178.982 210.707C178.982 210.707 174.97 232.28 194.476 239.284C213.983 246.288 225.983 247.749 227.309 253.156C228.635 258.562 233.797 289.768 233.797 289.768L223.973 291.549L223.675 267.417L224.052 297.857C224.052 297.857 202.772 307.142 196.645 305.312C190.517 303.482 177.656 301.96 177.964 286.45C178.271 270.939 187.62 259.962 177.472 248.159C167.324 236.355 164.427 217.124 164.69 211.533Z" fill="url(#paint1_linear_486_7629)"/>
<path d="M198.717 240.793C198.717 240.793 199.261 247.21 204.563 247.053C209.866 246.896 209.875 244.835 209.875 244.835L213.246 233.652L198.717 234.335C198.717 234.335 200.367 239.073 198.717 240.793Z" fill="url(#paint2_linear_486_7629)"/>
<path d="M199.375 237.271C199.375 237.271 198.707 240.575 201.438 241.51C204.168 242.445 208.566 241.271 209.628 240.329L209.874 244.807L212.332 236.649L199.375 237.271Z" fill="#222A72"/>
<path d="M194.169 218.149C194.169 218.149 191.105 235.134 202.114 238.568C213.122 242.001 216.494 232.785 217.916 228.362C219.338 223.938 215.221 208.086 206.503 210.551C201.399 211.917 197.048 214.598 194.169 218.149Z" fill="url(#paint3_linear_486_7629)"/>
<path d="M168.298 211.328C168.298 211.328 169.325 205.389 169.351 205.28C169.442 204.729 169.338 204.168 169.05 203.66C168.763 203.151 168.302 202.713 167.718 202.392C166.665 201.778 165.506 200.344 165.506 197.033C165.506 193.722 170.018 190.138 171.879 191.572C173.74 193.005 173.749 194.139 175.479 194.35C177.208 194.562 175.874 197.975 175.479 199.129C175.083 200.283 177.603 210.81 177.603 210.81L168.298 211.328Z" fill="url(#paint4_linear_486_7629)"/>
<path d="M223.675 267.444L229.381 290.567L223.973 291.55L223.675 267.444Z" fill="url(#paint5_linear_486_7629)"/>
<path d="M205.977 353.537C205.977 353.537 203.51 372.447 207.557 387.814H210.375L216.38 353.537H205.977ZM191.939 346.109L197.593 384.674L199.665 383.991C199.665 383.991 203.545 356.684 203.229 354.049C202.913 351.414 201.421 346.096 201.421 346.096L191.939 346.109Z" fill="#25233A"/>
<path d="M199.664 384.004C199.664 384.004 200.92 385.656 200.779 386.83C200.674 387.636 193.511 394.544 188.392 398.272C182.862 402.3 177.498 400.811 177.498 400.811C175.496 400.654 174.461 397.077 175.988 396.033C179.317 393.815 183.058 392.001 187.084 390.653C196.258 387.636 197.619 384.646 197.619 384.646L199.664 384.004ZM207.557 387.813C207.006 389.155 206.806 390.568 206.968 391.971C207.32 393.971 218.381 403.76 218.381 403.76C218.381 403.76 227.441 408.334 230.618 404.402C233.796 400.47 221.243 395.254 218.75 394.162C216.256 393.07 210.375 387.82 210.375 387.82L207.557 387.813Z" fill="#25233A"/>
<path d="M144.183 156.476C145.385 159.471 147.768 162.097 150.994 163.983C154.221 165.868 158.127 166.917 162.162 166.982C167.209 166.982 172.889 165.487 178.157 160.538C192.203 147.348 166.349 124.103 201.175 95.9976C236 67.8919 239.626 18.0703 177.077 14.7594C129.312 12.2471 109.77 35.3488 104.274 49.8079V64.4649L137.827 74.705C137.827 74.705 150.661 44.4216 171.792 48.2787C192.923 52.1358 173.021 79.2926 159.686 89.6146C130.303 112.368 138.801 143.471 144.183 156.476Z" fill="#3F3D56"/>
<path d="M144.183 137.914C145.394 140.906 147.778 143.528 151.003 145.412C154.227 147.296 158.129 148.348 162.162 148.42C167.21 148.42 172.889 146.638 178.157 141.696C192.203 128.5 164.558 115.386 199.393 87.2798C234.227 59.1741 239.652 3.44062 177.103 0.150126C114.554 -3.14036 104.301 49.8283 104.301 49.8283L137.853 60.0684C137.853 60.0684 150.662 29.8191 171.792 33.6626C192.923 37.5061 173.021 64.6697 159.686 74.9985C130.304 97.7316 138.801 124.909 144.183 137.914Z" fill="#489BC2"/>
<path d="M167.025 184.253C177.454 184.253 185.908 177.679 185.908 169.569C185.908 161.459 177.454 154.885 167.025 154.885C156.596 154.885 148.142 161.459 148.142 169.569C148.142 177.679 156.596 184.253 167.025 184.253Z" fill="#005896"/>
<path d="M91.7294 176.43C93.6057 173.308 91.8723 169.594 87.8577 168.135C83.8431 166.676 79.0676 168.024 77.1913 171.146C75.315 174.268 77.0484 177.982 81.063 179.441C85.0776 180.9 89.8531 179.552 91.7294 176.43Z" fill="#3F3D56"/>
<path d="M71.1166 167.31C72.1584 168.37 73.601 169.149 75.2418 169.539C76.8825 169.928 78.6389 169.908 80.2641 169.481C82.2832 168.921 84.2672 167.672 85.4524 165.098C88.5952 158.272 73.9346 151.875 82.6168 136.713C91.299 121.551 83.442 101.214 57.8431 106.976C38.284 111.358 34.7812 122.793 35.2816 129.197L38.0118 135.04L53.322 135.341C53.322 135.341 52.7953 121.803 61.9603 120.957C71.1254 120.11 68.2372 133.211 64.831 138.843C57.3339 151.254 66.5341 162.723 71.1166 167.31Z" fill="#3F3D56"/>
<path d="M67.6585 159.889C68.6963 160.951 70.1373 161.732 71.7774 162.121C73.4175 162.511 75.1737 162.489 76.7972 162.06C78.8251 161.5 80.7564 160.141 81.9328 157.568C85.0844 150.741 71.6002 148.591 80.2736 133.428C88.947 118.266 80.7213 95.3898 55.1136 101.131C29.5059 106.872 35.3263 129.196 35.3263 129.196L50.6364 129.489C50.6364 129.489 50.1185 115.959 59.2748 115.112C68.431 114.266 65.5516 127.366 62.1454 132.992C54.6396 145.403 63.0672 155.301 67.6585 159.889Z" fill="#489BC2"/>
<path d="M86.2051 175.558C90.1854 174.043 91.8327 170.306 89.8845 167.211C87.9363 164.116 83.1304 162.835 79.1502 164.35C75.17 165.865 73.5227 169.602 75.4708 172.697C77.419 175.792 82.2249 177.073 86.2051 175.558Z" fill="#005896"/>
<path d="M49.1082 233.645C49.4428 234.851 49.3105 236.106 48.728 237.253C48.1455 238.4 47.139 239.388 45.8355 240.09C44.532 240.793 42.9901 241.179 41.4044 241.2C39.8187 241.222 38.2605 240.877 36.9264 240.21C35.5923 239.544 34.5423 238.584 33.9089 237.454C33.2755 236.323 33.0872 235.072 33.3677 233.858C33.6483 232.644 34.3851 231.522 35.4851 230.634C36.5851 229.745 37.999 229.13 39.5481 228.867C40.5795 228.69 41.6456 228.674 42.6852 228.818C43.7247 228.963 44.7172 229.266 45.6056 229.71C46.494 230.155 47.2608 230.731 47.8619 231.406C48.463 232.081 48.8865 232.842 49.1082 233.645Z" fill="#3F3D56"/>
<path d="M29.128 227.18C29.9789 228.339 31.2767 229.261 32.8379 229.814C34.3992 230.368 36.1448 230.526 37.8278 230.266C39.9259 229.918 42.1119 228.901 43.7096 226.457C47.9849 219.985 34.527 212.168 45.6848 198.023C56.8426 183.878 52.4971 162.941 26.1432 166.02C6.0135 168.368 0.614556 179.345 0.0351562 185.742L1.79091 191.818L16.8904 193.688C16.8904 193.688 18.6462 180.219 27.8814 180.315C37.1167 180.41 32.0338 193.101 27.7146 198.33C18.1721 209.861 25.3619 222.169 29.128 227.18Z" fill="#3F3D56"/>
<path d="M26.9509 219.473C27.8027 220.631 29.1007 221.552 30.6616 222.105C32.2225 222.659 33.9676 222.817 35.6506 222.558C37.7487 222.21 39.8908 221.057 41.4973 218.633C45.7726 212.161 32.7624 208.68 43.9202 194.535C55.0781 180.39 50.7765 156.865 24.4226 159.944C-1.93133 163.022 0.035112 185.742 0.035112 185.742L15.1346 187.599C15.1346 187.599 16.8904 174.13 26.1256 174.225C35.3609 174.321 30.278 187.012 25.9588 192.241C16.4602 203.785 23.176 214.462 26.9509 219.473Z" fill="#489BC2"/>
<path d="M40.7286 237.227C45.1477 236.971 48.4627 233.977 48.1327 230.54C47.8028 227.104 43.9529 224.526 39.5337 224.782C35.1146 225.039 31.7997 228.033 32.1297 231.469C32.4596 234.906 36.3095 237.484 40.7286 237.227Z" fill="#005896"/>
<path d="M283.985 186.752C283.631 187.955 282.827 189.049 281.674 189.896C280.52 190.744 279.07 191.306 277.505 191.513C275.941 191.719 274.333 191.56 272.885 191.056C271.437 190.552 270.214 189.725 269.369 188.68C268.525 187.636 268.098 186.42 268.143 185.186C268.187 183.953 268.701 182.758 269.619 181.751C270.536 180.745 271.817 179.972 273.3 179.532C274.782 179.092 276.398 179.003 277.945 179.277C280.02 179.646 281.822 180.641 282.954 182.043C284.087 183.444 284.458 185.138 283.985 186.752Z" fill="#3F3D56"/>
<path d="M269.473 174.273C269.604 175.601 270.268 176.863 271.37 177.882C272.473 178.901 273.959 179.625 275.618 179.953C277.699 180.335 280.245 180.124 283.028 178.465C290.446 174.034 282.58 162.497 300.436 153.417C318.292 144.338 325.894 123.96 300.357 117.987C280.868 113.42 269.947 121.55 265.909 127.141L264.153 133.203L276.812 139.907C276.812 139.907 285.811 128.302 294.098 131.469C302.385 134.637 290.823 144.406 284.037 147.703C269.087 154.967 268.841 168.484 269.473 174.273Z" fill="#3F3D56"/>
<path d="M271.738 166.579C271.868 167.907 272.531 169.17 273.634 170.189C274.737 171.208 276.223 171.932 277.884 172.259C279.973 172.648 282.554 172.314 285.337 170.655C292.755 166.224 282.905 158.749 300.77 149.669C318.635 140.59 327.659 117.911 302.201 111.917C276.742 105.924 265.971 127.141 265.971 127.141L278.63 133.845C278.63 133.845 287.628 122.239 295.915 125.4C304.202 128.561 292.641 138.371 285.863 141.641C270.869 148.905 271.08 160.797 271.738 166.579Z" fill="#489BC2"/>
<path d="M284.769 183.682C286.407 180.48 284.398 176.852 280.28 175.577C276.163 174.303 271.497 175.866 269.858 179.068C268.22 182.27 270.229 185.898 274.347 187.172C278.464 188.446 283.13 186.884 284.769 183.682Z" fill="#005896"/>
<path d="M324.728 242.575C324.047 243.323 323.096 243.898 321.996 244.226C320.896 244.554 319.695 244.621 318.545 244.419C317.396 244.217 316.349 243.754 315.538 243.089C314.726 242.424 314.187 241.588 313.987 240.684C313.787 239.781 313.936 238.852 314.415 238.015C314.894 237.177 315.681 236.469 316.677 235.979C317.674 235.49 318.834 235.241 320.012 235.264C321.191 235.287 322.333 235.582 323.297 236.11C323.937 236.461 324.482 236.907 324.9 237.422C325.319 237.937 325.603 238.511 325.736 239.112C325.869 239.712 325.848 240.327 325.675 240.921C325.502 241.516 325.18 242.078 324.728 242.575Z" fill="#3F3D56"/>
<path d="M319.285 230.806C318.895 231.749 318.896 232.765 319.288 233.708C319.681 234.651 320.444 235.475 321.47 236.062C322.284 236.498 323.217 236.78 324.196 236.886C325.174 236.991 326.171 236.917 327.106 236.67C333.822 235.257 332.602 225.59 348.175 223.269C363.749 220.948 376.382 208.605 361.001 198.884C349.264 191.463 338.8 194.651 333.989 197.607L330.556 201.382L336.825 208.783C336.825 208.783 347.227 202.789 351.748 206.776C356.27 210.762 344.796 214.968 338.931 215.732C326.044 217.439 320.944 226.676 319.285 230.806Z" fill="#3F3D56"/>
<path d="M323.639 226.006C323.248 226.951 323.249 227.968 323.642 228.912C324.034 229.856 324.797 230.681 325.825 231.27C327.115 231.993 329.011 232.335 331.522 231.802C338.238 230.389 334.156 223.085 349.773 220.77C365.391 218.456 379.823 204.83 364.443 195.109C349.062 185.387 333.998 197.607 333.998 197.607L340.266 205C340.266 205 350.669 199.007 355.19 203C359.711 206.994 348.237 211.192 342.373 211.957C329.477 213.664 325.298 221.883 323.639 226.006Z" fill="#489BC2"/>
<path d="M327.024 240.026C328.889 237.912 328.198 235.023 325.479 233.572C322.761 232.121 319.045 232.659 317.18 234.773C315.314 236.887 316.005 239.777 318.724 241.227C321.442 242.678 325.158 242.14 327.024 240.026Z" fill="#005896"/>
<path d="M167.543 365.879C167.432 365.879 167.322 365.855 167.227 365.811C167.152 365.779 167.087 365.736 167.035 365.684C166.983 365.631 166.945 365.572 166.923 365.508C166.902 365.444 166.898 365.377 166.911 365.312C166.924 365.247 166.954 365.184 166.999 365.128C173.651 355.667 179.077 345.714 183.196 335.418C189.709 319.341 195.855 295.345 188.112 272.312C173.188 227.972 169.729 200.747 169.676 200.474C169.662 200.344 169.713 200.216 169.82 200.116C169.927 200.016 170.081 199.954 170.247 199.941C170.411 199.93 170.574 199.97 170.701 200.051C170.827 200.133 170.907 200.251 170.923 200.378C170.923 200.651 174.434 227.808 189.306 272.059C197.127 295.325 190.938 319.525 184.363 335.732C180.213 346.086 174.755 356.095 168.07 365.613C168.019 365.689 167.944 365.754 167.852 365.8C167.759 365.847 167.653 365.874 167.543 365.879Z" fill="white"/>
</g>
<defs>
<linearGradient id="paint0_linear_486_7629" x1="220.479" y1="304.357" x2="230.97" y2="304.357" gradientUnits="userSpaceOnUse">
<stop stop-color="#ECC4D7"/>
<stop offset="0.42" stop-color="#EFD4D1"/>
<stop offset="1" stop-color="#F2EAC9"/>
</linearGradient>
<linearGradient id="paint1_linear_486_7629" x1="158.475" y1="265.15" x2="345.747" y2="182.052" gradientUnits="userSpaceOnUse">
<stop stop-color="white" stop-opacity="0"/>
<stop offset="0.99" stop-color="white"/>
</linearGradient>
<linearGradient id="paint2_linear_486_7629" x1="211.437" y1="225.481" x2="206.942" y2="240.198" gradientUnits="userSpaceOnUse">
<stop stop-color="#ECC4D7"/>
<stop offset="0.42" stop-color="#EFD4D1"/>
<stop offset="1" stop-color="#F2EAC9"/>
</linearGradient>
<linearGradient id="paint3_linear_486_7629" x1="193.774" y1="224.805" x2="218.188" y2="224.805" gradientUnits="userSpaceOnUse">
<stop stop-color="#ECC4D7"/>
<stop offset="0.42" stop-color="#EFD4D1"/>
<stop offset="1" stop-color="#F2EAC9"/>
</linearGradient>
<linearGradient id="paint4_linear_486_7629" x1="165.506" y1="201.286" x2="177.603" y2="201.286" gradientUnits="userSpaceOnUse">
<stop stop-color="#ECC4D7"/>
<stop offset="0.42" stop-color="#EFD4D1"/>
<stop offset="1" stop-color="#F2EAC9"/>
</linearGradient>
<linearGradient id="paint5_linear_486_7629" x1="233.191" y1="276.913" x2="185.575" y2="301.639" gradientUnits="userSpaceOnUse">
<stop stop-opacity="0"/>
<stop offset="1"/>
</linearGradient>
<clipPath id="clip0_486_7629">
<rect width="371" height="406" fill="white"/>
</clipPath>
</defs>
</svg>
