<svg width="586" height="422" viewBox="0 0 586 422" fill="none" xmlns="http://www.w3.org/2000/svg">
<path d="M443.403 46.1786H108.157C95.8861 46.1786 85.9377 56.3883 85.9377 68.9827V286.824C85.9377 299.418 95.8861 309.628 108.157 309.628H443.403C455.675 309.628 465.623 299.418 465.623 286.824V68.9827C465.623 56.3883 455.675 46.1786 443.403 46.1786Z" fill="#BFEBFF"/>
<path d="M111.346 46.1786H440.754C447.421 46.1786 453.816 48.8969 458.528 53.7349C463.245 58.5729 465.894 65.1351 465.894 71.977H86.209C86.209 65.1351 88.857 58.5729 93.5714 53.7349C98.2854 48.8969 104.679 46.1786 111.346 46.1786Z" fill="#005896"/>
<path d="M286.082 88.3516H441.159C443.818 88.3516 446.374 89.4362 448.253 91.3669C450.136 93.2981 451.194 95.9167 451.194 98.6476V177.322C451.194 180.052 450.136 182.672 448.253 184.602C446.374 186.533 443.818 187.618 441.159 187.618H286.082C283.422 187.618 280.87 186.533 278.989 184.602C277.108 182.672 276.051 180.052 276.051 177.322V98.6476C276.051 97.2953 276.31 95.9568 276.814 94.7072C277.319 93.4582 278.057 92.323 278.989 91.3674C279.92 90.4113 281.026 89.6527 282.243 89.1354C283.46 88.6181 284.765 88.3516 286.082 88.3516Z" stroke="#489BC2" stroke-width="0.9" stroke-miterlimit="10" stroke-dasharray="10.74 10.74"/>
<path d="M399.534 202.17H244.456C238.916 202.17 234.425 206.779 234.425 212.466V291.14C234.425 296.826 238.916 301.436 244.456 301.436H399.534C405.074 301.436 409.566 296.826 409.566 291.14V212.466C409.566 206.779 405.074 202.17 399.534 202.17Z" fill="white"/>
<path d="M215.634 202.17H107.271C102.584 202.17 98.7852 206.069 98.7852 210.88V292.727C98.7852 297.537 102.584 301.436 107.271 301.436H215.634C220.321 301.436 224.12 297.537 224.12 292.727V210.88C224.12 206.069 220.321 202.17 215.634 202.17Z" fill="white"/>
<path d="M248.696 274.358C248.696 274.358 260.319 273.102 267.308 278.471C276.681 285.672 284.229 291.231 294.194 273.532C305.11 254.142 306.825 247.369 314.789 247.289C325.01 247.187 329.001 275.149 347.848 277.125C366.694 279.101 379.509 275.939 379.509 275.939" fill="white"/>
<path d="M248.696 274.358C248.696 274.358 260.319 273.102 267.308 278.471C276.681 285.672 284.229 291.231 294.194 273.532C305.11 254.142 306.825 247.369 314.789 247.289C325.01 247.187 329.001 275.149 347.848 277.125C366.694 279.101 379.509 275.939 379.509 275.939" stroke="#005896" stroke-width="9" stroke-miterlimit="10" stroke-linecap="round"/>
<path d="M248.696 218.552H275.779H248.696Z" fill="#005896"/>
<path d="M248.696 218.552H275.779" stroke="#005896" stroke-width="14.4" stroke-miterlimit="10" stroke-linecap="round"/>
<path d="M248.696 231.524H304.665" stroke="#489BC2" stroke-width="14.4" stroke-miterlimit="10" stroke-linecap="round"/>
<path d="M109.18 64.9125C111.552 64.9125 113.475 62.9387 113.475 60.5044C113.475 58.0696 111.552 56.0957 109.18 56.0957C106.808 56.0957 104.885 58.0696 104.885 60.5044C104.885 62.9387 106.808 64.9125 109.18 64.9125Z" fill="white"/>
<path d="M123.737 64.9125C126.109 64.9125 128.032 62.9387 128.032 60.5044C128.032 58.0696 126.109 56.0957 123.737 56.0957C121.364 56.0957 119.441 58.0696 119.441 60.5044C119.441 62.9387 121.364 64.9125 123.737 64.9125Z" fill="white"/>
<path d="M137.878 64.9125C140.25 64.9125 142.173 62.9387 142.173 60.5044C142.173 58.0696 140.25 56.0957 137.878 56.0957C135.505 56.0957 133.582 58.0696 133.582 60.5044C133.582 62.9387 135.505 64.9125 137.878 64.9125Z" fill="white"/>
<path d="M363.869 155.822C373.468 155.822 381.249 147.836 381.249 137.985C381.249 128.133 373.468 120.147 363.869 120.147C354.27 120.147 346.488 128.133 346.488 137.985C346.488 147.836 354.27 155.822 363.869 155.822Z" fill="#005896"/>
<path d="M365.241 129.557C365.241 128.779 364.627 128.148 363.869 128.148C363.111 128.148 362.497 128.779 362.497 129.557V147.544C362.497 148.321 363.111 148.952 363.869 148.952C364.627 148.952 365.241 148.321 365.241 147.544V129.557Z" fill="white"/>
<path d="M372.632 139.958C373.39 139.958 374.004 139.327 374.004 138.55C374.004 137.772 373.39 137.142 372.632 137.142H355.106C354.348 137.142 353.734 137.772 353.734 138.55C353.734 139.327 354.348 139.958 355.106 139.958H372.632Z" fill="white"/>
<path d="M273.565 412.316C424.406 412.316 546.684 409.11 546.684 405.155C546.684 401.2 424.406 397.994 273.565 397.994C122.728 397.994 0.449219 401.2 0.449219 405.155C0.449219 409.11 122.728 412.316 273.565 412.316Z" fill="#E7E7E7"/>
<path d="M513.096 264.512H321.996V403.063H513.096V264.512Z" fill="#195E7E"/>
<path d="M398.338 264.512H321.996V403.063H398.338V264.512Z" fill="#489BC2"/>
<path d="M47.2455 350.988L39.4031 402.676L36.4174 402.199C35.4098 402.038 34.5059 401.472 33.9044 400.627C33.3028 399.782 33.0529 398.727 33.2099 397.693L39.8692 353.803C40.0262 352.769 40.577 351.841 41.4003 351.224C42.2236 350.606 43.2522 350.35 44.2598 350.511L47.2455 350.988Z" fill="#064E3B"/>
<path d="M71.7562 359.686L59.494 355.921L55.5957 373.454L69.0112 377.777L71.7562 359.686Z" fill="#BC775C"/>
<path d="M63.3179 375.943L61.0508 375.213L66.6204 358.109L68.6909 358.745L63.3179 375.943Z" fill="#93523E"/>
<path d="M61.0484 356.17C61.0484 356.17 56.2442 364.738 58.8916 374.518L42.3867 402.21C40.9521 403.286 38.7722 402.648 37.5609 401.987C37.296 401.84 37.082 401.613 36.949 401.335C36.8156 401.059 36.7694 400.746 36.8171 400.441L43.9363 353.523C44.0543 352.739 44.4675 352.035 45.086 351.562C45.705 351.087 46.4801 350.882 47.2454 350.988C50.3066 351.415 54.9656 352.103 56.798 352.586C59.6303 353.332 61.1239 354.389 61.0484 356.17Z" fill="#047857"/>
<path d="M55.5999 380.399L53.1767 376.433C53.0879 376.288 52.9663 376.167 52.8215 376.082C52.6773 375.997 52.5146 375.95 52.3483 375.944C52.1815 375.939 52.0162 375.975 51.8668 376.051C51.7175 376.126 51.5881 376.238 51.4906 376.377C51.3715 376.547 51.3048 376.75 51.2991 376.959C51.294 377.169 51.3505 377.375 51.4608 377.552L54.4861 382.371L55.5999 380.399Z" fill="white"/>
<path d="M52.8533 384.648L50.4537 380.691C50.3649 380.546 50.2433 380.425 50.099 380.341C49.9543 380.255 49.7916 380.208 49.6253 380.203C49.4585 380.197 49.2932 380.234 49.1438 380.309C48.9945 380.384 48.8651 380.497 48.7681 380.635C48.6485 380.805 48.5818 381.008 48.5767 381.218C48.571 381.427 48.6275 381.634 48.7378 381.81L51.6994 386.585L52.8533 384.648Z" fill="white"/>
<path d="M50.0062 389.425L47.6508 385.496C47.5625 385.351 47.4403 385.231 47.2961 385.146C47.1513 385.06 46.9886 385.013 46.8223 385.008C46.656 385.002 46.4908 385.039 46.3409 385.114C46.1915 385.189 46.0627 385.301 45.9652 385.44C45.8456 385.61 45.7788 385.814 45.7737 386.023C45.7681 386.232 45.8245 386.439 45.9354 386.615L48.8826 391.311L50.0062 389.425Z" fill="white"/>
<path d="M182.051 396.017H233.02V399.118C233.02 399.636 232.92 400.149 232.727 400.628C232.534 401.106 232.251 401.542 231.894 401.908C231.537 402.274 231.113 402.565 230.646 402.763C230.18 402.962 229.68 403.063 229.175 403.063H185.895C184.876 403.063 183.898 402.648 183.177 401.908C182.456 401.168 182.051 400.165 182.051 399.118V396.017Z" fill="#064E3B"/>
<path d="M186.655 369.821L184.917 382.835L202.398 384.091L204.495 369.821H186.655Z" fill="#BC775C"/>
<path d="M204.314 371.055L203.867 374.1L185.916 375.362L186.491 371.055H204.314Z" fill="#93523E"/>
<path d="M184.916 381.221C184.916 381.221 193.904 384.775 202.912 380.586L232.113 393.062C233.37 394.351 233.091 396.66 232.64 397.99C232.54 398.282 232.354 398.534 232.108 398.712C231.861 398.889 231.568 398.984 231.266 398.982H185C184.228 398.983 183.487 398.673 182.935 398.118C182.384 397.563 182.067 396.809 182.051 396.017C181.991 392.846 181.937 388.016 182.12 386.083C182.402 383.096 183.19 381.419 184.916 381.221Z" fill="#047857"/>
<path d="M209.082 383.018L205.636 386.086C205.51 386.197 205.413 386.339 205.354 386.499C205.294 386.659 205.273 386.831 205.294 387.001C205.314 387.17 205.374 387.332 205.47 387.472C205.566 387.612 205.694 387.726 205.842 387.803C206.024 387.898 206.23 387.935 206.433 387.908C206.635 387.881 206.825 387.792 206.978 387.653L211.152 383.844L209.082 383.018Z" fill="white"/>
<path d="M213.596 385.149L210.155 388.192C210.029 388.304 209.932 388.446 209.872 388.606C209.812 388.765 209.792 388.937 209.812 389.107C209.832 389.277 209.893 389.439 209.989 389.579C210.084 389.719 210.212 389.832 210.361 389.91C210.543 390.005 210.748 390.041 210.951 390.014C211.153 389.987 211.344 389.899 211.496 389.759L215.637 386.022L213.596 385.149Z" fill="white"/>
<path d="M218.633 387.302L215.212 390.295C215.087 390.407 214.99 390.549 214.93 390.709C214.87 390.869 214.849 391.041 214.87 391.211C214.89 391.38 214.951 391.542 215.047 391.683C215.142 391.822 215.27 391.936 215.418 392.013C215.6 392.108 215.806 392.144 216.009 392.118C216.211 392.091 216.401 392.002 216.554 391.863L220.621 388.151L218.633 387.302Z" fill="white"/>
<path d="M156.634 199.26L167.197 177.915C167.197 177.915 160.766 178.777 159.646 174.681C158.525 170.584 190.037 166.919 190.037 166.919C190.037 166.919 187.516 175.975 183.734 177.053L173.335 208.316L156.634 199.26Z" fill="#BC775C"/>
<path d="M158.208 196.081L174.708 204.193L173.336 208.316L157.302 197.913L158.208 196.081Z" fill="#93523E"/>
<path d="M258.811 85.0263L106.924 110.545C104.318 110.983 102.551 113.506 102.978 116.181L112.896 178.362C113.322 181.036 115.781 182.85 118.387 182.412L270.274 156.893C272.881 156.455 274.647 153.932 274.221 151.257L264.303 89.0762C263.876 86.4017 261.418 84.588 258.811 85.0263Z" fill="#005896"/>
<path d="M181.194 124.014L242.923 113.643" stroke="white" stroke-width="14.8687" stroke-miterlimit="10" stroke-linecap="round"/>
<path opacity="0.7" d="M185.58 143.251L225.847 136.485" stroke="white" stroke-width="14.8687" stroke-miterlimit="10" stroke-linecap="round"/>
<path d="M144.296 166.442C156.353 166.442 166.128 156.41 166.128 144.036C166.128 131.661 156.353 121.63 144.296 121.63C132.239 121.63 122.465 131.661 122.465 144.036C122.465 156.41 132.239 166.442 144.296 166.442Z" stroke="#EF6A77" stroke-width="14.8687" stroke-miterlimit="10"/>
<path d="M165.841 140.416C166.538 144.79 165.957 149.277 164.17 153.311C162.382 157.345 159.47 160.745 155.8 163.08C152.13 165.415 147.867 166.58 143.552 166.43C139.237 166.278 135.062 164.818 131.556 162.231C128.049 159.645 125.369 156.05 123.854 151.9C122.338 147.751 122.056 143.233 123.042 138.919C124.028 134.604 126.239 130.687 129.394 127.662C132.55 124.637 136.508 122.641 140.769 121.925" stroke="white" stroke-width="14.8687" stroke-miterlimit="10" stroke-linecap="round"/>
<path d="M151.41 311.819L157.71 385.008C157.71 400.696 142.114 402.481 137.12 400.632C130.078 398.024 61.8652 380.202 61.8652 380.202L69.0942 357.478L121.447 364.947C121.447 364.947 120.016 349.699 105.977 303.139L151.41 311.819Z" fill="#005896"/>
<path d="M110.282 319.004L152.732 331.237L150.345 301.848L105.604 302.877L110.282 319.004Z" fill="#005896"/>
<path d="M150.793 151.468C150.793 151.468 159.2 161.262 161.699 165.226C164.199 169.19 164.288 176.965 159.062 178.946C153.837 180.929 149.563 181.261 141.933 179.799C135.997 178.661 128.301 168.607 130.573 163.477C132.845 158.347 143.409 149.02 150.793 151.468Z" fill="#BC775C"/>
<path d="M152.384 178.866L151.134 195.422L132.845 191.342L141.024 175.719L152.384 178.866Z" fill="#BC775C"/>
<path d="M152.385 180.59H147.412L151.666 188.385" fill="#93523E"/>
<path d="M130.801 190.292L133.528 187.58C133.882 187.227 134.317 186.972 134.793 186.839C135.268 186.704 135.768 186.695 136.248 186.812L151.204 190.447C151.564 190.534 151.895 190.716 152.167 190.974C152.438 191.233 152.639 191.559 152.751 191.921L153.832 195.422L130.801 190.292Z" fill="#2D7CA0"/>
<path d="M107.113 273.998L104.436 287.309C101.422 307.616 115.607 321.048 137.288 317.387C156.649 314.118 214.003 291.296 214.003 291.296L211.717 255.177L163.501 263.341C163.501 263.341 120.163 255.1 107.113 273.998Z" fill="#005896"/>
<path d="M215.308 286.763C223.922 286.763 230.905 279.597 230.905 270.756C230.905 261.915 223.922 254.748 215.308 254.748C206.694 254.748 199.711 261.915 199.711 270.756C199.711 279.597 206.694 286.763 215.308 286.763Z" fill="#489BC2"/>
<path d="M215.308 286.763C223.922 286.763 230.905 279.597 230.905 270.756C230.905 261.915 223.922 254.748 215.308 254.748C206.694 254.748 199.711 261.915 199.711 270.756C199.711 279.597 206.694 286.763 215.308 286.763Z" fill="#005896"/>
<path d="M142.114 401.475C150.728 401.475 157.711 394.308 157.711 385.467C157.711 376.626 150.728 369.459 142.114 369.459C133.5 369.459 126.517 376.626 126.517 385.467C126.517 394.308 133.5 401.475 142.114 401.475Z" fill="#005896"/>
<path d="M230.144 275.381L208.218 371.053H181.994L199.711 270.755L230.144 275.381Z" fill="#005896"/>
<path d="M163.129 263.08L105.379 281.526L106.741 273.736L163.129 263.08Z" fill="#005896"/>
<path d="M176.461 209.296L182.199 213.58L201.36 181.303C201.36 181.303 198.809 170.731 198.633 168.931L204.867 168.019C204.867 168.019 209.916 158.251 211.356 156.319C212.795 154.387 214.456 154.728 215.342 156.319C215.342 156.319 218.11 156.774 218.553 160.638C218.553 160.638 220.989 161.206 221.986 166.206C221.986 166.206 224.09 168.479 223.647 170.979C223.204 173.479 217.667 183.277 216.781 184.288C216.099 185.112 215.471 185.98 214.899 186.889L196.445 232.273C196.445 232.273 191.936 242.2 181.369 238.435L168.268 232.203C162.254 228.204 176.461 209.296 176.461 209.296Z" fill="#BC775C"/>
<path d="M186.118 239.608C192.209 239.608 197.147 234.539 197.147 228.288C197.147 222.036 192.209 216.968 186.118 216.968C180.026 216.968 175.088 222.036 175.088 228.288C175.088 234.539 180.026 239.608 186.118 239.608Z" fill="#BC775C"/>
<path d="M139.889 159.628C139.889 159.628 150.681 155.898 152.839 148.086C154.998 140.274 150.454 136.194 144.547 140.158C144.547 140.158 140.344 133.279 133.186 138.059C126.03 142.84 127.393 154.149 127.62 156.364C127.62 156.364 119.555 162.193 123.417 171.404C127.28 180.614 137.878 182.83 137.878 182.83C139.048 181.104 139.885 179.165 140.344 177.117C140.344 177.117 134.503 172.57 137.878 168.14C141.252 163.709 145.115 170.821 145.115 170.821C145.115 170.821 148.068 160.794 139.889 159.628Z" fill="black"/>
<path d="M130.801 190.292C130.801 190.292 123.309 194.116 121.612 198.233C120.043 202.037 109.135 252.007 105.795 272.123C105.714 272.6 105.75 273.09 105.898 273.549C106.046 274.009 106.302 274.424 106.643 274.759C106.984 275.093 107.4 275.337 107.854 275.467C108.308 275.598 108.786 275.613 109.247 275.509L163.502 263.341C163.502 263.341 160.848 234.075 161.778 225.487C162.708 216.898 153.832 195.422 153.832 195.422L130.801 190.292Z" fill="#2D7CA0"/>
<path d="M161.587 229.536L147.908 221.193L162.141 245.223L161.587 229.536Z" fill="#68BDE4"/>
<path d="M182.198 213.579L186.181 216.428L190.036 200.375L182.198 213.579Z" fill="#93523E"/>
<path d="M153.832 195.422C153.832 195.422 175.603 207.636 178.247 209.639C178.589 209.899 178.83 210.276 178.926 210.701C179.022 211.127 178.967 211.574 178.77 211.962L168.77 231.665C168.659 231.887 168.503 232.082 168.315 232.24C168.126 232.397 167.909 232.514 167.675 232.582C167.441 232.65 167.196 232.669 166.955 232.637C166.714 232.605 166.482 232.522 166.273 232.394L140.897 216.917C140.897 216.917 139.547 196.316 153.832 195.422Z" fill="#2D7CA0"/>
<path d="M151.054 166.16C151.575 165.76 151.516 164.773 150.922 163.956C150.327 163.139 149.422 162.8 148.901 163.2C148.379 163.6 148.438 164.587 149.033 165.404C149.627 166.221 150.532 166.56 151.054 166.16Z" fill="#080B09"/>
<path d="M158.209 160.603C158.731 160.203 158.672 159.217 158.077 158.4C157.482 157.582 156.577 157.244 156.056 157.644C155.534 158.043 155.593 159.03 156.188 159.847C156.782 160.664 157.687 161.003 158.209 160.603Z" fill="#080B09"/>
<path d="M155.312 162.125C155.312 162.125 155.188 164.542 156.631 163.905C157.989 163.249 159.149 163.701 158.298 165.535" stroke="#93523E" stroke-width="1.08789" stroke-linecap="round" stroke-linejoin="round"/>
<path d="M158.776 167.26C157.956 167.718 156.317 168.632 155.236 169.259C155.171 169.297 155.116 169.351 155.079 169.417C155.042 169.484 155.023 169.56 155.026 169.636C155.027 169.713 155.05 169.787 155.09 169.852C155.13 169.916 155.187 169.968 155.253 170.002C156.77 170.674 160.018 171.653 159.337 167.574C159.336 167.507 159.318 167.441 159.285 167.384C159.251 167.327 159.203 167.28 159.146 167.248C159.089 167.216 159.024 167.2 158.959 167.202C158.894 167.204 158.831 167.224 158.776 167.26Z" fill="white"/>
<path d="M144.902 163.743L145.054 163.87C145.26 164.076 145.537 164.19 145.824 164.186C146.11 164.183 146.385 164.064 146.586 163.854L149.958 160.154C150.129 159.982 150.23 159.751 150.242 159.506C150.254 159.26 150.176 159.02 150.023 158.831C149.934 158.711 149.822 158.611 149.694 158.539C149.565 158.467 149.423 158.423 149.277 158.411C149.131 158.4 148.984 158.42 148.846 158.47C148.708 158.521 148.582 158.601 148.477 158.706L144.952 162.278C144.853 162.369 144.773 162.481 144.717 162.604C144.66 162.728 144.629 162.863 144.624 163C144.619 163.136 144.642 163.272 144.69 163.4C144.737 163.528 144.809 163.644 144.902 163.743Z" fill="#080B09"/>
<path d="M157.157 153.245L152.519 155.031C152.383 155.085 152.259 155.169 152.157 155.276C152.054 155.384 151.974 155.512 151.923 155.653C151.873 155.794 151.852 155.945 151.862 156.095C151.872 156.245 151.913 156.391 151.983 156.524C152.085 156.745 152.265 156.919 152.487 157.011C152.709 157.102 152.956 157.105 153.18 157.019L157.866 155.428C158.136 155.328 158.357 155.123 158.48 154.856C158.603 154.59 158.619 154.285 158.523 154.007L158.474 153.812C158.426 153.684 158.353 153.568 158.26 153.47C158.167 153.372 158.056 153.294 157.933 153.242C157.81 153.188 157.678 153.162 157.544 153.162C157.411 153.163 157.28 153.191 157.157 153.245Z" fill="#080B09"/>
<path d="M513.095 71.9775L473.008 103.973H550.585L513.095 71.9775Z" fill="#FFCA8C"/>
<path d="M386.173 236.298C386.173 236.298 371.473 223.128 359.521 234.32C347.569 245.511 298.188 322.366 298.188 322.366L313.124 332.967L369.138 268.316L378.888 284.423L386.173 236.298Z" fill="#FCBA9F"/>
<path fill-rule="evenodd" clip-rule="evenodd" d="M376.171 383.355C382.328 378.737 388.675 373.977 395.359 372.439C395.509 372.404 395.665 372.403 395.816 372.436C395.967 372.468 396.109 372.535 396.233 372.63C396.357 372.724 396.459 372.846 396.532 372.985C396.606 373.125 396.649 373.279 396.658 373.437L397.391 386.163C397.405 386.425 397.328 386.684 397.171 386.891C397.015 387.099 396.791 387.242 396.54 387.292L350.757 396.579C347.381 397.264 345.216 395.758 344.178 393.082C344.144 392.99 344.137 392.889 344.157 392.793C344.177 392.697 344.224 392.608 344.292 392.538C344.36 392.468 344.446 392.42 344.54 392.399C344.634 392.378 344.732 392.386 344.822 392.42C350.836 394.688 357.476 394.45 363.321 391.757C367.544 389.825 371.81 386.625 376.171 383.355Z" fill="#005896"/>
<path fill-rule="evenodd" clip-rule="evenodd" d="M390.221 341.662C390.221 341.662 391.088 361.747 391.545 363.791C391.859 364.907 392.253 365.999 392.723 367.056C393.508 368.976 394.382 371.115 394.462 372.67C388.107 374.407 382.052 378.947 376.171 383.357C371.81 386.627 367.545 389.826 363.321 391.758C357.758 394.32 351.464 394.665 345.667 392.725C344.871 389.253 347.181 385.409 353.011 383.678C363.459 380.575 369.169 378.608 372.812 369.639C375.401 363.265 371.065 341.076 371.065 341.076L390.221 341.662Z" fill="#FFCCB3"/>
<path fill-rule="evenodd" clip-rule="evenodd" d="M373.269 366.248C375.323 366.118 383.487 365.567 391.302 364.518C392.821 364.315 394.176 367.242 393.527 369.104C393.103 370.464 392.786 371.857 392.579 373.269C390.029 374.225 387.583 375.45 385.278 376.924C385.751 373.605 383.779 372.136 380.849 372.287C378.535 372.407 373.307 373.916 370.612 374.735C370.464 374.78 370.306 374.78 370.158 374.736C370.01 374.692 369.877 374.605 369.775 374.486C369.673 374.367 369.607 374.22 369.583 374.063C369.56 373.907 369.581 373.747 369.643 373.602L372.578 366.744C372.638 366.603 372.734 366.483 372.856 366.396C372.978 366.308 373.12 366.257 373.269 366.248Z" fill="#68BDE4"/>
<path fill-rule="evenodd" clip-rule="evenodd" d="M351.653 393.909C356.971 394.336 360.189 392.917 360.189 392.917L358.048 381.805L349.727 383.906L351.653 393.909Z" fill="#68BDE4"/>
<path fill-rule="evenodd" clip-rule="evenodd" d="M284.958 343.235C292.563 343.816 300.402 344.416 306.461 347.693C306.598 347.767 306.718 347.87 306.812 347.995C306.906 348.121 306.973 348.265 307.007 348.42C307.041 348.575 307.042 348.735 307.01 348.89C306.978 349.045 306.913 349.191 306.821 349.317L299.338 359.493C299.184 359.703 298.961 359.848 298.711 359.902C298.461 359.956 298.2 359.915 297.977 359.787L257.255 336.391C254.252 334.665 253.556 332.077 254.456 329.35C254.488 329.257 254.546 329.176 254.622 329.116C254.699 329.056 254.79 329.019 254.886 329.011C254.982 329.004 255.078 329.024 255.163 329.071C255.248 329.117 255.317 329.188 255.364 329.275C258.51 335.003 263.715 339.241 269.866 341.08C274.303 342.42 279.571 342.823 284.958 343.235Z" fill="#005896"/>
<path fill-rule="evenodd" clip-rule="evenodd" d="M321.995 320.844L309.023 338.571C308.557 339.631 308.167 340.724 307.857 341.842C307.242 343.826 306.555 346.036 305.635 347.273C299.698 344.366 292.221 343.794 284.958 343.237C279.571 342.824 274.304 342.421 269.867 341.081C264.013 339.33 259.004 335.404 255.816 330.069C257.403 326.897 261.591 325.508 267.123 328.069C277.038 332.66 282.627 334.962 291.067 330.558C292.427 329.736 293.646 328.69 294.675 327.462L307.782 307.65L321.995 320.844Z" fill="#FCBA9F"/>
<path fill-rule="evenodd" clip-rule="evenodd" d="M293.558 328.28C295.204 329.548 301.767 334.56 308.379 338.962C309.664 339.818 308.846 342.949 307.176 343.935C305.994 344.688 304.873 345.537 303.823 346.475C301.278 345.506 298.641 344.811 295.956 344.399C298.412 342.187 297.84 339.756 295.513 337.922C293.676 336.473 288.743 334.142 286.173 332.972C286.032 332.908 285.912 332.803 285.827 332.671C285.742 332.539 285.696 332.384 285.693 332.226C285.691 332.067 285.733 331.911 285.815 331.777C285.896 331.642 286.013 331.534 286.152 331.465L292.719 328.197C292.853 328.13 293.002 328.103 293.15 328.117C293.298 328.132 293.439 328.188 293.558 328.28Z" fill="#68BDE4"/>
<path fill-rule="evenodd" clip-rule="evenodd" d="M259.624 334.952C263.403 338.817 266.749 339.877 266.749 339.877L272.14 329.992L264.477 326.055L259.624 334.952Z" fill="#68BDE4"/>
<path d="M406.331 226.742L367.57 233.81L375.2 265.299H400.028C400.028 265.299 411.83 239.264 406.331 226.742Z" fill="#FFCCB3"/>
<path d="M372.539 264.992C381.153 264.992 388.136 257.825 388.136 248.984C388.136 240.144 381.153 232.977 372.539 232.977C363.925 232.977 356.941 240.144 356.941 248.984C356.941 257.825 363.925 264.992 372.539 264.992Z" fill="#FFCCB3"/>
<path d="M357.135 251.506L372.742 351.802L390.744 352.573L388.642 253.43L357.135 251.506Z" fill="#FFCCB3"/>
<path d="M381.585 229.5C381.585 229.5 387.558 231.388 390.024 241.388C392.49 251.387 389.799 265.299 389.799 265.299H393.641C393.641 265.299 407.337 248.791 397.26 227.753L381.585 229.5Z" fill="#FF967C"/>
<path d="M419.272 143.732L414.393 146.135C412.523 147.056 410.873 148.39 409.563 150.041C408.253 151.692 407.313 153.62 406.813 155.686L395.784 201.23L370.92 213.432L376.589 222.672L423.6 220.961L419.272 143.732Z" fill="#005896"/>
<path d="M412.246 160.127C412.246 160.127 403.685 172.471 407.828 184.228C411.97 195.986 410.279 198.165 409.243 208.582C408.207 218.997 411.59 216.575 411.59 216.575L423.599 210.761C423.599 210.761 428.609 161.492 412.246 160.127Z" fill="#005896"/>
<path d="M462.615 216.819C462.615 216.819 467.363 240.66 461.142 250.622C453.268 263.233 443.639 265.164 436.52 265.299H389.8C389.8 265.299 389.714 235.385 366.697 230.274C366.697 230.274 442.448 208.621 462.615 216.819Z" fill="#2A0F0F"/>
<path d="M463.66 223.762L414.146 225.435L414.673 221.886L424.323 220.741H463.588L463.66 223.762Z" fill="black"/>
<path d="M399.623 212.592C399.623 212.592 393.566 214.399 390.845 215.22C388.124 216.041 382.744 218.013 382.744 218.013L386.683 223.762L404.536 222.672L399.623 212.592Z" fill="#FFCCB3"/>
<path d="M428.974 139.481C428.974 139.481 418.809 143.61 417.256 144.884C415.704 146.159 414.23 156.561 411.59 161.5C408.952 166.439 405.091 175.555 410.73 183.928C416.368 192.302 415.769 198.951 415.769 198.951L414.569 219.956L461.608 221.425C462.034 221.439 462.46 221.359 462.855 221.191C463.251 221.024 463.61 220.772 463.903 220.452C464.195 220.132 464.421 219.752 464.56 219.337C464.698 218.922 464.749 218.481 464.714 218.043C464.175 211.919 463.266 202.769 463.071 193.018C462.809 179.802 462.614 135.642 462.614 135.642L441.442 134.96C437.181 135.714 428.974 139.481 428.974 139.481Z" fill="#005896"/>
<path d="M462.614 159.087C468.922 159.087 474.034 153.838 474.034 147.364C474.034 140.89 468.922 135.641 462.614 135.641C456.305 135.641 451.193 140.89 451.193 147.364C451.193 153.838 456.305 159.087 462.614 159.087Z" fill="#005896"/>
<path d="M463.781 212.937C463.781 212.937 462.806 216.602 452.361 220.886C452.361 220.886 427.873 220.339 415.706 220.602C403.54 220.864 417.011 217.57 423.802 214.095C430.593 210.62 463.012 200.968 463.012 200.968L463.781 212.937Z" fill="#005896"/>
<path d="M453.911 153.432C453.911 153.432 446.828 160.059 446.412 164.976C445.991 169.893 445.031 183.603 435.931 184.97C424.772 186.647 421.852 188.279 427.026 189.561C432.194 190.844 443.933 188.765 443.933 194.264C443.933 198.177 448.491 201.105 450.785 198.968C453.074 196.83 471.327 164.335 453.911 153.432Z" fill="#005896"/>
<path d="M473.912 149.079C472.952 153.783 463.815 203.344 463.815 203.344C463.815 203.344 462.614 210.758 455.557 212.591L406.331 225.434L397.67 212.1L442.314 196.43L451.194 147.364C451.194 147.364 475.195 142.804 473.912 149.079Z" fill="#005896"/>
<path d="M427.83 130.353L428.297 146.617C428.297 146.617 428.174 149.422 431.49 149.044C434.811 148.666 441.488 146.119 443.331 142.84C445.174 139.56 444.009 138.436 444.009 138.436L433.882 118.175L427.83 130.353Z" fill="#FFCCB3"/>
<path d="M427.83 132.243L431.977 127.197L428.184 142.722L427.83 132.243Z" fill="#FF967C"/>
<path d="M431.525 90.2653C431.345 87.1625 432.002 84.0687 433.429 81.3257C435.79 76.9492 440.687 70.8964 448.13 73.504C455.567 76.1111 461.013 81.9779 458.2 90.2653C455.387 98.5532 447.575 101.205 443.592 100.322C439.609 99.4393 431.525 90.2653 431.525 90.2653Z" fill="#080B09"/>
<path d="M429.128 91.4173C429.559 90.6756 430.196 90.0883 430.965 89.7353C431.73 89.3824 432.582 89.2812 433.409 89.4461C436.355 90.0024 439.45 92.3882 442.088 95.2502C444.721 98.1128 444.634 100.19 443.438 101.457C442.242 102.725 429.128 91.4173 429.128 91.4173Z" fill="#870000"/>
<path d="M363.869 174.396L382.744 228.065H420.695C420.695 226.426 420.059 224.854 418.931 223.695C417.803 222.536 416.271 221.885 414.674 221.885H387.219L370.92 174.396H363.869Z" fill="white"/>
<path d="M363.869 174.396H312.951L332.643 228.065H382.745L363.869 174.396Z" fill="#005896"/>
<path d="M347.848 207.565C350.384 207.565 352.439 205.455 352.439 202.852C352.439 200.25 350.384 198.14 347.848 198.14C345.312 198.14 343.256 200.25 343.256 202.852C343.256 205.455 345.312 207.565 347.848 207.565Z" fill="white"/>
<path d="M407.219 110.355C407.219 110.355 408.789 125.921 416.169 133.009C420.982 137.631 425.396 136.448 431.977 127.197C438.008 118.714 438.536 114.59 438.536 114.59L432.161 99.8649C432.161 99.8649 406.469 96.1121 407.219 110.355Z" fill="#FFCCB3"/>
<path d="M409.831 107.307C409.831 107.307 413.462 113.239 420.11 113.335C421.506 114.505 423.164 115.287 424.935 115.607C426.711 115.927 428.533 115.774 430.227 115.161C430.227 115.161 427.578 111.033 430.227 109.586C434.733 107.129 436.283 115.321 433.881 118.174C432.249 120.113 433.974 122.371 435.19 124.39C436.412 126.409 440.343 131.408 440.343 131.408C440.343 131.408 439.969 128.523 441.75 126.409C443.531 124.294 449.3 102.642 438.578 94.6769C427.855 86.7125 416.567 93.0839 414.451 94.6769C414.451 94.6769 403.183 96.6966 403.163 108.724C403.146 119.006 410.276 121.451 410.276 121.451L408.148 113.152C408.148 113.152 409.464 113.297 409.831 107.307Z" fill="#080B09"/>
<path d="M421.814 126.481C421.814 126.481 422.645 129.15 419.822 130.389C417.914 131.033 416.582 129.116 416.582 129.116L421.814 126.481Z" fill="#E56441"/>
<path d="M411.929 122.569C412.516 122.42 412.819 121.579 412.605 120.691C412.391 119.803 411.742 119.204 411.155 119.353C410.568 119.502 410.265 120.342 410.479 121.23C410.692 122.118 411.341 122.717 411.929 122.569Z" fill="#080B09"/>
<path d="M420.634 120.499C421.219 120.35 421.522 119.51 421.311 118.622C421.096 117.734 420.449 117.134 419.859 117.283C419.273 117.432 418.97 118.273 419.184 119.16C419.397 120.049 420.049 120.648 420.634 120.499Z" fill="#080B09"/>
<path d="M408.551 117.78L412.981 116.737C413.055 116.712 413.117 116.661 413.158 116.593C413.198 116.525 413.212 116.445 413.199 116.366C413.15 116.233 413.074 116.11 412.978 116.008C412.881 115.904 412.766 115.822 412.638 115.766C412.509 115.711 412.372 115.682 412.232 115.683C412.093 115.683 411.955 115.712 411.827 115.768L408.353 117.279C408.064 117.352 408.189 117.872 408.551 117.78Z" fill="#080B09"/>
<path d="M423.425 113.711L417.655 115.566C417.617 115.381 417.616 115.19 417.654 115.005C417.692 114.82 417.767 114.645 417.875 114.492C417.982 114.339 418.12 114.21 418.279 114.114C418.438 114.019 418.615 113.959 418.798 113.938L423.41 113.321C423.553 113.285 423.64 113.655 423.425 113.711Z" fill="#080B09"/>
<path d="M415.035 119.6L414.409 124.394L416.059 125.211" stroke="#E56441" stroke-width="0.851994" stroke-linecap="round"/>
<path d="M513.095 71.9769V0" stroke="#489BC2" stroke-width="0.9" stroke-miterlimit="10"/>
<path d="M487.499 344.186C487.499 344.186 482.832 335.169 494.529 329.485C506.226 323.802 522.467 329.431 521.013 331.398C518.746 334.601 516.17 337.619 513.316 340.415C509.619 344.076 499.014 349.76 487.499 344.186Z" fill="#2D7CA0"/>
<path d="M518.952 331.016C518.952 331.016 493.256 325.825 487.438 344.186C481.62 362.548 483.438 380.144 483.438 380.144" stroke="#22272E" stroke-width="1.62" stroke-linecap="round" stroke-linejoin="round"/>
<path d="M464.348 364.843L468.53 409.271C468.53 410.965 476.166 412.277 485.62 412.277C495.075 412.277 502.711 410.911 502.711 409.271L506.892 364.843H464.348Z" fill="#22272E"/>
<path d="M485.62 367.739C497.334 367.739 506.831 366.442 506.831 364.843C506.831 363.243 497.334 361.946 485.62 361.946C473.905 361.946 464.408 363.243 464.408 364.843C464.408 366.442 473.905 367.739 485.62 367.739Z" fill="#2D7CA0"/>
<path d="M480.226 355.607C480.226 355.607 473.378 352.547 468.954 359.433C464.53 366.318 467.803 376.701 470.833 378.232C473.863 379.762 486.469 374.57 486.469 364.132C486.469 354.842 480.226 355.607 480.226 355.607Z" fill="#2D7CA0"/>
<path d="M480.227 355.607C480.227 355.607 473.379 355.17 471.318 376.81" stroke="#22272E" stroke-width="1.62" stroke-linecap="round" stroke-linejoin="round"/>
<path d="M475.015 342.983C475.015 342.983 467.803 332.873 453.379 339.377C438.955 345.88 439.379 363.804 441.622 364.842C443.864 365.881 477.62 355.279 475.015 342.983Z" fill="#2D7CA0"/>
<path d="M486.469 364.133C486.469 364.133 481.984 349.924 475.015 342.929C468.045 335.934 446.41 343.968 442.592 360.854" stroke="#22272E" stroke-width="1.62" stroke-linecap="round" stroke-linejoin="round"/>
<path d="M494.528 348.667C494.528 348.667 488.407 346.754 485.62 353.585C482.892 360.252 486.104 375.444 501.861 380.034C502.268 380.148 502.703 380.151 503.113 380.045C503.522 379.938 503.888 379.725 504.164 379.433C508.107 375.132 510.232 369.711 510.164 364.132C510.104 353.038 503.316 345.005 494.528 348.667Z" fill="#2D7CA0"/>
<path d="M494.529 348.666C494.529 348.666 507.256 354.295 502.59 377.957" stroke="#22272E" stroke-width="1.62" stroke-linecap="round" stroke-linejoin="round"/>
<path d="M499.931 387.897L502.004 417.47C502.004 419.601 509.173 421.199 517.984 421.199C526.794 421.199 533.964 419.468 533.964 417.47L536.037 387.897H499.931Z" fill="#22272E"/>
<path d="M536.037 387.897C536.037 390.295 527.917 392.16 517.984 392.16C508.05 392.16 499.931 390.295 499.931 387.897C499.931 385.5 508.05 383.635 517.984 383.635C527.917 383.635 536.037 385.633 536.037 387.897Z" fill="#FFE779"/>
<path d="M513.146 387.898C513.146 387.898 503.472 382.036 504.508 370.58C505.545 359.124 512.714 382.836 514.528 379.239C516.342 375.642 514.01 358.192 517.983 356.593C521.957 354.995 520.92 379.505 520.92 379.505C523.38 377.586 525.601 375.016 527.485 371.912C529.99 367.383 533.618 377.507 523.339 387.898C520.075 389.973 516.411 389.973 513.146 387.898Z" fill="#489BC2"/>
<path d="M518.33 226.812L549.145 217.979C549.49 217.883 549.851 217.862 550.205 217.915C550.56 217.968 550.9 218.095 551.205 218.289C551.51 218.482 551.773 218.737 551.979 219.039C552.185 219.341 552.329 219.682 552.402 220.043L556.206 240.382C556.383 241.236 556.259 242.127 555.854 242.894C555.45 243.661 554.793 244.254 554.001 244.567L523.939 256.96C523.594 257.102 523.223 257.164 522.852 257.143C522.481 257.121 522.12 257.015 521.792 256.834C521.465 256.652 521.181 256.399 520.959 256.091C520.737 255.784 520.584 255.431 520.51 255.056L515.853 231.187C515.736 230.732 515.708 230.257 515.769 229.791C515.831 229.325 515.981 228.876 516.211 228.47C516.441 228.064 516.746 227.708 517.11 227.424C517.474 227.139 517.888 226.932 518.33 226.812Z" stroke="#005896" stroke-width="1.62" stroke-linecap="round" stroke-linejoin="round"/>
<path d="M516.525 228.107L537.25 232.936C537.918 233.075 538.61 233.021 539.248 232.779C539.887 232.537 540.448 232.117 540.868 231.566L551.041 218.213" stroke="#005896" stroke-width="1.62" stroke-linecap="round" stroke-linejoin="round"/>
<path d="M558.589 184.288L582.596 187.293C582.865 187.329 583.123 187.421 583.355 187.564C583.587 187.706 583.789 187.896 583.947 188.122C584.106 188.348 584.217 188.605 584.276 188.876C584.335 189.148 584.339 189.43 584.288 189.703L581.202 205.035C581.084 205.684 580.746 206.269 580.247 206.685C579.748 207.1 579.122 207.318 578.481 207.301L553.994 207.005C553.713 207.001 553.437 206.935 553.184 206.809C552.931 206.683 552.708 206.502 552.531 206.278C552.354 206.053 552.227 205.792 552.159 205.511C552.09 205.231 552.083 204.939 552.137 204.655L555.625 186.604C555.672 186.252 555.786 185.912 555.96 185.605C556.135 185.298 556.366 185.029 556.641 184.814C556.917 184.599 557.23 184.442 557.565 184.351C557.899 184.261 558.247 184.239 558.589 184.288Z" stroke="#005896" stroke-width="1.62" stroke-linecap="round" stroke-linejoin="round"/>
<path d="M556.963 184.654L570.069 194.195C570.496 194.49 570.994 194.658 571.508 194.679C572.022 194.701 572.532 194.574 572.981 194.315L583.854 188.02" stroke="#005896" stroke-width="1.62" stroke-linecap="round" stroke-linejoin="round"/>
<ellipse cx="24.3418" cy="309.189" rx="9.17288" ry="9.41884" fill="#489BC2"/>
<ellipse cx="21.0648" cy="94.1009" rx="5.89685" ry="6.05497" fill="#489BC2"/>
<ellipse cx="66.5499" cy="45.8413" rx="5.89685" ry="6.05497" fill="url(#paint0_linear_165_5413)"/>
<ellipse cx="473.634" cy="34.9429" rx="5.89685" ry="6.05497" fill="#489BC2"/>
<ellipse cx="61.2435" cy="202.298" rx="5.89685" ry="6.05497" fill="#10B981"/>
<ellipse cx="406.326" cy="17.9826" rx="12.1213" ry="12.4463" fill="url(#paint1_linear_165_5413)"/>
<ellipse cx="568.926" cy="129.677" rx="4.91404" ry="5.0458" fill="#10B981"/>
<ellipse cx="564.069" cy="308.391" rx="6.87966" ry="7.06413" fill="url(#paint2_linear_165_5413)"/>
<ellipse cx="503.302" cy="176.717" rx="5.24165" ry="5.38219" fill="#10B981"/>
<defs>
<linearGradient id="paint0_linear_165_5413" x1="66.5499" y1="39.7864" x2="66.5499" y2="51.8963" gradientUnits="userSpaceOnUse">
<stop stop-color="#E05151"/>
<stop offset="1" stop-color="#C60707" stop-opacity="0"/>
</linearGradient>
<linearGradient id="paint1_linear_165_5413" x1="406.326" y1="5.53625" x2="406.326" y2="30.4289" gradientUnits="userSpaceOnUse">
<stop stop-color="#E05151"/>
<stop offset="1" stop-color="#C60707" stop-opacity="0"/>
</linearGradient>
<linearGradient id="paint2_linear_165_5413" x1="564.069" y1="301.327" x2="564.069" y2="315.455" gradientUnits="userSpaceOnUse">
<stop stop-color="#E05151"/>
<stop offset="1" stop-color="#C60707" stop-opacity="0"/>
</linearGradient>
</defs>
</svg>
