<svg width="80" height="86" viewBox="0 0 80 86" fill="none" xmlns="http://www.w3.org/2000/svg">
<g filter="url(#filter0_d_572_22369)">
<path d="M57.4335 50.3064H68.9957V41.3886H57.4335V50.3064Z" fill="#EBEBEB"/>
<path d="M58.2608 49.5282H59.6541V47.9533H58.2608V49.5282Z" fill="white"/>
<path d="M65.4695 41.4116H64.1562V43.3145H65.4695V41.4116Z" fill="#FAFAFA"/>
<path d="M65.4695 48.3771H64.1562V50.28H65.4695V48.3771Z" fill="#FAFAFA"/>
<path d="M60.3207 50.3679C60.3004 50.3679 60.2839 48.4065 60.2839 45.9876C60.2839 43.5679 60.3004 41.6069 60.3207 41.6069C60.3411 41.6069 60.3575 43.5679 60.3575 45.9876C60.3575 48.4065 60.3411 50.3679 60.3207 50.3679Z" fill="#E0E0E0"/>
<path d="M52.7191 65.6637H72.6686V50.277H52.7191V65.6637Z" fill="#EBEBEB"/>
<path d="M54.1446 64.3208H56.5485V61.6034H54.1446V64.3208Z" fill="white"/>
<path d="M66.582 50.3167H64.3159V53.5998H66.582V50.3167Z" fill="#FAFAFA"/>
<path d="M66.582 62.3348H64.3159V65.618H66.582V62.3348Z" fill="#FAFAFA"/>
<path d="M57.6994 65.7695C57.6642 65.7695 57.6357 62.3854 57.6357 58.2118C57.6357 54.0367 57.6642 50.6532 57.6994 50.6532C57.7346 50.6532 57.7629 54.0366 57.7629 58.2118C57.7629 62.3854 57.7345 65.7695 57.6994 65.7695Z" fill="#E0E0E0"/>
<path d="M72.035 18.2737L73.1037 20.439L75.4933 20.7863L73.7641 22.4718L74.1723 24.8518L72.035 23.7281L69.8977 24.8518L70.3059 22.4718L68.5768 20.7863L70.9664 20.439L72.035 18.2737Z" fill="#EBEBEB"/>
<path d="M8.40153 46.2346L9.07513 47.5993L10.581 47.8181L9.49129 48.8804L9.74857 50.3802L8.40153 49.6721L7.05465 50.3802L7.31177 48.8804L6.22217 47.8181L7.72809 47.5993L8.40153 46.2346Z" fill="#EBEBEB"/>
<path d="M9.23698 34.3457L10.7325 37.3761L14.0767 37.862L11.6568 40.2207L12.228 43.5513L9.23698 41.9788L6.24594 43.5513L6.8173 40.2207L4.39746 37.862L7.74146 37.3761L9.23698 34.3457Z" fill="#EBEBEB"/>
<path d="M71.0835 28.0518L71.7281 29.3578L73.1694 29.5673L72.1265 30.5839L72.3728 32.0194L71.0835 31.3417L69.7944 32.0194L70.0406 30.5839L68.9976 29.5673L70.4388 29.3578L71.0835 28.0518Z" fill="#EBEBEB"/>
<path d="M49.9276 6.89087L50.5721 8.19695L52.0135 8.40639L50.9705 9.42319L51.2167 10.8587L49.9276 10.1809L48.6383 10.8587L48.8846 9.42319L47.8417 8.40639L49.283 8.19695L49.9276 6.89087Z" fill="#EBEBEB"/>
<path d="M64.6757 20.8654L65.0976 21.7202L66.041 21.8574L65.3583 22.5228L65.5194 23.4623L64.6757 23.0186L63.8319 23.4623L63.993 22.5228L63.3104 21.8574L64.2538 21.7202L64.6757 20.8654Z" fill="#EBEBEB"/>
<path d="M25.7473 64.0172L26.5691 65.6822L28.4065 65.9492L27.0769 67.2452L27.3909 69.0753L25.7473 68.2113L24.1038 69.0753L24.4177 67.2452L23.0881 65.9492L24.9256 65.6822L25.7473 64.0172Z" fill="#EBEBEB"/>
<path d="M27.9168 62.3622L28.2563 63.0502L29.0155 63.1604L28.4662 63.6959L28.5958 64.4521L27.9168 64.095L27.2378 64.4521L27.3675 63.6959L26.8182 63.1604L27.5773 63.0502L27.9168 62.3622Z" fill="#EBEBEB"/>
<path d="M58.262 55.9873L58.9846 57.4513L60.6001 57.686L59.4311 58.8255L59.7071 60.4347L58.262 59.6748L56.817 60.4347L57.093 58.8255L55.9241 57.686L57.5396 57.4513L58.262 55.9873Z" fill="#0169B8"/>
<path d="M61.7086 54.6898L62.0491 55.3796L62.8103 55.4903L62.2595 56.0273L62.3895 56.7853L61.7086 56.4274L61.0278 56.7853L61.1577 56.0273L60.6068 55.4903L61.3681 55.3796L61.7086 54.6898Z" fill="#0169B8"/>
<path d="M57.1954 16.5856L57.7603 14.8162C57.3205 13.9341 57.1115 12.9237 57.2069 11.8706C57.4808 8.8416 60.1618 6.60864 63.1947 6.88304C66.228 7.15728 68.4647 9.83504 68.1907 12.864C67.9168 15.8928 65.2359 18.1258 62.2027 17.8515C60.9362 17.737 59.8931 17.2784 59.0291 16.4752L57.1954 16.5856Z" fill="#FAFAFA"/>
<path d="M57.1958 16.5856C57.1958 16.5856 57.2384 16.5812 57.3179 16.5753C57.4001 16.5694 57.5174 16.5609 57.6705 16.55C57.9812 16.5288 58.4366 16.4976 59.0284 16.4571L59.0361 16.4566L59.0419 16.4619C59.563 16.943 60.3587 17.4769 61.4348 17.7044C61.7017 17.7617 61.9832 17.8064 62.2766 17.8246C62.4235 17.8302 62.5728 17.8358 62.7246 17.8414C62.8763 17.8403 63.0302 17.8244 63.1867 17.8164C63.8099 17.7585 64.4636 17.5908 65.091 17.2843C65.7179 16.9792 66.3171 16.536 66.818 15.9641C67.3177 15.3932 67.7238 14.695 67.95 13.9128C68.175 13.1318 68.2321 12.2756 68.086 11.4312C68.0608 11.2177 67.9934 11.0121 67.9398 10.8022C67.9164 10.6961 67.8715 10.5966 67.8348 10.494C67.7958 10.3924 67.76 10.2891 67.7179 10.1883C67.5297 9.79405 67.3228 9.39933 67.0414 9.05197C66.9142 8.86861 66.7564 8.71181 66.6083 8.54845C66.5372 8.46365 66.4486 8.39693 66.3688 8.32157C66.286 8.24957 66.2081 8.17197 66.1219 8.10509L65.8588 7.91101L65.7276 7.81453L65.5883 7.73117L65.3107 7.56509C65.2172 7.51197 65.1174 7.47149 65.0216 7.42413C64.2476 7.06109 63.408 6.88477 62.5961 6.90237C61.7838 6.91837 61.0035 7.11645 60.3209 7.44637C59.6369 7.77565 59.0507 8.23405 58.5896 8.75581C58.1272 9.27773 57.7905 9.86189 57.5694 10.4467C57.543 10.5204 57.5168 10.5934 57.4908 10.666C57.4632 10.7382 57.439 10.8105 57.4233 10.8851C57.3867 11.0323 57.3507 11.1772 57.3152 11.3198C57.276 11.6107 57.2225 11.8902 57.2169 12.1638C57.1728 13.2604 57.4619 14.1699 57.7769 14.808L57.7803 14.8147L57.778 14.8216C57.591 15.3916 57.447 15.83 57.3488 16.1292C57.2998 16.2766 57.2624 16.3894 57.2361 16.4684C57.2105 16.5451 57.1958 16.5856 57.1958 16.5856C57.1958 16.5856 57.2056 16.5491 57.2283 16.4739C57.2523 16.3953 57.2867 16.2833 57.3316 16.1371C57.4259 15.8336 57.564 15.3888 57.7435 14.8105L57.7446 14.8241C57.4212 14.1851 57.123 13.2696 57.1617 12.1617C57.1659 11.8854 57.2184 11.6027 57.2569 11.3084C57.2921 11.1643 57.3278 11.0176 57.3643 10.8684C57.3798 10.7931 57.404 10.7196 57.4316 10.6467C57.4577 10.5732 57.484 10.4992 57.5104 10.4244C57.7316 9.83197 58.0704 9.23933 58.5372 8.70925C59.0027 8.17949 59.5956 7.71341 60.2883 7.37805C60.9796 7.04221 61.7708 6.83965 62.595 6.82253C63.4185 6.80365 64.2708 6.98141 65.0568 7.34957C65.154 7.39741 65.2553 7.43853 65.3502 7.49245L65.6323 7.66077L65.7739 7.74541L65.9072 7.84317L66.1744 8.04013C66.2619 8.10797 66.3411 8.18669 66.4251 8.25981C66.506 8.33629 66.596 8.40397 66.6683 8.49005C66.8187 8.65581 66.9787 8.81517 67.108 9.00125C67.3934 9.35405 67.6038 9.75453 67.7944 10.155C67.8371 10.2574 67.8734 10.3624 67.9131 10.4656C67.9504 10.5696 67.9958 10.6707 68.0195 10.7784C68.0739 10.9913 68.1419 11.2003 68.1676 11.4169C68.3153 12.2744 68.2564 13.143 68.027 13.9352C67.7963 14.7286 67.3832 15.4363 66.8753 16.014C66.3662 16.5928 65.7577 17.0403 65.122 17.3475C64.4857 17.656 63.8233 17.8236 63.1926 17.8796C63.0344 17.8872 62.8785 17.9025 62.7252 17.9028C62.5718 17.8964 62.4209 17.89 62.2724 17.8838C61.9763 17.864 61.6926 17.8176 61.4233 17.7584C60.3376 17.523 59.5372 16.9776 59.0177 16.4883L59.031 16.4931C58.4331 16.5243 57.9731 16.5483 57.6592 16.5648C57.5081 16.5721 57.3923 16.5777 57.3112 16.5817C57.2331 16.5851 57.1958 16.5856 57.1958 16.5856Z" fill="#263238"/>
<path d="M59.5697 12.1593L60.4772 11.3735L62.0057 12.9421L65.4324 10.0884L66.1577 10.9914L61.7675 14.5663L59.5697 12.1593Z" fill="#0169B8"/>
<path d="M47.6981 55.919L17.0162 62.7568C16.2714 62.9227 15.5332 62.4536 15.3673 61.7088L5.40983 17.0291C5.24391 16.2843 5.71303 15.5461 6.45783 15.3802L37.1399 8.5424C37.8847 8.37648 38.6229 8.8456 38.7889 9.5904L48.7462 54.2702C48.9122 55.0149 48.4429 55.7531 47.6981 55.919Z" fill="#E0E0E0"/>
<path d="M47.7 55.9191C47.7 55.9191 47.7341 55.9085 47.8018 55.8891C47.8692 55.8691 47.9677 55.8309 48.0893 55.7639C48.2084 55.6931 48.3485 55.5872 48.477 55.4263C48.6031 55.2655 48.717 55.0463 48.7575 54.7784C48.7805 54.6451 48.7778 54.5 48.7541 54.3512C48.729 54.2024 48.688 54.0471 48.6532 53.8834C48.5797 53.5563 48.4996 53.1986 48.4125 52.8111C48.2389 52.0359 48.0386 51.1416 47.813 50.1351C46.9128 46.1072 45.6104 40.2796 44.001 33.0788C43.1973 29.478 42.3168 25.5338 41.3719 21.2997C40.8996 19.1826 40.4109 16.993 39.9077 14.7376C39.6562 13.61 39.401 12.4658 39.1421 11.306C39.012 10.7266 38.8813 10.1432 38.7495 9.55603C38.6797 9.26915 38.5061 9.01123 38.2748 8.82691C38.04 8.64675 37.7463 8.53939 37.4474 8.54051C37.2976 8.53987 37.1522 8.56931 37.0021 8.60467C36.8528 8.63795 36.7034 8.67123 36.5536 8.70467C36.2543 8.77139 35.954 8.83843 35.6527 8.90563C35.0503 9.04003 34.4444 9.17507 33.8348 9.31107C32.6157 9.58291 31.3829 9.85779 30.1368 10.1357C27.6447 10.6914 25.1 11.2588 22.5096 11.8364C17.3287 12.9912 11.9644 14.1869 6.47027 15.4116C6.13395 15.4853 5.83091 15.692 5.64115 15.9778C5.44899 16.2618 5.37251 16.6199 5.43251 16.9562C5.57731 17.6372 5.73427 18.3192 5.88387 18.9973C6.18627 20.3543 6.48659 21.7023 6.78483 23.0404C7.38115 25.7167 7.96867 28.3538 8.54595 30.9448C9.70019 36.1272 10.8136 41.1261 11.8743 45.888C12.9344 50.6501 13.9418 55.1752 14.8847 59.4103C15.0024 59.9397 15.1192 60.4645 15.2351 60.9847C15.2941 61.244 15.348 61.5056 15.4106 61.7597C15.4754 62.0107 15.6175 62.2384 15.8069 62.4109C15.9968 62.584 16.2356 62.6991 16.4858 62.7437C16.6114 62.7647 16.7389 62.7677 16.8648 62.7555C16.9895 62.7391 17.1151 62.7085 17.2405 62.6807C17.7418 62.5691 18.2381 62.4588 18.7296 62.3493C20.6954 61.912 22.582 61.4922 24.3826 61.0917C31.5853 59.4911 37.414 58.1957 41.4426 57.3005C43.4567 56.8544 45.0205 56.508 46.0815 56.273C46.6116 56.1563 47.0159 56.0674 47.2882 56.0074C47.5604 55.9479 47.7 55.9191 47.7 55.9191C47.7 55.9191 47.5613 55.9524 47.29 56.014C47.018 56.0754 46.6141 56.1664 46.0847 56.2859C45.0244 56.5237 43.4613 56.8741 41.4484 57.3255C37.421 58.2256 31.5938 59.5279 24.393 61.1371C22.5927 61.5391 20.7064 61.9602 18.741 62.3989C18.2496 62.5087 17.7533 62.6194 17.2522 62.7312C17.1271 62.7589 17.0023 62.7898 16.8711 62.8072C16.7402 62.82 16.6077 62.817 16.4772 62.7952C16.217 62.749 15.969 62.6296 15.7716 62.45C15.5744 62.2709 15.4268 62.0341 15.3592 61.7733C15.2954 61.5147 15.2421 61.2565 15.1828 60.9962C15.0666 60.476 14.9496 59.9512 14.8314 59.4219C13.8868 55.1874 12.8773 50.6628 11.8151 45.9011C10.7533 41.1395 9.63859 36.1408 8.48307 30.9588C7.90547 28.3677 7.31763 25.7306 6.72099 23.0544C6.42275 21.7164 6.12227 20.3684 5.81987 19.0114C5.66995 18.3319 5.51395 17.6544 5.36787 16.9672C5.30499 16.6144 5.38531 16.2384 5.58675 15.9408C5.78563 15.6412 6.10419 15.424 6.45651 15.3469C11.9508 14.1228 17.3151 12.9274 22.4962 11.773C25.0868 11.1959 27.6316 10.6292 30.1239 10.074C31.37 9.79651 32.6031 9.52179 33.8221 9.25027C34.4317 9.11459 35.0376 8.97955 35.6402 8.84531C35.9415 8.77827 36.2418 8.71139 36.5412 8.64467C36.6909 8.61139 36.8404 8.57811 36.9896 8.54483C37.1368 8.51011 37.2927 8.47843 37.4485 8.47939C37.761 8.47827 38.068 8.59059 38.313 8.77891C38.5549 8.97139 38.736 9.24131 38.8088 9.54083C38.9405 10.1287 39.0712 10.7127 39.2012 11.2927C39.4594 12.4527 39.7141 13.5968 39.9653 14.7247C40.4674 16.9804 40.9549 19.1703 41.4263 21.2876C42.3685 25.5223 43.2463 29.4671 44.0476 33.0684C45.6482 40.2711 46.9436 46.1002 47.8389 50.1292C48.0621 51.1363 48.2605 52.0311 48.4325 52.8066C48.5183 53.1943 48.5976 53.5522 48.67 53.8796C48.7044 54.0437 48.7445 54.1979 48.7695 54.3487C48.7928 54.4991 48.7949 54.6458 48.7712 54.7803C48.7293 55.0508 48.6133 55.2712 48.4855 55.4325C48.3551 55.5939 48.2135 55.6995 48.0932 55.7696C47.9704 55.836 47.8711 55.8733 47.8032 55.8923C47.7348 55.9107 47.7 55.9191 47.7 55.9191Z" fill="#263238"/>
<g opacity="0.3">
<path d="M18.5732 61.1751L46.5286 54.7845L45.6441 49.305L44.0598 46.2347L17.3174 56.7389L18.5732 61.1751Z" fill="black"/>
</g>
<g opacity="0.3">
<path d="M30.2428 10.181L31.3002 11.9271L31.5065 12.8522L30.7886 13.0122L30.2428 10.181Z" fill="black"/>
</g>
<path d="M7.00256 17.288L16.7013 60.8083L47.103 54.033L45.3688 46.2511L37.4042 10.5128L7.00256 17.288Z" fill="white"/>
<path d="M7.0022 17.288C7.21884 17.2395 18.9206 14.6209 37.398 10.4864L37.4244 10.4805L37.4304 10.5069C40.1275 22.6011 43.4934 37.6939 47.1347 54.0222L47.1355 54.0257L47.1428 54.0584L47.1102 54.0658C36.2412 56.4869 25.9209 58.7859 16.708 60.8381L16.678 60.8448L16.6715 60.815C10.9622 35.115 7.06108 17.5531 7.0022 17.288C7.0614 17.5528 10.9867 35.1096 16.7308 60.8016L16.6944 60.7784C25.907 58.7243 36.2268 56.4235 47.0953 54.0001L47.0699 54.0401L47.0691 54.0366C43.4324 37.7073 40.071 22.6136 37.3774 10.5185L37.4097 10.539C18.9251 14.6417 7.21868 17.24 7.0022 17.288Z" fill="#263238"/>
<path d="M30.9529 13.3656L15.5705 16.7938L14.7964 13.32C14.6748 12.7744 15.0185 12.2336 15.5641 12.112L28.9708 9.12419C29.5164 9.00259 30.0572 9.34627 30.1788 9.89187L30.9529 13.3656Z" fill="#263238"/>
<path d="M23.8505 8.50403L19.9353 9.37651L21.1409 12.6304L24.0899 11.9731L23.8505 8.50403Z" fill="#263238"/>
<path d="M28.9707 9.12438C28.9747 9.14214 25.9766 9.8255 22.2751 10.6505C18.5724 11.4756 15.5686 12.13 15.5646 12.1121C15.5606 12.0943 18.558 11.4111 22.2607 10.5858C25.9622 9.76102 28.9667 9.10662 28.9707 9.12438Z" fill="#455A64"/>
<path d="M15.7547 15.9973C15.737 16.0013 15.5818 15.3734 15.4083 14.595C15.2347 13.8165 15.1087 13.1822 15.1264 13.1782C15.1442 13.1742 15.2994 13.8021 15.4728 14.5806C15.6463 15.359 15.7725 15.9933 15.7547 15.9973Z" fill="#455A64"/>
<path d="M30.2192 12.423C30.2013 12.427 30.0592 11.8573 29.9018 11.1505C29.7442 10.4437 29.631 9.86751 29.6488 9.86367C29.6666 9.85967 29.8088 10.4293 29.9662 11.1363C30.1237 11.8429 30.237 12.419 30.2192 12.423Z" fill="#455A64"/>
<path d="M29.6098 13.1817C29.6138 13.1997 26.5362 13.9006 22.7367 14.7473C18.9359 15.5944 15.8525 16.2664 15.8485 16.2485C15.8445 16.2307 18.9215 15.5297 22.7223 14.6827C26.5218 13.8361 29.6058 13.164 29.6098 13.1817Z" fill="#455A64"/>
<path d="M21.5122 25.8423C21.5162 25.8604 19.4405 26.3383 16.8766 26.9097C14.3118 27.4812 12.2301 27.9298 12.2261 27.9118C12.2221 27.8937 14.2973 27.4159 16.8621 26.8442C19.4259 26.2729 21.5082 25.8242 21.5122 25.8423Z" fill="#263238"/>
<path d="M36.9859 24.0996C36.9899 24.1176 31.5662 25.3416 24.8734 26.8333C18.1782 28.3255 12.7491 29.5199 12.7451 29.502C12.7411 29.4839 18.1637 28.26 24.8589 26.768C31.5518 25.2764 36.9819 24.0816 36.9859 24.0996Z" fill="#263238"/>
<path d="M37.3199 25.5952C37.3239 25.6133 31.9002 26.8374 25.2074 28.3289C18.5122 29.8211 13.0831 31.0155 13.0791 30.9974C13.0751 30.9793 18.4977 29.7555 25.1929 28.2635C31.8857 26.772 37.3157 25.5771 37.3199 25.5952Z" fill="#263238"/>
<path d="M37.6532 27.0909C37.6572 27.109 32.2335 28.333 25.5407 29.8247C18.8455 31.3168 13.4164 32.5112 13.4124 32.4931C13.4084 32.4751 18.8309 31.2512 25.5261 29.7592C32.2189 28.2677 37.6492 27.0728 37.6532 27.0909Z" fill="#263238"/>
<path d="M37.9859 28.5866C37.9899 28.6047 32.5662 29.8289 25.8734 31.3204C19.1782 32.8125 13.7491 34.0069 13.7451 33.9889C13.7411 33.9708 19.1637 32.7469 25.8589 31.2549C32.5517 29.7633 37.9819 28.5685 37.9859 28.5866Z" fill="#263238"/>
<path d="M38.3192 30.0822C38.3232 30.1003 32.8995 31.3245 26.2067 32.816C19.5115 34.3082 14.0825 35.5026 14.0784 35.4845C14.0744 35.4664 19.4969 34.2426 26.1921 32.7506C32.8851 31.2589 38.3152 30.0642 38.3192 30.0822Z" fill="#263238"/>
<path d="M18.7809 40.6102C18.7796 40.6094 18.7746 40.5922 18.7663 40.5597C18.7572 40.5224 18.7455 40.4755 18.7311 40.4171C18.7004 40.2874 18.6577 40.1078 18.6042 39.8824C18.4973 39.4198 18.3473 38.7698 18.1677 37.9922L18.2023 38.0141C17.4383 38.1858 16.5388 38.3877 15.5791 38.6034C15.5732 38.612 15.6269 38.528 15.6044 38.5639L15.6045 38.5645L15.6049 38.5659L15.6055 38.5688L15.6068 38.5744L15.6093 38.5856L15.6143 38.608L15.6244 38.653L15.6444 38.7426C15.6577 38.8021 15.6708 38.8615 15.6839 38.9205C15.7101 39.0386 15.7362 39.1557 15.7618 39.2714C15.8132 39.5029 15.8633 39.7294 15.9122 39.9499C16.0092 40.3906 16.1007 40.8066 16.1849 41.1886L16.1503 41.1667C16.9306 40.999 17.5829 40.8589 18.0471 40.7592C18.274 40.7118 18.4546 40.6743 18.585 40.6471C18.6439 40.6354 18.6914 40.6259 18.729 40.6184C18.7618 40.6122 18.7796 40.6093 18.7809 40.6102C18.7821 40.611 18.7671 40.6155 18.7365 40.6235C18.7007 40.6323 18.6556 40.6435 18.5996 40.6574C18.4714 40.6878 18.294 40.7301 18.0713 40.7829C17.6042 40.8907 16.9481 41.0421 16.1629 41.2234L16.1348 41.2299L16.1284 41.2015C16.0423 40.8199 15.9485 40.4043 15.8492 39.9642C15.7997 39.7438 15.749 39.5173 15.6972 39.2859C15.6713 39.1701 15.6452 39.0531 15.6188 38.935C15.6057 38.876 15.5924 38.8166 15.5791 38.7571L15.5591 38.6675L15.549 38.6226L15.5441 38.6L15.5415 38.5888L15.5402 38.5832L15.5396 38.5803L15.5393 38.5789L15.5391 38.5782C15.5164 38.6138 15.5698 38.529 15.5647 38.5378C16.5252 38.3254 17.4253 38.1264 18.1898 37.9573L18.2183 37.951L18.2244 37.9794C18.3937 38.7671 18.5353 39.4254 18.6359 39.8941C18.6826 40.1182 18.7197 40.2968 18.7466 40.4258C18.7578 40.4824 18.7669 40.528 18.774 40.5643C18.7797 40.5954 18.7821 40.611 18.7809 40.6102Z" fill="#263238"/>
<path d="M38.2869 34.1416L19.9802 38.2208L20.3205 39.7481L38.6272 35.6689L38.2869 34.1416Z" fill="#E0E0E0"/>
<path d="M19.7935 45.1625C19.7922 45.1617 19.7872 45.1444 19.7789 45.1119C19.7698 45.0746 19.7581 45.0277 19.7437 44.9693C19.713 44.8396 19.6703 44.6601 19.6168 44.4346C19.51 43.9719 19.36 43.322 19.1804 42.5444L19.2149 42.5663C18.4509 42.738 17.5514 42.9399 16.5917 43.1556C16.5858 43.1642 16.6396 43.0801 16.617 43.1161L16.6172 43.1167L16.6175 43.1181L16.6181 43.121L16.6194 43.1266L16.622 43.1378L16.6269 43.1604L16.637 43.2053L16.657 43.2949C16.6703 43.3545 16.6834 43.4138 16.6967 43.4729C16.7229 43.5909 16.7488 43.7081 16.7746 43.8237C16.826 44.0553 16.876 44.2818 16.925 44.5023C17.022 44.9429 17.1135 45.3589 17.1976 45.741L17.1631 45.7191C17.9434 45.5514 18.5957 45.4113 19.0599 45.3116C19.2868 45.2642 19.4674 45.2266 19.5978 45.1994C19.6567 45.1877 19.7042 45.1783 19.7418 45.1708C19.7744 45.1645 19.792 45.1617 19.7935 45.1625C19.7948 45.1633 19.7797 45.1677 19.7492 45.1757C19.7133 45.1845 19.6682 45.1957 19.6122 45.2097C19.484 45.2401 19.3066 45.2823 19.0839 45.3353C18.6168 45.4431 17.9605 45.5945 17.1754 45.7757L17.1472 45.7823L17.1408 45.7538C17.0548 45.3722 16.961 44.9567 16.8616 44.5165C16.8122 44.2962 16.7615 44.0698 16.7096 43.8383C16.6837 43.7226 16.6576 43.6055 16.6312 43.4874C16.6181 43.4284 16.6048 43.369 16.5916 43.3095L16.5716 43.2199L16.5615 43.1749L16.5565 43.1524L16.554 43.1412L16.5527 43.1356L16.552 43.1327L16.5517 43.1313L16.5516 43.1306C16.5288 43.1661 16.5823 43.0813 16.5772 43.0901C17.5376 42.8778 18.4378 42.6788 19.2023 42.5098L19.2308 42.5034L19.2368 42.5317C19.4061 43.3194 19.5477 43.9778 19.6485 44.4465C19.6952 44.6706 19.7324 44.8492 19.7592 44.9781C19.7704 45.0348 19.7794 45.0804 19.7866 45.1167C19.7924 45.1477 19.7948 45.1634 19.7935 45.1625Z" fill="#263238"/>
<path d="M39.2993 38.6941L20.9927 42.7733L21.333 44.3006L39.6396 40.2214L39.2993 38.6941Z" fill="#E0E0E0"/>
<path d="M20.8089 49.7147C20.8077 49.7139 20.8027 49.6966 20.7944 49.6641C20.7853 49.6269 20.7736 49.58 20.7592 49.5216C20.7285 49.392 20.6857 49.2123 20.6323 48.9869C20.5254 48.5241 20.3755 47.8742 20.1958 47.0966L20.2304 47.1185C19.4664 47.2902 18.5669 47.4921 17.6072 47.7078C17.6013 47.7165 17.6552 47.6325 17.6325 47.6683L17.6326 47.6691L17.6329 47.6705L17.6336 47.6734L17.6349 47.679L17.6374 47.6902L17.6424 47.7128L17.6525 47.7577L17.6725 47.8473C17.6857 47.9069 17.6989 47.9662 17.712 48.0253C17.7382 48.1433 17.7643 48.2605 17.7899 48.3761C17.8413 48.6077 17.8913 48.8342 17.9401 49.0547C18.0371 49.4953 18.1286 49.9113 18.2128 50.2934L18.1782 50.2715C18.9585 50.1038 19.6109 49.9637 20.075 49.8638C20.3019 49.8165 20.4825 49.7789 20.6131 49.7517C20.672 49.74 20.7195 49.7305 20.7571 49.723C20.7901 49.7168 20.8077 49.7139 20.8089 49.7147C20.8102 49.7155 20.7952 49.72 20.7646 49.728C20.7288 49.7369 20.6837 49.7481 20.6277 49.7621C20.4995 49.7925 20.3221 49.8347 20.0993 49.8875C19.6323 49.9953 18.9761 50.1467 18.191 50.328L18.1629 50.3345L18.1565 50.3061C18.0704 49.9243 17.9766 49.5089 17.8773 49.0688C17.8278 48.8485 17.7771 48.6219 17.7253 48.3905C17.6993 48.2747 17.6733 48.1577 17.6469 48.0397C17.6337 47.9806 17.6205 47.9213 17.6072 47.8617L17.5872 47.7721L17.5771 47.7272L17.5721 47.7046L17.5696 47.6934L17.5683 47.6878L17.5677 47.6849L17.5673 47.6835L17.5672 47.6829C17.5445 47.7184 17.5979 47.6336 17.5928 47.6424C18.5533 47.4301 19.4534 47.231 20.2179 47.0619L20.2464 47.0557L20.2525 47.084C20.4217 47.8717 20.5633 48.5301 20.664 48.9987C20.7107 49.2229 20.7478 49.4014 20.7747 49.5304C20.7859 49.587 20.795 49.6328 20.8021 49.6689C20.808 49.7 20.8102 49.7157 20.8089 49.7147Z" fill="#263238"/>
<path d="M40.3147 43.2467L22.0081 47.3259L22.3484 48.8532L40.655 44.774L40.3147 43.2467Z" fill="#E0E0E0"/>
<path d="M16.2588 39.6696L16.5337 39.2371L17.3511 39.6914L18.4029 38.1045L18.8101 38.385L17.4525 40.3848L16.2588 39.6696Z" fill="#0169B8"/>
<path d="M17.2393 44.0696L17.5141 43.6372L18.3314 44.0914L19.3834 42.5045L19.7906 42.785L18.433 44.7848L17.2393 44.0696Z" fill="#0169B8"/>
<path d="M18.2432 48.581L18.518 48.1485L19.3353 48.6027L20.3872 47.0159L20.7945 47.2963L19.4368 49.2962L18.2432 48.581Z" fill="#0169B8"/>
<path d="M26.6236 54.2423C26.6276 54.2604 25.082 54.6202 23.1719 55.0458C21.261 55.4716 19.7093 55.8021 19.7053 55.784C19.7013 55.766 21.2464 55.4063 23.1573 54.9804C25.0674 54.5548 26.6194 54.2244 26.6236 54.2423Z" fill="#263238"/>
<path d="M30.0717 53.4183C30.0757 53.4364 29.507 53.5784 28.8017 53.7356C28.0961 53.8928 27.5213 54.0056 27.5171 53.9876C27.5131 53.9695 28.0816 53.8274 28.7872 53.6701C29.4925 53.513 30.0677 53.4002 30.0717 53.4183Z" fill="#263238"/>
<path d="M41.4852 49.8255C41.4892 49.8436 40.0985 50.1689 38.3794 50.5519C36.6598 50.9351 35.2628 51.2311 35.2588 51.213C35.2548 51.1949 36.6452 50.8697 38.3649 50.4865C40.0839 50.1034 41.4812 49.8074 41.4852 49.8255Z" fill="#263238"/>
<path d="M39.9988 54.0374C39.995 54.0361 40.0124 53.9935 40.0294 53.91C40.0479 53.8266 40.0489 53.6978 40.01 53.5404C39.9699 53.3828 39.8875 53.2006 39.7887 52.9897C39.6943 52.7796 39.5718 52.5305 39.5697 52.2268C39.5742 51.9287 39.7055 51.5977 39.9753 51.3655C40.2417 51.1289 40.6595 51.0454 41.0385 51.1673C41.2271 51.2287 41.4092 51.3354 41.5446 51.4996C41.6092 51.5833 41.6611 51.6838 41.6647 51.7991C41.6748 51.9167 41.5847 52.0335 41.4771 52.0695C41.3707 52.1103 41.2668 52.1225 41.1622 52.1476C41.0571 52.1692 40.9511 52.1911 40.8444 52.213C40.6305 52.2553 40.4123 52.2945 40.1895 52.3236C39.7452 52.3831 39.2988 52.3913 38.8806 52.3311C38.6761 52.3095 38.4601 52.3062 38.306 52.4247C38.1524 52.542 38.0745 52.7326 37.9598 52.8924C37.9033 52.973 37.8311 53.0502 37.7366 53.0918C37.6433 53.135 37.5347 53.1338 37.4431 53.1041C37.2585 53.0418 37.1228 52.9182 36.9763 52.835C36.9038 52.7926 36.8283 52.7575 36.7511 52.7498C36.6747 52.7425 36.5977 52.7612 36.5367 52.8041C36.4131 52.8919 36.3476 53.0375 36.2657 53.1593C36.1038 53.418 35.8252 53.5406 35.5902 53.549C35.3491 53.5609 35.1534 53.4585 35.03 53.3505C34.9041 53.2404 34.8412 53.1233 34.8084 53.0434C34.7763 52.9625 34.7721 52.9164 34.7721 52.9164C34.7756 52.9154 34.7852 52.9602 34.8207 53.038C34.8569 53.1146 34.922 53.2268 35.0468 53.3305C35.1694 53.4324 35.3588 53.5263 35.5881 53.5114C35.8129 53.4996 36.0751 53.3802 36.226 53.1334C36.3057 53.0145 36.3676 52.8642 36.5073 52.7615C36.5769 52.7118 36.6678 52.6882 36.7566 52.6966C36.846 52.705 36.9283 52.7434 37.0039 52.787C37.1559 52.873 37.2935 52.9937 37.4604 53.0479C37.5428 53.0738 37.6331 53.0735 37.7121 53.0369C37.7915 53.0015 37.8559 52.9342 37.9095 52.8569C38.0196 52.7049 38.0951 52.5087 38.2678 52.3738C38.3535 52.3074 38.4614 52.2732 38.5676 52.261C38.6745 52.249 38.7817 52.2556 38.8873 52.2662C39.3051 52.325 39.7391 52.3162 40.1811 52.2575C40.4017 52.2286 40.6185 52.1898 40.8316 52.1479C40.9382 52.1262 41.0438 52.1044 41.1487 52.083C41.2524 52.0586 41.3617 52.0442 41.4524 52.009C41.5443 51.9753 41.6054 51.8946 41.6001 51.8004C41.598 51.7073 41.5529 51.6146 41.4945 51.5393C41.3715 51.3887 41.198 51.2846 41.0201 51.2263C40.6603 51.1092 40.2651 51.1858 40.0116 51.4081C39.7537 51.6266 39.6244 51.943 39.6174 52.2278C39.6159 52.5161 39.7316 52.7634 39.8231 52.9745C39.9183 53.1863 39.9987 53.3727 40.0355 53.5345C40.0713 53.6964 40.0659 53.8289 40.0427 53.9129C40.0211 53.9969 39.9988 54.0374 39.9988 54.0374Z" fill="#263238"/>
<path d="M43.3062 51.989C43.3067 51.9912 43.2779 51.9997 43.2227 52.0138C43.1606 52.0288 43.0803 52.0482 42.9804 52.0722C42.7619 52.1229 42.459 52.1932 42.0881 52.2791C41.3347 52.4538 40.2951 52.7004 39.1515 52.9903C38.0075 53.2807 36.9761 53.5594 36.2305 53.765C35.8635 53.8661 35.5638 53.9489 35.3475 54.0084C35.2483 54.0348 35.1684 54.056 35.1067 54.0724C35.0515 54.0863 35.022 54.0925 35.0214 54.0903C35.0207 54.088 35.0487 54.0775 35.1028 54.0594C35.1636 54.0399 35.2423 54.0146 35.3401 53.9832C35.5465 53.9181 35.8462 53.8279 36.2175 53.7192C36.9601 53.502 37.9902 53.2157 39.135 52.9252C40.2795 52.6351 41.3212 52.3956 42.0777 52.2327C42.4559 52.1511 42.7625 52.0877 42.9748 52.0465C43.0758 52.0274 43.1569 52.0122 43.2196 52.0004C43.2761 51.9908 43.3057 51.9868 43.3062 51.989Z" fill="#263238"/>
<path d="M30.1856 16.8813L17.7585 19.6504L18.2788 21.9852L30.7059 19.2162L30.1856 16.8813Z" fill="#E0E0E0"/>
<path d="M41.9404 54.7689L45.9552 75.9788L49.624 69.2001L56.5779 73.2814L49.1963 52.6279L41.9404 54.7689Z" fill="#0169B8"/>
<g opacity="0.3">
<path d="M43.289 61.9024C44.0311 62.0552 44.8973 61.7928 45.4239 61.248C45.7897 60.8696 46.0337 60.3555 46.4949 60.1021C46.909 59.8745 47.4196 59.907 47.8749 60.0328C48.3303 60.1585 48.7591 60.3696 49.2164 60.4881C50.1127 60.7208 51.1012 60.5739 51.8914 60.091L50.7333 56.875L45.3569 56.2035L42.7933 59.2829L43.289 61.9024Z" fill="black"/>
</g>
<path d="M49.3617 68.3577C49.3394 68.3635 48.7415 66.1608 48.0265 63.4382C47.3111 60.7147 46.7495 58.5028 46.7718 58.4971C46.794 58.4913 47.3918 60.6936 48.1071 63.4171C48.8222 66.1395 49.3839 68.3518 49.3617 68.3577Z" fill="#263238"/>
<path d="M42.5253 55.8723L38.5104 77.082L34.8416 70.3033L27.8877 74.3848L35.2693 53.7313L42.5253 55.8723Z" fill="#0169B8"/>
<g opacity="0.3">
<path d="M33.0631 59.9086C33.0631 59.9086 34.2049 60.8486 35.5673 60.4155C36.9295 59.9824 37.7753 59.8914 38.5122 60.4155C39.2492 60.9397 41.2444 62.6485 41.2444 62.6485L41.7076 60.2014L39.0282 56.5216L36.23 57.0866L34.2372 57.2856L33.4964 58.6878L33.0631 59.9086Z" fill="black"/>
</g>
<path d="M66.0644 36.7258C66.0644 38.2476 64.1193 39.5585 63.8348 40.9967C63.5417 42.4786 64.8318 44.4321 64.2663 45.7956C63.6911 47.1829 61.3919 47.6493 60.5663 48.8825C59.7345 50.125 60.1782 52.4266 59.1246 53.4801C58.0711 54.5335 55.7695 54.0898 54.527 54.9217C53.2938 55.7473 52.8274 58.0463 51.4401 58.6217C50.0766 59.1871 48.1231 57.897 46.6412 58.1901C45.203 58.4746 43.8921 60.4197 42.3703 60.4197C40.8486 60.4197 39.5377 58.4746 38.0994 58.1901C36.6175 57.897 34.6641 59.1869 33.3006 58.6217C31.9132 58.0465 31.4468 55.7473 30.2137 54.9217C28.9711 54.0898 26.6695 54.5335 25.6161 53.4799C24.5626 52.4265 25.0063 50.1249 24.1745 48.8823C23.349 47.6492 21.0498 47.1828 20.4745 45.7954C19.909 44.4319 21.1991 42.4785 20.906 40.9965C20.6215 39.5583 18.6764 38.2474 18.6764 36.7257C18.6764 35.2039 20.6215 33.893 20.906 32.4548C21.1991 30.9729 19.909 29.0194 20.4745 27.6559C21.0497 26.2685 23.3489 25.8021 24.1745 24.569C25.0063 23.3265 24.5626 21.0249 25.6162 19.9714C26.6697 18.918 28.9713 19.3617 30.2138 18.5298C31.447 17.7042 31.9134 15.4052 33.3007 14.8298C34.6642 14.2644 36.6177 15.5545 38.0996 15.2613C39.5378 14.9769 40.8487 13.0317 42.3705 13.0317C43.8922 13.0317 45.2031 14.9769 46.6414 15.2613C48.1233 15.5545 50.0767 14.2645 51.4402 14.8298C52.8276 15.405 53.294 17.7042 54.5271 18.5298C55.7697 19.3617 58.0713 18.918 59.1247 19.9714C60.1782 21.0249 59.7345 23.3265 60.5663 24.569C61.3918 25.8021 63.691 26.2685 64.2663 27.6559C64.8318 29.0194 63.5417 30.9729 63.8348 32.4548C64.1193 33.8932 66.0644 35.2041 66.0644 36.7258Z" fill="#0169B8"/>
<path d="M36.8274 23.445C36.8249 23.4463 36.8101 23.4237 36.7844 23.3795C36.7548 23.3264 36.7188 23.2621 36.6753 23.1845C36.5815 23.0146 36.4521 22.7653 36.2978 22.4546C35.9887 21.8333 35.589 20.9608 35.2036 19.9741C34.8189 18.9867 34.522 18.0739 34.3289 17.4075C34.2321 17.0744 34.1585 16.8034 34.1124 16.6149C34.0917 16.5283 34.0746 16.4567 34.0605 16.3976C34.0497 16.3477 34.0452 16.3211 34.0479 16.3203C34.0506 16.3195 34.0605 16.3447 34.0767 16.3931C34.0949 16.4511 34.117 16.5213 34.1436 16.6063C34.2045 16.8039 34.2861 17.0688 34.3852 17.3906C34.5925 18.0515 34.8975 18.9591 35.2812 19.944C35.6657 20.9283 36.0557 21.8024 36.3508 22.4293C36.4957 22.7331 36.6151 22.9834 36.7041 23.1699C36.7418 23.2504 36.7733 23.3171 36.7991 23.372C36.8201 23.4184 36.83 23.4435 36.8274 23.445Z" fill="#263238"/>
<path d="M38.9353 22.643C38.9297 22.6444 38.9083 22.5815 38.8742 22.4665C38.8398 22.3516 38.7945 22.1841 38.7417 21.9764C38.6361 21.5609 38.5052 20.983 38.3868 20.3396C38.2687 19.6959 38.1857 19.1091 38.1369 18.6831C38.1124 18.4702 38.0953 18.2975 38.0867 18.178C38.0777 18.0585 38.0755 17.9921 38.0811 17.9915C38.0868 17.9908 38.0999 18.0559 38.1188 18.1742C38.1396 18.31 38.1651 18.4775 38.1953 18.6753C38.259 19.0985 38.351 19.6823 38.4687 20.3244C38.5868 20.9663 38.7083 21.5447 38.799 21.9628C38.8411 22.1585 38.8767 22.3241 38.9055 22.4585C38.93 22.5759 38.9409 22.6415 38.9353 22.643Z" fill="#263238"/>
<path d="M42.6552 22.2734C42.6321 22.2739 42.5729 20.4792 42.5228 18.2653C42.4728 16.0506 42.4508 14.2554 42.4739 14.2549C42.4969 14.2544 42.5561 16.0488 42.6062 18.2635C42.6561 20.4773 42.678 22.273 42.6552 22.2734Z" fill="#263238"/>
<path d="M46.3983 18.5857C46.4202 18.5926 46.162 19.4901 45.8215 20.5899C45.4808 21.6902 45.1869 22.5765 45.165 22.5697C45.1431 22.563 45.4013 21.6657 45.742 20.5653C46.0824 19.4653 46.3762 18.5789 46.3983 18.5857Z" fill="#263238"/>
<path d="M47.9262 23.2235C47.9235 23.2226 47.9305 23.1965 47.9464 23.1478C47.9662 23.0904 47.9904 23.0208 48.0194 22.9368C48.0837 22.7538 48.1832 22.4915 48.3075 22.1678C48.5576 21.5211 48.9173 20.6334 49.3265 19.6582C49.7358 18.6826 50.1162 17.8037 50.3966 17.1698C50.5349 16.8627 50.6486 16.6098 50.7336 16.4211C50.7717 16.3408 50.8033 16.2742 50.8294 16.2195C50.8521 16.1738 50.8654 16.1504 50.8681 16.1515C50.8709 16.1526 50.8627 16.1784 50.8448 16.2262C50.8227 16.2827 50.7958 16.3514 50.7633 16.4341C50.6846 16.6254 50.579 16.8818 50.4509 17.1931C50.1782 17.8434 49.8102 18.7208 49.4035 19.6906C48.9992 20.6608 48.6334 21.5389 48.3624 22.1898C48.2342 22.501 48.1286 22.7573 48.0498 22.9485C48.0149 23.0302 47.9861 23.0981 47.9622 23.1539C47.9411 23.2005 47.9288 23.2245 47.9262 23.2235Z" fill="#263238"/>
<path d="M49.9272 24.2665C49.9224 24.2633 49.9552 24.2055 50.0184 24.1036C50.0815 24.0015 50.1765 23.8564 50.2967 23.6789C50.537 23.3239 50.8819 22.8421 51.2842 22.3261C51.6869 21.8101 52.0703 21.3583 52.356 21.0388C52.4989 20.8789 52.6165 20.7516 52.7002 20.6655C52.7835 20.5793 52.8317 20.5335 52.836 20.5373C52.8403 20.5412 52.8003 20.5943 52.7245 20.6869C52.6368 20.7927 52.5287 20.9231 52.4008 21.0772C52.1269 21.406 51.7517 21.8626 51.3499 22.3773C50.9487 22.8921 50.5971 23.3671 50.3448 23.7129C50.2266 23.8743 50.1264 24.0111 50.0451 24.1218C49.9738 24.218 49.932 24.2697 49.9272 24.2665Z" fill="#263238"/>
<path d="M52.8351 26.6513C52.8194 26.6345 54.0853 25.4311 55.6623 23.9641C57.2397 22.4966 58.5309 21.3209 58.5466 21.3377C58.5623 21.3545 57.2965 22.5575 55.7191 24.0251C54.1421 25.4923 52.8508 26.6681 52.8351 26.6513Z" fill="#263238"/>
<path d="M57.9172 27.1483C57.9223 27.1598 57.7348 27.2537 57.4349 27.411C57.1348 27.5678 56.7256 27.794 56.2746 28.0473C55.8232 28.3008 55.4076 28.52 55.0996 28.6636C54.9456 28.7355 54.8199 28.7913 54.7314 28.8262C54.6432 28.8617 54.5933 28.8788 54.5909 28.8736C54.5858 28.8622 54.7733 28.7681 55.0732 28.6108C55.3733 28.454 55.7824 28.2278 56.2338 27.9744C56.685 27.7211 57.1007 27.5019 57.4085 27.358C57.5624 27.2862 57.6882 27.2304 57.7767 27.1955C57.865 27.1601 57.9148 27.143 57.9172 27.1483Z" fill="#263238"/>
<path d="M62.6217 29.0998C62.6294 29.1215 61.1223 29.6718 59.2563 30.3287C57.3895 30.9859 55.8705 31.5009 55.8628 31.4793C55.8551 31.4575 57.3619 30.9075 59.2286 30.2502C61.0948 29.5932 62.614 29.078 62.6217 29.0998Z" fill="#263238"/>
<path d="M64.1197 37.6543C64.1175 37.6772 62.4799 37.5401 60.4623 37.3481C58.4441 37.1559 56.8103 36.9817 56.8124 36.9588C56.8146 36.9359 58.4519 37.073 60.4701 37.2652C62.4877 37.4572 64.1218 37.6314 64.1197 37.6543Z" fill="#263238"/>
<path d="M62.9149 45.3275C62.9052 45.3483 61.374 44.6456 59.4954 43.758C57.6162 42.8702 56.1013 42.134 56.1113 42.1132C56.121 42.0924 57.6519 42.795 59.5311 43.6828C61.4095 44.5702 62.9247 45.3067 62.9149 45.3275Z" fill="#263238"/>
<path d="M57.8779 52.628C57.8603 52.6429 56.756 51.3619 55.4115 49.7674C54.0667 48.1723 52.991 46.8677 53.0086 46.8528C53.0262 46.8379 54.1304 48.1186 55.4752 49.7136C56.8197 51.3083 57.8955 52.6133 57.8779 52.628Z" fill="#263238"/>
<path d="M53.6738 53.5924C53.669 53.5955 53.6217 53.5313 53.5404 53.4126C53.4588 53.2939 53.3442 53.1199 53.2052 52.9033C52.9271 52.4702 52.5541 51.8643 52.1615 51.1839C51.7689 50.5033 51.4311 49.8772 51.1953 49.4196C51.0773 49.1908 50.9841 49.0046 50.9221 48.8745C50.8601 48.7446 50.8281 48.6716 50.8332 48.6689C50.8383 48.6663 50.8799 48.7343 50.9508 48.8595C51.0285 48.9991 51.1281 49.1779 51.2471 49.3918C51.4961 49.8419 51.8417 50.4625 52.2337 51.1423C52.6258 51.8217 52.9901 52.4315 53.2553 52.8723C53.3809 53.0825 53.4858 53.258 53.5677 53.3951C53.6405 53.5193 53.6786 53.5894 53.6738 53.5924Z" fill="#263238"/>
<path d="M51.0627 57.2641C51.0601 57.2654 51.0459 57.2428 51.0211 57.1985C50.9926 57.1452 50.958 57.0807 50.9164 57.003C50.8265 56.8327 50.7027 56.583 50.5555 56.2718C50.2606 55.6495 49.8817 54.7755 49.5212 53.7879C49.1617 52.7996 48.8894 51.8867 48.7148 51.2206C48.6273 50.8875 48.5614 50.6167 48.5208 50.4286C48.5027 50.3423 48.4876 50.2707 48.4752 50.2116C48.4656 50.1619 48.462 50.1353 48.4648 50.1347C48.4676 50.134 48.4766 50.1591 48.4915 50.2076C48.5081 50.2657 48.5281 50.3359 48.5523 50.4207C48.6076 50.6185 48.6817 50.8835 48.7716 51.2049C48.9604 51.8659 49.2408 52.7737 49.5995 53.7593C49.959 54.7444 50.3283 55.6196 50.6089 56.2471C50.747 56.5511 50.8606 56.8017 50.9456 56.9887C50.9816 57.0692 51.0115 57.1359 51.0361 57.191C51.056 57.2377 51.0652 57.2628 51.0627 57.2641Z" fill="#263238"/>
<path d="M45.7727 54.69C45.7604 54.6907 45.7407 54.4771 45.7036 54.1329C45.6666 53.7887 45.6086 53.3143 45.5217 52.7939C45.4343 52.2732 45.3348 51.8057 45.2578 51.4683C45.1809 51.1308 45.13 50.9223 45.1418 50.919C45.1474 50.9174 45.167 50.9676 45.1977 51.0598C45.2287 51.1519 45.269 51.2865 45.315 51.454C45.407 51.7889 45.5161 52.2571 45.6039 52.7801C45.6911 53.3031 45.7402 53.7812 45.7623 54.1278C45.7735 54.3011 45.7793 54.4415 45.7798 54.5387C45.7806 54.6359 45.7785 54.6897 45.7727 54.69Z" fill="#263238"/>
<path d="M42.3119 59.2959C42.309 59.2959 42.3066 59.2676 42.3049 59.2138C42.3039 59.1504 42.3026 59.0728 42.3012 58.9786C42.2991 58.7743 42.3004 58.4788 42.3071 58.1136C42.3193 57.3832 42.3527 56.3746 42.4113 55.2618C42.469 54.1485 42.5407 53.142 42.5996 52.414C42.6294 52.05 42.6559 51.7557 42.6767 51.5525C42.6873 51.4589 42.6959 51.3816 42.703 51.3188C42.7098 51.2653 42.7151 51.2375 42.718 51.2378C42.7209 51.238 42.7214 51.2664 42.7198 51.3202C42.7169 51.3834 42.7134 51.461 42.709 51.5552C42.6964 51.7716 42.6791 52.0634 42.6583 52.4184C42.6158 53.1588 42.5582 54.1599 42.4945 55.2664C42.4361 56.3786 42.3934 57.3861 42.366 58.1156C42.3527 58.4709 42.3417 58.7629 42.3337 58.9796C42.3289 59.0736 42.325 59.1512 42.3218 59.2144C42.3182 59.2677 42.3148 59.2959 42.3119 59.2959Z" fill="#263238"/>
<path d="M39.4993 51.2374C39.5103 51.2395 39.4931 51.3955 39.4513 51.6458C39.4097 51.8958 39.3423 52.2398 39.2542 52.6165C39.1659 52.9933 39.0734 53.3314 38.9995 53.5739C38.9257 53.8166 38.8718 53.964 38.8611 53.961C38.8497 53.9578 38.8836 53.8045 38.9427 53.5586C39.0086 53.2838 39.0867 52.9579 39.1731 52.5976C39.2558 52.2365 39.3305 51.9099 39.3935 51.6344C39.4499 51.3877 39.4876 51.2354 39.4993 51.2374Z" fill="#263238"/>
<path d="M34.4131 48.7938C34.4315 48.8077 34.1181 49.2519 33.7131 49.7858C33.3081 50.3199 32.9649 50.7413 32.9467 50.7274C32.9283 50.7135 33.2417 50.2695 33.6469 49.7354C34.0515 49.2015 34.3947 48.7799 34.4131 48.7938Z" fill="#263238"/>
<path d="M31.7448 47.0011C31.7621 47.0163 30.7693 48.1822 29.5274 49.605C28.2852 51.0283 27.2642 52.1694 27.2469 52.1542C27.2296 52.139 28.2223 50.9734 29.4647 49.5502C30.7064 48.1274 31.7274 46.9859 31.7448 47.0011Z" fill="#263238"/>
<path d="M30.4095 45.0167C30.424 45.0345 29.8717 45.5139 29.1757 46.0875C28.4796 46.6612 27.9036 47.1118 27.8888 47.094C27.8743 47.0763 28.4264 46.5969 29.1226 46.0231C29.8186 45.4495 30.3948 44.999 30.4095 45.0167Z" fill="#263238"/>
<path d="M28.8473 42.0226C28.8574 42.0434 27.4743 42.7304 25.7588 43.5571C24.0426 44.3842 22.6438 45.0376 22.6338 45.0168C22.6239 44.996 24.0065 44.3091 25.7226 43.4821C27.4382 42.6554 28.8374 42.0019 28.8473 42.0226Z" fill="#263238"/>
<path d="M28.2197 40.5291C28.2209 40.5347 28.1697 40.5496 28.0761 40.5717C27.9826 40.5941 27.8465 40.6221 27.6775 40.6533C27.3397 40.716 26.87 40.7872 26.3482 40.8397C25.8261 40.8917 25.3516 40.9149 25.0081 40.9205C24.8362 40.9233 24.6973 40.9229 24.6012 40.9193C24.5052 40.9163 24.4521 40.9118 24.4519 40.9061C24.4517 40.8939 24.6637 40.8822 25.0057 40.8616C25.3477 40.8409 25.8197 40.8086 26.3397 40.7568C26.8596 40.7046 27.3285 40.6427 27.6679 40.5952C28.0074 40.5477 28.2175 40.5171 28.2197 40.5291Z" fill="#263238"/>
<path d="M27.7132 37.082C27.7127 37.0877 27.613 37.0852 27.4332 37.0759C27.2398 37.066 26.9831 37.0527 26.6722 37.0368C26.0298 37.0056 25.1417 36.9764 24.1606 36.9812C23.1791 36.9868 22.2913 37.0256 21.6492 37.0637C21.3386 37.0831 21.0822 37.0989 20.8887 37.1109C20.7092 37.1223 20.6095 37.1258 20.6089 37.12C20.6084 37.1143 20.707 37.0999 20.8858 37.0786C21.0647 37.0568 21.3241 37.0312 21.645 37.0048C22.287 36.9517 23.1764 36.9034 24.1599 36.8976C25.1431 36.8927 26.033 36.9316 26.6754 36.9778C26.9967 37.0007 27.2564 37.0236 27.4354 37.0434C27.615 37.0629 27.7137 37.0762 27.7132 37.082Z" fill="#263238"/>
<path d="M28.028 34.0542C28.0217 34.0765 26.9857 33.8067 25.7142 33.4518C24.4422 33.0969 23.4164 32.7913 23.4225 32.7691C23.4288 32.7469 24.4646 33.0166 25.7366 33.3715C27.0081 33.7264 28.0342 34.0321 28.028 34.0542Z" fill="#263238"/>
<path d="M28.6977 31.5158C28.6967 31.5186 28.6708 31.5126 28.6222 31.4989C28.5644 31.4814 28.4946 31.4602 28.4105 31.4347C28.227 31.3781 27.9639 31.2885 27.6412 31.171C26.9958 30.9366 26.1159 30.5778 25.175 30.115C24.2343 29.651 23.4134 29.1723 22.834 28.8035C22.5442 28.6194 22.3129 28.4654 22.1561 28.3546C22.0846 28.3034 22.0254 28.261 21.9762 28.2259C21.9356 28.1958 21.9151 28.1787 21.9167 28.1763C21.9183 28.1739 21.942 28.1862 21.9855 28.212C22.0369 28.2435 22.099 28.2816 22.1738 28.3275C22.3359 28.4301 22.5718 28.5762 22.8649 28.7534C23.451 29.1086 24.2738 29.5778 25.2116 30.0402C26.1497 30.5014 27.0231 30.8678 27.6618 31.1158C27.9812 31.2402 28.2407 31.3381 28.4209 31.404C28.503 31.4354 28.571 31.4614 28.6273 31.4829C28.6745 31.5019 28.6986 31.5131 28.6977 31.5158Z" fill="#263238"/>
<path d="M30.204 28.964C30.1908 28.9829 29.3808 28.4352 28.3951 27.7411C27.409 27.0467 26.6207 26.4688 26.634 26.4499C26.6472 26.4311 27.457 26.9786 28.4431 27.673C29.4288 28.3672 30.2173 28.9453 30.204 28.964Z" fill="#263238"/>
<path d="M27.0196 21.1867C27.0215 21.1846 27.0423 21.2 27.0802 21.231C27.1248 21.2693 27.1784 21.3152 27.2429 21.3704C27.3922 21.5027 27.5911 21.679 27.8322 21.8926C28.3376 22.3437 29.0181 22.9507 29.7703 23.6217C30.5256 24.2896 31.2088 24.8939 31.7164 25.3425C31.957 25.5568 32.1556 25.7334 32.3045 25.8661C32.3669 25.9235 32.4188 25.9714 32.462 26.0112C32.4973 26.0451 32.5151 26.064 32.5132 26.0661C32.5112 26.0683 32.49 26.0537 32.4509 26.024C32.405 25.9873 32.3496 25.9435 32.2832 25.8907C32.1386 25.7736 31.9317 25.6017 31.6776 25.3872C31.1695 24.9582 30.4736 24.3581 29.7148 23.6841C28.9562 23.0102 28.2781 22.3904 27.7922 21.9363C27.5493 21.7093 27.354 21.524 27.2207 21.3944C27.1604 21.3347 27.1103 21.2849 27.0685 21.2435C27.0346 21.2083 27.0176 21.1888 27.0196 21.1867Z" fill="#263238"/>
<path d="M32.011 21.3321C32.0155 21.3285 32.054 21.3681 32.1198 21.4429C32.1857 21.5174 32.2779 21.6281 32.3892 21.767C32.6119 22.0446 32.9083 22.4376 33.215 22.8859C33.5217 23.3345 33.7804 23.7533 33.9583 24.0616C34.0475 24.2157 34.1171 24.3417 34.1627 24.4302C34.2084 24.5187 34.2315 24.5689 34.2265 24.5717C34.2159 24.5777 34.0985 24.3917 33.9081 24.0921C33.7177 23.7923 33.4519 23.3801 33.1463 22.9329C32.8406 22.4861 32.5529 22.0889 32.3425 21.8029C32.1323 21.5166 32.0015 21.3398 32.011 21.3321Z" fill="#263238"/>
<g opacity="0.2">
<path d="M25.6167 19.9716L32.5772 26.0662L34.3074 24.6817L30.2682 18.4924C30.2682 18.4924 29.9588 18.7201 29.1545 18.9499C28.3754 19.1726 26.0813 19.2321 25.6167 19.9716Z" fill="black"/>
</g>
<g opacity="0.2">
<path d="M33.3639 14.8162L36.7631 23.3237L38.9348 22.6432L38.2111 15.2645C38.2111 15.2645 37.837 15.352 37.0073 15.2466C36.2034 15.1443 34.2522 14.3814 33.3639 14.8162Z" fill="black"/>
</g>
<g opacity="0.3">
<path d="M42.4276 13.0347L42.6556 22.2734L44.6916 22.3712L46.7529 15.2805C46.7137 15.2769 46.1817 15.1849 45.5543 14.784C44.8492 14.3336 43.4137 12.9613 42.4276 13.0347Z" fill="black"/>
</g>
<g opacity="0.2">
<path d="M51.3038 14.7802L47.926 23.2973L49.7651 24.1765L54.4132 18.4387C54.3783 18.4203 53.9379 18.0534 53.5305 17.4008C53.0876 16.6909 52.3327 15.0645 51.3038 14.7802Z" fill="black"/>
</g>
<g opacity="0.2">
<path d="M59.2367 20.095L52.9452 26.6513L54.3474 28.5409L60.4946 24.438C60.4946 24.438 60.2364 24.0287 60.0903 23.2411C59.9423 22.4443 59.9209 20.9924 59.2367 20.095Z" fill="black"/>
</g>
<g opacity="0.2">
<path d="M64.2031 27.4963L55.7311 30.9832L56.434 33.1477L63.8048 32.3479C63.8048 32.3479 63.7588 32.12 63.8556 31.2891C63.9495 30.4842 64.7948 28.6864 64.2031 27.4963Z" fill="black"/>
</g>
<g opacity="0.2">
<path d="M66.0778 36.7258L56.8419 37.0492L56.7651 39.086L63.8107 41.1473C63.8138 41.1079 63.8767 40.71 64.0901 40.3063C64.6088 39.3253 66.0778 37.9423 66.0778 36.7258Z" fill="black"/>
</g>
<g opacity="0.2">
<path d="M64.3765 45.4593L55.8725 42.1448L55.0123 43.9928L60.7978 48.5814C60.8158 48.5464 61.1538 48.2333 61.8021 47.8192C62.5075 47.3689 64.1808 46.6416 64.3765 45.4593Z" fill="black"/>
</g>
<g opacity="0.2">
<path d="M51.8686 45.3275L49.7638 47.0941C49.9232 47.2608 52.7286 52.0285 54.4569 54.976C54.4808 54.9586 54.503 54.9382 54.5273 54.9218C55.6659 54.1595 57.6912 54.4651 58.8331 53.7114L51.8686 45.3275Z" fill="black"/>
<path d="M48.001 48.6689L44.8583 49.7405L46.3463 58.2723C46.4444 58.2381 46.5429 58.2099 46.6421 58.1902C48.124 57.8971 50.0775 59.1872 51.441 58.6217C51.6285 58.544 51.798 58.4328 51.956 58.3L48.001 48.6689Z" fill="black"/>
<path d="M42.2622 60.4155L42.7644 49.2697L40.0473 48.5814L38.0255 58.1779C38.0505 58.1819 38.0756 58.1853 38.1004 58.1901C39.5041 58.4678 40.7866 60.3265 42.2622 60.4155Z" fill="black"/>
<path d="M35.4303 47.3776C35.4303 47.3776 31.8398 52.1867 29.9626 54.7768C30.0505 54.8204 30.135 54.8683 30.2148 54.9217C31.4479 55.7473 31.9143 58.0465 33.3017 58.6217C33.3654 58.6481 33.4306 58.6692 33.4967 58.688L38.5126 49.1937L35.4303 47.3776Z" fill="black"/>
<path d="M31.7452 43.5052L24.0876 48.7685C24.1169 48.8064 24.1489 48.8429 24.1753 48.8824C25.0072 50.1249 24.5635 52.4265 25.6169 53.48C25.7139 53.5769 25.8243 53.6576 25.9406 53.7313C28.6465 50.6813 33.5041 45.207 33.6801 45.0168L31.7452 43.5052Z" fill="black"/>
<path d="M29.9904 39.7477L20.9368 41.2099C21.0809 42.6621 19.9363 44.4965 20.475 45.7955C20.508 45.875 20.548 45.9506 20.5916 46.0243C23.76 44.4469 30.3798 41.1654 30.6552 41.1474L29.9904 39.7477Z" fill="black"/>
<path d="M29.4967 34.7047L20.9381 32.2347C20.9309 32.3091 20.9215 32.3829 20.9071 32.4552C20.6226 33.8935 18.6775 35.2043 18.6775 36.7261C18.6775 36.8282 18.6869 36.9293 18.7032 37.0296H29.1501L29.4967 34.7047Z" fill="black"/>
<path d="M20.5099 27.5881C23.708 29.3022 29.9624 32.7692 29.9624 32.7692L31.5016 29.8462L24.2716 24.4028C24.2408 24.4593 24.2107 24.5166 24.1752 24.5694C23.3638 25.7814 21.1321 26.2548 20.5099 27.5881Z" fill="black"/>
</g>
<path d="M66.0646 36.7259C66.0646 36.7259 66.0606 36.6918 66.0545 36.6246C66.0459 36.5577 66.0489 36.4558 66.0123 36.327C65.9621 36.0659 65.8158 35.6907 65.5328 35.2544C65.2581 34.8123 64.8416 34.319 64.4073 33.6929C64.1957 33.3782 63.9755 33.0228 63.8579 32.5963C63.7406 32.1691 63.763 31.6881 63.855 31.2032C63.9433 30.7153 64.0888 30.2129 64.216 29.68C64.3336 29.1499 64.4603 28.5708 64.3421 27.9816C64.2792 27.6905 64.1409 27.4129 63.9445 27.1718C63.7459 26.9315 63.4965 26.7296 63.2329 26.5403C62.7019 26.1635 62.0918 25.8617 61.5073 25.4686C61.2168 25.2712 60.9281 25.0513 60.6909 24.7707C60.451 24.4908 60.2957 24.1419 60.1909 23.7809C59.9851 23.0534 59.9398 22.2747 59.7835 21.4969C59.7038 21.1099 59.5961 20.7164 59.3894 20.3676C59.1872 20.016 58.86 19.744 58.4781 19.5792C58.0969 19.41 57.6781 19.3224 57.2545 19.2521C56.8299 19.1824 56.3958 19.1329 55.9593 19.0555C55.5248 18.9774 55.0792 18.8744 54.6768 18.6516C54.272 18.4305 53.9557 18.075 53.6905 17.6964C53.4249 17.3148 53.1966 16.9052 52.9534 16.5009C52.7099 16.0979 52.4539 15.6926 52.1217 15.3481C51.7901 15.0068 51.3477 14.7612 50.8598 14.7292C50.3741 14.6931 49.8819 14.786 49.3968 14.9011C48.9104 15.0179 48.4235 15.16 47.919 15.2547C47.4189 15.3523 46.8809 15.3867 46.3739 15.2257C45.8744 15.0523 45.4339 14.7494 45.0086 14.4374C44.5827 14.124 44.1665 13.79 43.7102 13.5129C43.2563 13.2448 42.7381 13.0212 42.199 13.0817L42.099 13.0894C42.0661 13.095 42.0334 13.1036 42.0006 13.1105C41.9353 13.126 41.8689 13.138 41.8043 13.1563C41.6776 13.203 41.5475 13.2409 41.4265 13.3041C41.1781 13.4145 40.9467 13.5641 40.7173 13.7158C40.2616 14.0265 39.832 14.3833 39.3653 14.7003C39.1344 14.862 38.8872 15.004 38.6289 15.126C38.3677 15.2438 38.0838 15.3148 37.7957 15.3366C37.2165 15.3649 36.647 15.2342 36.0889 15.0934C35.5294 14.9532 34.9697 14.7926 34.3925 14.7372C34.1045 14.7131 33.8128 14.7252 33.5334 14.795C33.252 14.8627 33.0024 15.0225 32.7809 15.2084C32.3397 15.5936 32.0312 16.1116 31.7245 16.6211C31.4185 17.1334 31.128 17.6676 30.7216 18.1275C30.5166 18.3532 30.2795 18.5592 30.0017 18.6985C29.7241 18.8348 29.4281 18.926 29.1286 18.9968C28.5272 19.1288 27.9128 19.1852 27.3073 19.2948C26.7086 19.4036 26.0856 19.5739 25.6416 20.0041C25.428 20.2235 25.2784 20.498 25.1686 20.7865C25.0565 21.0755 24.9921 21.3828 24.9353 21.6908C24.8232 22.3081 24.7715 22.942 24.6219 23.5652C24.5507 23.8768 24.4437 24.1852 24.2814 24.4667C24.1189 24.748 23.8936 24.992 23.6401 25.1923C23.1345 25.5987 22.5595 25.8995 22.0102 26.2358C21.7363 26.4052 21.4657 26.5816 21.2168 26.7852C20.9717 26.9918 20.7489 27.2289 20.5963 27.5089C20.4416 27.7873 20.3709 28.1086 20.3734 28.431C20.3723 28.7536 20.4206 29.0766 20.4857 29.3964C20.6211 30.036 20.8241 30.6659 20.9325 31.3235C20.9889 31.651 21.0093 31.9899 20.9654 32.3246C20.9224 32.6604 20.7926 32.9796 20.6312 33.2732C20.2979 33.858 19.8627 34.3707 19.4769 34.9152C19.2821 35.186 19.1022 35.4684 18.9609 35.7689C18.8206 36.0684 18.7213 36.3913 18.7189 36.7222C18.7209 37.0531 18.8181 37.3764 18.9579 37.6764C19.0982 37.9776 19.2785 38.2598 19.4731 38.531C19.8585 39.076 20.2944 39.5883 20.6281 40.1731C20.7901 40.4665 20.9206 40.7852 20.9649 41.1212C21.0099 41.456 20.9899 41.7952 20.9334 42.1228C20.8259 42.7808 20.6224 43.411 20.487 44.0507C20.4219 44.3705 20.3729 44.6936 20.3734 45.0163C20.3699 45.3388 20.4411 45.6601 20.5945 45.9392C20.7464 46.2196 20.9689 46.4572 21.2139 46.6641C21.463 46.8676 21.7331 47.0446 22.0072 47.2141C22.5568 47.5505 23.1318 47.8515 23.6379 48.2574C23.8912 48.4579 24.1171 48.7012 24.2801 48.9824C24.443 49.2636 24.5499 49.5723 24.6214 49.8836C24.7715 50.5068 24.823 51.1411 24.935 51.7584C24.9917 52.0665 25.0561 52.3739 25.1681 52.663C25.2779 52.9515 25.4267 53.2267 25.6406 53.446C26.0841 53.8771 26.7073 54.0475 27.3061 54.1564C27.9117 54.2662 28.5262 54.3227 29.1278 54.4545C29.4275 54.5251 29.7233 54.6163 30.0011 54.7524C30.2789 54.892 30.5161 55.0977 30.7213 55.3235C31.1278 55.7833 31.4184 56.3177 31.7245 56.83C32.0313 57.3395 32.3398 57.8577 32.7811 58.243C33.0025 58.4289 33.2521 58.5888 33.5337 58.6566C33.8131 58.7264 34.1049 58.7385 34.3929 58.7144C34.9702 58.6588 35.5301 58.4982 36.0896 58.358C36.6478 58.2172 37.2173 58.0865 37.7966 58.115C38.0848 58.1369 38.3686 58.2081 38.6299 58.3259C38.8881 58.4481 39.1353 58.59 39.3662 58.7518C39.8329 59.0689 40.2625 59.4257 40.7184 59.7364C40.9478 59.8881 41.1792 60.0377 41.4278 60.148C41.5488 60.2113 41.679 60.2491 41.8057 60.2958C41.8705 60.3139 41.9368 60.326 42.0021 60.3416C42.0349 60.3484 42.0675 60.3572 42.1005 60.3627L42.2005 60.3704C42.7397 60.4307 43.2577 60.2065 43.7117 59.9385C44.168 59.6611 44.5841 59.3273 45.0101 59.0137C45.4355 58.7019 45.8758 58.3987 46.3757 58.2257C46.8829 58.0649 47.4206 58.0998 47.9209 58.1976C48.4254 58.2923 48.9123 58.4345 49.3987 58.5513C49.884 58.6662 50.3761 58.759 50.8619 58.7227C51.3496 58.6899 51.792 58.4443 52.1233 58.1025C52.4553 57.7579 52.7113 57.3524 52.9547 56.9494C53.1979 56.5451 53.4262 56.1356 53.6918 55.7539C53.9573 55.3755 54.2737 55.0201 54.6789 54.7993C55.0814 54.5769 55.5272 54.4744 55.9616 54.3963C56.3981 54.3188 56.8321 54.2694 57.2568 54.1996C57.6803 54.1292 58.0992 54.0416 58.4801 53.8721C58.8619 53.707 59.1889 53.4345 59.3909 53.0827C59.5973 52.7337 59.7048 52.3405 59.7843 51.9532C59.9405 51.1755 59.9857 50.3966 60.1918 49.6694C60.2965 49.3084 60.4523 48.9596 60.6925 48.68C60.9299 48.3995 61.2185 48.1798 61.5093 47.9825C62.0939 47.5896 62.7038 47.2876 63.2347 46.9108C63.4982 46.7216 63.7473 46.5193 63.9459 46.2792C64.1422 46.0379 64.2801 45.7601 64.3427 45.4691C64.4109 45.1779 64.3933 44.8808 64.3672 44.5972C64.339 44.312 64.2752 44.038 64.2161 43.7708C64.0888 43.238 63.9435 42.7356 63.8552 42.248C63.7633 41.763 63.7413 41.282 63.8585 40.855C63.9763 40.4286 64.1965 40.0732 64.4081 39.7585C64.8424 39.1326 65.2589 38.6395 65.5334 38.1974C65.8165 37.7611 65.9627 37.386 66.0128 37.1249C66.0494 36.9961 66.0464 36.8942 66.0549 36.8275C66.0606 36.76 66.0646 36.7259 66.0646 36.7259C66.0646 36.7259 66.0633 36.76 66.0589 36.8273C66.0517 36.8944 66.0561 36.9968 66.0208 37.1264C65.9733 37.3891 65.8288 37.7672 65.5473 38.206C65.2742 38.6507 64.8592 39.1465 64.4283 39.7721C64.2184 40.0865 64.0006 40.4409 63.8859 40.862C63.7715 41.2835 63.7941 41.7592 63.8869 42.2419C63.976 42.7272 64.1222 43.2284 64.251 43.7622C64.3107 44.0302 64.3753 44.3049 64.4046 44.5928C64.4315 44.8788 64.4502 45.1793 64.3814 45.4769C64.3182 45.7742 64.1773 46.0593 63.9777 46.3051C63.7761 46.5499 63.5245 46.7547 63.2593 46.9457C62.7254 47.3259 62.1152 47.6291 61.5349 48.0208C61.2464 48.2172 60.9613 48.4353 60.7291 48.7105C60.4947 48.9843 60.3427 49.3254 60.2395 49.6828C60.0363 50.4027 59.9918 51.1804 59.836 51.9635C59.7563 52.3534 59.6485 52.7521 59.4374 53.1102C59.2312 53.4715 58.8918 53.7547 58.5027 53.923C58.1141 54.0963 57.6912 54.1849 57.2659 54.2561C56.8395 54.3268 56.4056 54.3768 55.9718 54.4542C55.5398 54.5321 55.0997 54.6348 54.7078 54.8521C54.3145 55.0668 54.0051 55.4137 53.7422 55.7892C53.4793 56.1675 53.2518 56.5761 53.0085 56.9817C52.7646 57.3862 52.5073 57.7953 52.1689 58.1475C51.8326 58.4969 51.3694 58.7545 50.8675 58.788C50.3686 58.8257 49.8707 58.7312 49.383 58.6163C48.8945 58.4993 48.4081 58.3579 47.9085 58.2644C47.412 58.1678 46.8872 58.1358 46.3971 58.2915C45.9112 58.46 45.4752 58.759 45.0517 59.0704C44.6272 59.3832 44.2102 59.7184 43.7483 59.9996C43.6293 60.064 43.5157 60.1385 43.3901 60.1921C43.3281 60.2203 43.2673 60.2515 43.2043 60.2774L43.0107 60.346C42.7499 60.4252 42.4709 60.4785 42.1937 60.4424L42.0897 60.4342C42.0555 60.4288 42.0219 60.4196 41.988 60.4126C41.9205 60.3968 41.8518 60.3841 41.7849 60.3654C41.6549 60.3177 41.5206 60.2785 41.3973 60.2142C41.143 60.1014 40.9089 59.95 40.6771 59.7971C40.2176 59.4841 39.7872 59.1272 39.3245 58.8132C39.0953 58.6528 38.852 58.5136 38.5993 58.394C38.344 58.2793 38.0715 58.2115 37.7917 58.19C37.2285 58.1625 36.6648 58.2908 36.108 58.4318C35.5499 58.5716 34.9875 58.734 34.3993 58.7908C34.1056 58.8155 33.8048 58.8038 33.5136 58.7312C33.2195 58.6603 32.9584 58.4936 32.7302 58.3017C32.2753 57.9043 31.9653 57.3806 31.6569 56.87C31.3505 56.3571 31.0603 55.8257 30.6624 55.3763C30.4614 55.1555 30.2333 54.958 29.9649 54.8232C29.6957 54.6913 29.4056 54.6017 29.1101 54.5321C28.5157 54.4019 27.9021 54.3454 27.2913 54.2352C26.987 54.1763 26.6798 54.1134 26.3867 53.9974C26.0942 53.8843 25.812 53.7275 25.583 53.5027C25.3587 53.2728 25.2046 52.987 25.092 52.6913C24.9773 52.3947 24.9121 52.0833 24.8549 51.7726C24.7419 51.1504 24.6901 50.5172 24.5417 49.9027C24.4712 49.5953 24.3662 49.2944 24.2091 49.0233C24.052 48.7526 23.8349 48.5177 23.5857 48.3206C23.0893 47.9222 22.5163 47.6217 21.9638 47.284C21.688 47.1134 21.4149 46.9348 21.1608 46.7273C20.9107 46.5161 20.6803 46.2713 20.5214 45.9781C20.3606 45.6862 20.2867 45.348 20.2904 45.0169C20.2897 44.6849 20.3398 44.3564 20.4056 44.0334C20.5424 43.3881 20.7453 42.7585 20.8512 42.1096C20.9069 41.7862 20.9256 41.4553 20.8824 41.1324C20.8398 40.8092 20.7144 40.5019 20.5553 40.2134C20.2277 39.6388 19.7934 39.1275 19.4051 38.5788C19.2093 38.3059 19.0262 38.0196 18.8824 37.7113C18.7392 37.4041 18.6376 37.0688 18.6355 36.7219C18.6381 36.3748 18.7417 36.0401 18.8854 35.7336C19.0301 35.4259 19.2128 35.1396 19.4089 34.867C19.7976 34.319 20.2312 33.8075 20.5584 33.2328C20.7169 32.9441 20.8416 32.6366 20.883 32.3134C20.9253 31.9907 20.9062 31.6598 20.8504 31.3366C20.7438 30.688 20.5411 30.0585 20.4046 29.4134C20.339 29.0904 20.2894 28.7619 20.2907 28.43C20.2878 28.0992 20.3614 27.7608 20.5235 27.4696C20.6832 27.1769 20.9139 26.9324 21.1641 26.7217C21.4181 26.514 21.6915 26.336 21.9672 26.1656C22.5193 25.8278 23.0923 25.5275 23.5883 25.1288C23.8374 24.9318 24.0541 24.6964 24.2107 24.4256C24.3672 24.1542 24.4723 23.8534 24.5425 23.546C24.6904 22.9316 24.7424 22.2987 24.8553 21.6766C24.9128 21.366 24.9779 21.0547 25.0928 20.7582C25.2054 20.4625 25.3601 20.1772 25.5843 19.9473C25.8136 19.7228 26.096 19.5665 26.3885 19.4536C26.6816 19.3379 26.9886 19.2748 27.2929 19.2161C27.9035 19.1059 28.5168 19.0496 29.1112 18.9192C29.4067 18.8496 29.6966 18.76 29.9657 18.628C30.2341 18.4932 30.4619 18.2955 30.6629 18.0748C31.0606 17.6256 31.3509 17.0942 31.6571 16.5812C31.9653 16.0707 32.2755 15.5472 32.7302 15.1499C32.9584 14.9582 33.2195 14.7915 33.5136 14.7206C33.8046 14.648 34.1054 14.6363 34.3992 14.6609C34.9872 14.7177 35.5496 14.8801 36.1075 15.02C36.6643 15.1609 37.2278 15.2892 37.791 15.2619C38.0707 15.2404 38.3432 15.1728 38.5985 15.058C38.851 14.9387 39.0944 14.7995 39.3237 14.639C39.7864 14.3251 40.2166 13.9683 40.6761 13.6553C40.9078 13.5022 41.1419 13.351 41.3961 13.2382C41.5195 13.1739 41.6536 13.1345 41.7837 13.0868C41.8504 13.068 41.919 13.0555 41.9865 13.0395C42.0205 13.0323 42.0542 13.0235 42.0883 13.0177L42.1923 13.0096C42.4694 12.9732 42.7485 13.0265 43.0093 13.1054L43.2029 13.174C43.2661 13.1998 43.3267 13.231 43.3888 13.2592C43.5144 13.3128 43.6281 13.3872 43.747 13.4515C44.2091 13.7326 44.6259 14.0678 45.0504 14.3806C45.4737 14.6921 45.9097 14.991 46.3955 15.1598C46.8854 15.3156 47.4102 15.2841 47.9067 15.1875C48.4064 15.094 48.8928 14.9528 49.3813 14.8356C49.8688 14.7208 50.3667 14.626 50.8656 14.6635C51.3675 14.696 51.8307 14.9537 52.1675 15.3025C52.5061 15.6545 52.7635 16.0636 53.0073 16.4681C53.2507 16.8737 53.4782 17.2824 53.7409 17.6606C54.0035 18.0363 54.3129 18.3833 54.7059 18.5984C55.0976 18.8158 55.5377 18.919 55.9696 18.9969C56.4033 19.0744 56.8374 19.1243 57.2637 19.1948C57.6889 19.266 58.1118 19.3545 58.5006 19.5275C58.8897 19.6955 59.2296 19.9784 59.4361 20.3393C59.6475 20.6972 59.7555 21.096 59.8352 21.4857C59.9913 22.2688 60.0357 23.0464 60.2385 23.7665C60.3419 24.124 60.4936 24.4652 60.7277 24.7392C60.9598 25.0145 61.2448 25.2328 61.5331 25.4294C62.1133 25.8212 62.7237 26.1243 63.2576 26.5044C63.5227 26.6955 63.7745 26.9 63.9761 27.1449C64.1758 27.3905 64.3171 27.6755 64.3805 27.9728C64.4496 28.2704 64.4309 28.571 64.4041 28.8571C64.375 29.1449 64.3105 29.4198 64.2507 29.6876C64.1219 30.2216 63.9757 30.7228 63.8865 31.2081C63.7937 31.6908 63.7709 32.1665 63.8853 32.5881C64 33.0094 64.2176 33.3638 64.4275 33.6784C64.8584 34.3041 65.2736 34.8 65.5467 35.2448C65.8281 35.6836 65.9728 36.0619 66.0203 36.3246C66.0557 36.4542 66.0512 36.5566 66.0584 36.6236C66.0635 36.6918 66.0646 36.7259 66.0646 36.7259Z" fill="#263238"/>
<path d="M37.9268 58.7133C37.949 58.7189 37.3584 61.1134 36.6077 64.0608C35.8568 67.0091 35.2301 69.3939 35.2079 69.3881C35.1856 69.3824 35.776 66.9885 36.5269 64.0401C37.2776 61.0929 37.9045 58.7077 37.9268 58.7133Z" fill="#263238"/>
<path d="M42.3708 51.2501C50.3923 51.2501 56.895 44.7474 56.895 36.7259C56.895 28.7045 50.3923 22.2018 42.3708 22.2018C34.3494 22.2018 27.8467 28.7045 27.8467 36.7259C27.8467 44.7474 34.3494 51.2501 42.3708 51.2501Z" fill="white"/>
<path d="M33.428 31.6933C33.2277 31.8936 32.1263 33.8962 32.0261 35.5484C31.926 37.2005 32.1634 46.4792 32.1634 46.4792L32.2063 47.0941C34.8212 50.1519 44.3245 54.702 52.885 47.0788L53.3647 41.3719L51.9522 29.2903L47.0458 28.0887L45.8952 26.2239L38.2272 28.0191L37.5434 29.6359L33.428 31.6933Z" fill="#455A64"/>
<path d="M45.3635 21.3657C45.7011 20.1105 46.0333 18.8464 46.1501 17.5518C46.2667 16.2573 46.1587 14.9197 45.6438 13.7262C45.5657 13.5453 44.9176 12.3381 44.7227 12.3673C44.5833 12.3885 45.0029 13.5241 44.9384 13.6494C44.3227 14.8441 44.211 16.2486 44.3878 17.5808C44.5646 18.9133 44.9049 20.1025 45.3635 21.3657Z" fill="#263238"/>
<path d="M45.2339 16.4067C45.172 13.1475 43.2237 10.4671 39.9675 10.6192L39.6673 10.6507C36.6473 10.9691 34.3769 13.5523 34.4515 16.5883C34.5208 19.4128 34.6337 22.5328 34.8107 24.0335C35.1769 27.1399 38.3392 27.2957 38.3392 27.2957C38.3462 27.2954 38.4841 29.3387 38.4841 29.3387L39.8205 30.7904L46.0142 26.9541L45.2339 16.4067Z" fill="#FFBF9D"/>
<path d="M38.34 27.3198C38.34 27.3198 40.3128 27.2281 42.2638 25.6954C42.2638 25.6954 41.6104 28.513 38.4769 28.5601L38.34 27.3198Z" fill="#FF9A6C"/>
<path d="M36.2414 19.1221C36.2577 19.3575 36.4708 19.5378 36.7169 19.5251C36.9627 19.5125 37.149 19.3119 37.1326 19.0763C37.1161 18.841 36.9033 18.6603 36.6575 18.673C36.4113 18.6856 36.2249 18.8867 36.2414 19.1221Z" fill="#263238"/>
<path d="M35.2534 17.8093C35.3145 17.8615 35.6248 17.5768 36.103 17.5277C36.5798 17.4717 36.9566 17.6807 37.0024 17.6167C37.0251 17.5882 36.9579 17.4895 36.7936 17.3943C36.6315 17.2994 36.3636 17.2188 36.066 17.2514C35.7686 17.2845 35.5296 17.4204 35.3974 17.5479C35.2622 17.6762 35.2235 17.7863 35.2534 17.8093Z" fill="#263238"/>
<path d="M40.4695 18.7633C40.486 18.9987 40.6989 19.179 40.9452 19.1664C41.1909 19.1537 41.3773 18.9531 41.3609 18.7176C41.3444 18.4822 41.1314 18.3017 40.8857 18.3142C40.6394 18.327 40.4532 18.528 40.4695 18.7633Z" fill="#263238"/>
<path d="M39.9599 17.5091C40.0212 17.5611 40.3319 17.2767 40.8098 17.2275C41.2866 17.1717 41.6634 17.3805 41.7092 17.3165C41.7317 17.2879 41.6653 17.1893 41.5002 17.0943C41.3383 16.9992 41.0703 16.9186 40.7727 16.9512C40.4751 16.9843 40.2362 17.1203 40.104 17.2477C39.9693 17.376 39.9303 17.4861 39.9599 17.5091Z" fill="#263238"/>
<path d="M38.6248 21.3631C38.6242 21.3357 38.3216 21.3156 37.8336 21.3048C37.7102 21.3052 37.5922 21.293 37.5627 21.2119C37.5246 21.1268 37.5619 20.9898 37.6061 20.8415C37.6898 20.5341 37.7773 20.2117 37.869 19.874C38.2309 18.4978 38.479 17.3714 38.4235 17.3573C38.3678 17.3432 38.0296 18.4472 37.6678 19.8234C37.5816 20.1624 37.499 20.4856 37.4206 20.7949C37.3891 20.9384 37.3262 21.1042 37.4078 21.2807C37.4502 21.3685 37.5469 21.4252 37.6274 21.4381C37.7082 21.4536 37.777 21.4479 37.8378 21.445C38.3251 21.4199 38.6259 21.3904 38.6248 21.3631Z" fill="#263238"/>
<path d="M40.0702 21.5453C39.9919 21.549 40.0455 22.068 39.6402 22.4831C39.2359 22.8992 38.6767 22.8992 38.6802 22.9722C38.6766 23.0055 38.814 23.06 39.0482 23.0418C39.278 23.0255 39.6047 22.9165 39.8527 22.6627C40.0998 22.4082 40.1846 22.0947 40.1798 21.88C40.1767 21.661 40.1052 21.5386 40.0702 21.5453Z" fill="#263238"/>
<path d="M39.7777 15.5666C39.8385 15.6918 40.3094 15.5798 40.8772 15.5882C41.4454 15.5854 41.915 15.7018 41.9771 15.5775C42.0043 15.5183 41.9126 15.4042 41.7164 15.2977C41.522 15.1911 41.2203 15.1022 40.8795 15.1002C40.539 15.099 40.2363 15.1849 40.0407 15.2895C39.8438 15.394 39.751 15.5071 39.7777 15.5666Z" fill="#263238"/>
<path d="M35.2831 16.1995C35.3786 16.2992 35.6961 16.1518 36.0914 16.1048C36.485 16.044 36.8303 16.1006 36.8956 15.9789C36.9236 15.9203 36.8593 15.8171 36.702 15.7298C36.5468 15.6426 36.2964 15.5843 36.0252 15.6213C35.754 15.6586 35.5287 15.7818 35.4026 15.9077C35.2746 16.0338 35.2406 16.1504 35.2831 16.1995Z" fill="#263238"/>
<path d="M45.2235 18.7368C45.2741 18.7083 47.2942 17.8793 47.4504 20.0131C47.6066 22.1469 45.4321 21.8635 45.424 21.8027C45.4158 21.7417 45.2235 18.7368 45.2235 18.7368Z" fill="#FFBF9D"/>
<path d="M46.0193 20.9467C46.0281 20.9392 46.0586 20.9699 46.1234 20.994C46.1867 21.0177 46.2934 21.0292 46.4016 20.9795C46.6209 20.8803 46.7846 20.5086 46.7667 20.1232C46.7579 19.9286 46.7037 19.7467 46.6237 19.5987C46.547 19.4473 46.4381 19.3457 46.3232 19.3337C46.2083 19.316 46.133 19.3897 46.1114 19.4516C46.0872 19.5134 46.1038 19.555 46.0926 19.5595C46.087 19.5652 46.0443 19.5272 46.0549 19.4377C46.0606 19.3947 46.0819 19.3425 46.1291 19.2979C46.1773 19.2526 46.251 19.2257 46.3307 19.2286C46.4962 19.228 46.6554 19.3684 46.7432 19.531C46.8403 19.6937 46.9058 19.8977 46.9157 20.1164C46.9334 20.5473 46.7427 20.9659 46.4408 21.0776C46.2936 21.1278 46.1651 21.0916 46.0968 21.046C46.0269 20.9979 46.0121 20.951 46.0193 20.9467Z" fill="#FF9A6C"/>
<path d="M35.6034 12.9624C35.2456 12.7941 36.2106 11.6083 37.0349 11.1683C38.2808 10.5034 40.2175 10.0187 41.4224 10.2782C42.873 10.5904 44.1023 11.2232 44.901 12.4738C45.6997 13.7243 46.0658 15.2179 46.1196 16.7008C46.1359 17.1533 46.1194 17.6272 45.9028 18.0246C45.6349 18.5158 45.0818 18.8501 45.1488 19.4995C45.1733 19.737 45.1208 19.9814 44.969 20.1656C44.6052 20.6064 44.1021 20.2466 43.8572 19.8693C43.334 19.0632 43.2175 18.0682 43.1146 17.1128C43.0413 16.4338 42.969 15.74 43.1189 15.0736C43.2004 14.711 43.3466 14.364 43.4079 13.9974C43.4692 13.6309 43.4319 13.2218 43.188 12.9413C43.1484 12.8957 43.084 12.839 43.0032 12.777C42.3645 12.2859 41.5079 12.1818 40.7672 12.4987C39.5924 13.0014 37.58 13.769 37.0175 13.3954C36.2082 12.8581 35.9991 12.4872 35.9991 12.4872L35.6034 12.9624Z" fill="#263238"/>
<path d="M33.4271 31.6932C33.3034 31.8644 31.5545 32.4449 30.8911 33.5502C30.2278 34.6555 29.5713 39.6188 29.5713 39.6188L29.149 42.8862C29.981 44.2024 31.0969 45.9448 32.281 47.1737L33.4271 31.6932Z" fill="#455A64"/>
<g opacity="0.3">
<path d="M46.567 36.4852C46.6406 37.1511 46.7158 37.8244 46.9449 38.454C47.1741 39.0836 47.5757 39.675 48.1619 39.9991C48.4075 40.135 48.6845 40.2246 48.8899 40.4156C49.1107 40.6209 49.2219 40.9187 49.4217 41.1444C49.6542 41.407 49.9889 41.5532 50.3195 41.6702C51.2977 42.0166 52.2614 42.182 53.2987 42.1447C53.3301 41.8023 53.3323 40.5444 53.3637 40.202L46.567 36.4852Z" fill="black"/>
</g>
<path d="M51.9513 29.29C51.9513 29.29 54.1565 29.9422 54.8023 30.8816C55.4482 31.8211 56.5932 35.4617 56.8281 36.1369C57.0629 36.8121 56.8575 38.3779 56.417 39.5035C55.9767 40.6289 55.2124 41.5979 53.8917 41.7446C52.5709 41.8913 50.485 41.128 50.0159 40.6289C49.5469 40.1297 49.3505 39.0096 49.3505 39.0096C49.9369 38.9065 50.5159 38.7612 51.0815 38.5753" fill="#455A64"/>
<path d="M51.082 38.5753C51.0823 38.5763 51.073 38.5803 51.0544 38.5873C51.0325 38.5952 51.0055 38.6049 50.9712 38.6173C50.8973 38.6425 50.7871 38.6792 50.6416 38.723C50.3508 38.8102 49.9186 38.9283 49.3548 39.031L49.3725 39.0057C49.422 39.2552 49.4932 39.5289 49.5976 39.8149C49.6501 39.9576 49.7106 40.1043 49.7885 40.2475C49.8666 40.3897 49.9578 40.5344 50.084 40.6497C50.2104 40.7646 50.3666 40.8581 50.5301 40.9438C50.6928 41.0321 50.8682 41.1081 51.049 41.1822C51.4119 41.3285 51.8044 41.4544 52.2205 41.5531C52.6367 41.6494 53.0788 41.7208 53.5364 41.7222C53.6509 41.7273 53.7652 41.712 53.8808 41.7062C53.9949 41.6873 54.1117 41.6769 54.2247 41.6448C54.4535 41.5929 54.6781 41.5075 54.8872 41.3878C55.3093 41.1534 55.6669 40.7897 55.9383 40.3617C56.2133 39.9347 56.4144 39.4501 56.5629 38.9437C56.678 38.5547 56.7626 38.1614 56.8176 37.7704C56.8735 37.3797 56.9008 36.9893 56.8751 36.6101C56.8604 36.419 56.825 36.24 56.7605 36.0624C56.701 35.8832 56.6421 35.7057 56.5837 35.5301C56.4664 35.1793 56.3517 34.836 56.2397 34.5009C56.0127 33.8321 55.7887 33.1993 55.5642 32.6133C55.3356 32.0301 55.1223 31.4814 54.8551 31.0235C54.7247 30.7933 54.5461 30.6126 54.3572 30.4664C54.1717 30.316 53.9792 30.1961 53.7964 30.0904C53.4285 29.8813 53.0941 29.7329 52.8191 29.6177C52.5434 29.5035 52.3256 29.4238 52.1773 29.3713C52.1063 29.3464 52.0504 29.3267 52.0085 29.312C51.9706 29.2985 51.9511 29.2913 51.9516 29.2899C51.9519 29.2886 51.9722 29.2929 52.0111 29.3038C52.0536 29.3166 52.1104 29.3337 52.1826 29.3553C52.3328 29.4027 52.5528 29.4776 52.8311 29.5877C53.1088 29.6985 53.4464 29.843 53.8192 30.0497C54.0047 30.1544 54.2 30.2734 54.3901 30.4248C54.5823 30.5704 54.7704 30.7581 54.9055 30.9928C55.1807 31.4571 55.3964 32.004 55.6287 32.5881C55.8565 33.1745 56.0832 33.8073 56.3124 34.476C56.4253 34.8109 56.541 35.1542 56.6592 35.5048C56.7178 35.6801 56.777 35.8573 56.8368 36.0361C56.9021 36.2136 56.9421 36.4107 56.9564 36.6035C56.9832 36.9921 56.9557 37.3869 56.8996 37.7819C56.8442 38.1773 56.7591 38.5741 56.6428 38.9673C56.4927 39.4793 56.2887 39.971 56.0077 40.4065C55.7306 40.8429 55.3626 41.2171 54.9266 41.4581C54.7106 41.5811 54.4784 41.6688 54.2429 41.7216C54.1263 41.7542 54.0064 41.7649 53.8892 41.7838C53.7706 41.7896 53.653 41.8048 53.5364 41.7993C53.0696 41.7965 52.6234 41.7224 52.2037 41.6237C51.784 41.5224 51.3893 41.3936 51.0237 41.2441C50.8415 41.1683 50.6648 41.0905 50.5 41C50.3344 40.9115 50.1765 40.8165 50.0429 40.6937C49.91 40.5702 49.8176 40.4203 49.7388 40.2742C49.6602 40.127 49.6004 39.9779 49.5484 39.8329C49.4452 39.5424 49.3765 39.267 49.3293 39.0136L49.3253 38.992L49.3471 38.9883C49.9101 38.8921 50.3428 38.7811 50.6351 38.7011C50.7775 38.6605 50.888 38.6289 50.9676 38.6064C51.0024 38.5963 51.0301 38.5885 51.0525 38.5821C51.0719 38.5766 51.0816 38.5744 51.082 38.5753Z" fill="#263238"/>
<path d="M55.1271 37.3964C55.1108 37.4003 55.0607 37.1249 54.8754 36.7188C54.6946 36.3132 54.3695 35.7772 53.8804 35.3062C53.6369 35.0696 53.3661 34.8897 53.1071 34.7556C53.0405 34.7259 52.9756 34.6968 52.9122 34.6684C52.8492 34.6393 52.7826 34.6272 52.721 34.6064C52.5981 34.5614 52.4772 34.5507 52.3679 34.5334C52.3407 34.5292 52.314 34.5251 52.2877 34.5211C52.2617 34.5212 52.2361 34.5212 52.2109 34.5212C52.1618 34.5212 52.1148 34.5212 52.07 34.5214C51.9812 34.516 51.9066 34.5321 51.845 34.5409C51.7218 34.5588 51.6522 34.5664 51.6508 34.5608C51.6493 34.5552 51.7161 34.5371 51.8396 34.5089C51.9013 34.495 51.9769 34.4739 52.0674 34.4748C52.1133 34.4728 52.1615 34.4705 52.2119 34.4683C52.2377 34.4673 52.2641 34.4662 52.2909 34.4651C52.318 34.4683 52.3455 34.4713 52.3737 34.4747C52.4866 34.4884 52.6121 34.4966 52.7397 34.5398C52.8036 34.5596 52.873 34.5713 52.9383 34.6C53.0041 34.6281 53.0716 34.6569 53.1407 34.6865C53.4095 34.8204 53.6892 35.004 53.9378 35.2457C54.4377 35.7272 54.7599 36.2779 54.9295 36.6952C54.973 36.7995 55.0106 36.8945 55.0346 36.9812C55.0609 37.0672 55.086 37.1401 55.0961 37.2028C55.1215 37.3268 55.1327 37.3953 55.1271 37.3964Z" fill="#263238"/>
<path d="M56.3302 35.4181C56.3122 35.4252 56.2521 35.1348 55.9977 34.7466C55.7486 34.365 55.2722 33.886 54.5925 33.6829C53.9155 33.4769 53.2584 33.5405 52.7995 33.5845C52.5811 33.6106 52.3974 33.6327 52.2512 33.6501C52.1216 33.666 52.0494 33.6725 52.0485 33.6668C52.0475 33.6612 52.1179 33.6439 52.2461 33.6181C52.3742 33.5927 52.5605 33.5585 52.7923 33.5261C53.2515 33.4674 53.9181 33.3914 54.6171 33.6034C54.9637 33.7089 55.2682 33.8863 55.5062 34.0892C55.7472 34.2901 55.9225 34.5153 56.0473 34.7151C56.1718 34.9161 56.243 35.0948 56.2825 35.2201C56.3229 35.345 56.3344 35.4172 56.3302 35.4181Z" fill="#263238"/>
<path d="M54.6683 33.0508C54.6625 33.078 54.0877 32.8929 53.3576 32.9253C52.6269 32.9501 52.0686 33.1799 52.0606 33.1532C52.0569 33.1442 52.1905 33.0754 52.4217 33.0018C52.6523 32.9279 52.9832 32.8572 53.3542 32.842C53.7253 32.8279 54.0605 32.8725 54.2963 32.9281C54.5326 32.9834 54.6713 33.0417 54.6683 33.0508Z" fill="#263238"/>
<path d="M51.1002 29.8405C51.1133 29.8425 51.0815 30.0654 51.0557 30.4267C51.0299 30.7878 51.0179 31.2891 51.0675 31.8389C51.1128 32.3677 51.2085 32.8416 51.293 33.1864L51.2352 33.2049C51.1698 33.02 51.1183 32.8699 51.0845 32.7654C51.0507 32.6609 51.0347 32.6021 51.0403 32.6C51.0459 32.5979 51.0727 32.6526 51.116 32.7536C51.1594 32.8545 51.2195 33.0014 51.292 33.1837L51.2343 33.2022C51.1354 32.8585 51.0301 32.3808 50.9845 31.8464C50.9344 31.2907 50.956 30.784 50.997 30.4216C51.0171 30.2403 51.0408 30.0944 51.0605 29.9944C51.0807 29.8942 51.0946 29.8395 51.1002 29.8405Z" fill="#263238"/>
<path d="M47.9822 25.7354C47.9822 25.7354 46.8376 25.7354 46.6941 27.1109C46.5838 28.1667 46.6941 29.1918 46.6941 29.6542C46.6941 30.1166 46.4904 31.761 46.4904 31.761C46.4904 31.761 45.7094 32.4538 45.7227 33.2859C45.736 34.1221 46.3307 34.3778 46.3307 34.3778C46.3307 34.3778 45.9673 35.1706 46.6609 35.8971C46.6609 35.8971 46.3283 36.6642 46.6017 37.1806C46.8134 37.5805 47.2885 37.7139 47.2885 37.7139C47.2885 37.7139 46.9501 38.4698 47.7622 38.7875C48.2422 38.9754 48.9518 38.9336 48.9518 38.9336L49.8059 38.9171L50.5587 39.3325C50.5587 39.3325 51.8469 38.7709 51.88 38.0112C51.9129 37.2515 51.9129 37.2515 51.9129 37.2515C51.9129 37.2515 51.5496 35.9963 51.5166 35.6C51.4837 35.2037 51.8139 34.2458 51.6157 33.8163C51.4174 33.3869 50.7238 33.1346 50.7899 32.5341C50.856 31.9336 50.7238 31.6032 50.4265 31.273C50.1293 30.9427 48.8153 30.2821 48.8153 30.2821C48.8153 30.2821 48.4776 29.3242 48.4776 28.6635C48.4777 28.0027 49.1384 25.9878 47.9822 25.7354Z" fill="#FFBF9D"/>
<path d="M48.7537 30.5323C48.7594 30.5423 48.6378 30.6202 48.4369 30.738C48.2357 30.8557 47.9551 31.0133 47.6426 31.1831C47.33 31.3528 47.0447 31.5024 46.8364 31.6069C46.6281 31.7114 46.4962 31.7711 46.4908 31.761C46.4853 31.7509 46.6069 31.673 46.8081 31.5552C47.0092 31.4375 47.2897 31.2799 47.6021 31.1103C47.9145 30.9407 48.1994 30.7912 48.4079 30.6866C48.6161 30.5821 48.7479 30.5223 48.7537 30.5323Z" fill="#FF9A6C"/>
<path d="M49.5052 33.1185C49.5085 33.1232 49.4728 33.1547 49.4053 33.208C49.3381 33.2617 49.2365 33.3337 49.1074 33.4174C48.8495 33.5851 48.4741 33.7901 48.0348 33.9589C47.5949 34.1267 47.1784 34.2248 46.8746 34.2723C46.7226 34.2963 46.5989 34.3105 46.513 34.3153C46.4272 34.3209 46.3796 34.3213 46.3789 34.3155C46.3775 34.3022 46.5653 34.2766 46.8639 34.2144C47.1624 34.1526 47.5708 34.0469 48.005 33.8811C48.4388 33.7145 48.8133 33.5206 49.0768 33.3672C49.3404 33.2141 49.4973 33.1078 49.5052 33.1185Z" fill="#FF9A6C"/>
<path d="M50.4878 32.296C50.5086 32.3032 50.4657 32.4501 50.33 32.5727C50.1953 32.6963 50.0451 32.7253 50.0398 32.704C50.0318 32.6813 50.1542 32.6218 50.2739 32.5111C50.3952 32.4024 50.4659 32.2859 50.4878 32.296Z" fill="#FF9A6C"/>
<path d="M50.0169 35.3841C50.0203 35.3939 49.8395 35.4673 49.538 35.5593C49.2367 35.6515 48.8134 35.7576 48.3382 35.8344C47.8627 35.9105 47.4273 35.9425 47.1124 35.9496C46.7974 35.9568 46.6027 35.9438 46.6027 35.9334C46.6027 35.9208 46.7969 35.9129 47.1095 35.8907C47.4222 35.8688 47.8531 35.8277 48.3249 35.7521C48.7964 35.676 49.2185 35.5798 49.5222 35.5025C49.826 35.4256 50.0129 35.3721 50.0169 35.3841Z" fill="#FF9A6C"/>
<path d="M51.0621 35.1938C51.0507 35.1869 51.1009 35.0996 51.1499 34.9489C51.1993 34.7991 51.2408 34.5805 51.2125 34.3425C51.184 34.1042 51.0921 33.9015 51.0088 33.7677C50.9256 33.6327 50.8563 33.5597 50.8657 33.5503C50.8721 33.5429 50.9576 33.6018 51.0576 33.7346C51.1574 33.8657 51.2648 34.078 51.2952 34.3327C51.3256 34.5873 51.2712 34.8189 51.2051 34.9697C51.1392 35.1221 51.0701 35.1994 51.0621 35.1938Z" fill="#FF9A6C"/>
<path d="M50.0753 37.7001C50.0774 37.7104 49.9234 37.7537 49.6686 37.7961C49.414 37.8387 49.0575 37.8755 48.6628 37.8747C48.2679 37.8733 47.9118 37.8345 47.6574 37.7905C47.4028 37.7467 47.249 37.7024 47.2511 37.6923C47.2535 37.68 47.411 37.7037 47.6655 37.7321C47.9201 37.7609 48.2726 37.7899 48.663 37.7913C49.0532 37.7921 49.4058 37.7651 49.6606 37.7377C49.9153 37.7105 50.0729 37.6877 50.0753 37.7001Z" fill="#FF9A6C"/>
<path d="M48.0447 28.6822C48.0493 28.691 47.9928 28.7341 47.8859 28.7723C47.7797 28.8107 47.6208 28.8376 47.4475 28.8173C47.2742 28.7963 47.1261 28.733 47.0318 28.6707C46.9368 28.6085 46.892 28.5534 46.8987 28.5459C46.9131 28.5251 47.1309 28.699 47.4574 28.7346C47.7829 28.7768 48.0355 28.6587 48.0447 28.6822Z" fill="#FF9A6C"/>
<path d="M51.3 35.2905C51.3049 35.2901 51.3144 35.3336 51.3184 35.4141C51.3208 35.4945 51.3104 35.6115 51.2787 35.7515C51.2478 35.8915 51.195 36.0531 51.1446 36.2317C51.0966 36.4094 51.0499 36.6107 51.0848 36.8142C51.1123 37.0166 51.2638 37.1809 51.2877 37.3865C51.3147 37.5888 51.2349 37.76 51.1619 37.8814C51.0857 38.0048 51.0093 38.0921 50.9553 38.1507C50.9008 38.2089 50.8675 38.2379 50.8633 38.2344C50.8505 38.2246 50.9733 38.0941 51.1107 37.8523C51.1749 37.7318 51.2398 37.572 51.2117 37.3976C51.1923 37.2238 51.039 37.06 51.0025 36.8286C50.9641 36.6019 51.0182 36.3901 51.0707 36.2102C51.1262 36.0296 51.1841 35.872 51.2214 35.7369C51.3014 35.4673 51.2857 35.2915 51.3 35.2905Z" fill="#FF9A6C"/>
<path d="M51.73 36.2957C51.7355 36.2944 51.755 36.3477 51.7836 36.4459C51.8123 36.5443 51.8507 36.6875 51.8868 36.8677C51.9219 37.0478 51.9574 37.265 51.9633 37.5099C51.9683 37.753 51.9443 38.032 51.8187 38.2938C51.6899 38.5517 51.5044 38.7538 51.3268 38.9202C51.1468 39.0854 50.9702 39.2155 50.8187 39.319C50.6668 39.4221 50.5398 39.4987 50.4503 39.5488C50.3611 39.599 50.3097 39.6234 50.3068 39.6186C50.2998 39.6072 50.4916 39.4867 50.7846 39.271C50.9304 39.1624 51.1011 39.029 51.2743 38.8642C51.4454 38.6986 51.6225 38.5003 51.7438 38.2573C51.8611 38.0133 51.8875 37.7477 51.8867 37.5107C51.8852 37.2723 51.8564 37.0574 51.8291 36.8779C51.77 36.5192 51.7168 36.2989 51.73 36.2957Z" fill="#263238"/>
<path d="M39.6574 30.97C39.6537 30.9743 39.588 30.9249 39.4721 30.8314C39.3456 30.7266 39.1827 30.5919 38.9873 30.4302C38.8846 30.3434 38.7736 30.2498 38.6552 30.15C38.5958 30.0998 38.5355 30.0484 38.4665 30.0145C38.3982 29.9806 38.3209 29.9718 38.2523 30.0071C38.1142 30.0793 38.0221 30.2566 37.9041 30.4036C37.7902 30.5572 37.6723 30.7159 37.5517 30.8786C37.3582 31.1375 37.1721 31.3862 37.0006 31.6156L36.8971 31.754L36.9299 31.5847C37.0424 31.0058 37.199 30.5228 37.3281 30.1889C37.3926 30.0217 37.4494 29.8911 37.4907 29.8028C37.5323 29.7146 37.5574 29.6681 37.5616 29.6698C37.5659 29.6718 37.5488 29.7217 37.515 29.8129C37.4814 29.9041 37.4321 30.0369 37.3744 30.2055C37.259 30.5423 37.1136 31.0246 37.0077 31.5993L36.9371 31.5684C37.1075 31.3382 37.2925 31.0887 37.4848 30.8289C37.6059 30.6666 37.7241 30.5081 37.8387 30.3548C37.8961 30.2783 37.9526 30.2031 38.008 30.1295C38.0651 30.0561 38.1291 29.9812 38.2195 29.9378C38.3102 29.8914 38.4211 29.9068 38.4992 29.9489C38.5795 29.99 38.6421 30.0465 38.7006 30.0978C38.8166 30.2004 38.9254 30.2966 39.0261 30.3857C39.2144 30.5554 39.3715 30.6969 39.4936 30.807C39.6025 30.9078 39.6611 30.9657 39.6574 30.97Z" fill="#263238"/>
<path d="M46.4131 29.6169C46.4147 29.6192 46.3932 29.6384 46.3505 29.6728C46.2999 29.7121 46.2375 29.7608 46.1615 29.8201C45.9857 29.9524 45.7473 30.1318 45.4566 30.3505C44.8471 30.7992 44.0203 31.4076 43.1025 32.0832L43.0668 32.1094L43.0428 32.0718C43.0244 32.0428 43.0044 32.0116 42.9846 31.9804C42.551 31.296 42.1459 30.6566 41.8031 30.1155L41.8463 30.1294C41.2814 30.354 40.8374 30.6003 40.535 30.7833C40.3836 30.875 40.2671 30.9508 40.1875 31.0022C40.1081 31.054 40.0651 31.0808 40.0628 31.0777C40.0607 31.0748 40.0995 31.042 40.175 30.9844C40.251 30.9272 40.3641 30.8457 40.5131 30.7483C40.8105 30.554 41.2526 30.2968 41.8198 30.0633L41.847 30.0521L41.863 30.0772C42.2087 30.6163 42.6174 31.2536 43.0548 31.9355C43.0748 31.9668 43.0947 31.998 43.1131 32.027L43.0534 32.0158C43.9769 31.3481 44.8089 30.7467 45.4222 30.3033C45.7191 30.0934 45.9628 29.9211 46.1425 29.794C46.2222 29.7398 46.2875 29.6952 46.3404 29.6592C46.3867 29.6294 46.4115 29.6147 46.4131 29.6169Z" fill="#263238"/>
<path d="M32.0534 35.98C32.0563 35.98 32.0592 36.0189 32.0622 36.0929C32.0644 36.1753 32.0673 36.2829 32.071 36.4168C32.0764 36.7077 32.084 37.112 32.0932 37.6077C32.1123 38.6131 32.1524 40.0016 32.2046 41.5353C32.2566 43.0696 32.2876 44.4597 32.2916 45.4657C32.2932 45.9688 32.2923 46.3758 32.2875 46.6571C32.2846 46.791 32.2824 46.8985 32.2806 46.9809C32.278 47.055 32.2755 47.0939 32.2726 47.0939C32.2697 47.0939 32.2668 47.055 32.2638 46.9809C32.2616 46.8985 32.2587 46.791 32.255 46.6571C32.2496 46.3662 32.242 45.9619 32.2328 45.4664C32.2137 44.4609 32.1736 43.0723 32.1214 41.5381C32.0694 40.0043 32.0385 38.6145 32.0345 37.6083C32.0329 37.1053 32.0339 36.6981 32.0387 36.4168C32.0416 36.2829 32.0438 36.1752 32.0456 36.0928C32.048 36.0189 32.0505 35.98 32.0534 35.98Z" fill="#263238"/>
<path d="M39.7096 50.4327C39.7082 50.4328 39.7055 50.4171 39.7015 50.3866C39.6975 50.3514 39.6923 50.3066 39.6861 50.2507C39.6738 50.1251 39.6567 49.9501 39.6349 49.7275C39.5904 49.2731 39.5392 48.6143 39.4883 47.7994C39.4359 46.9845 39.3933 46.0131 39.3656 44.9338C39.3423 43.8544 39.3363 42.6672 39.3618 41.4215C39.3904 40.1754 39.448 38.9893 39.5183 37.9117C39.5928 36.8344 39.6775 35.8656 39.7653 35.0539C39.8517 34.2421 39.9314 33.5861 39.9955 33.1341C40.0271 32.9127 40.0517 32.7386 40.0695 32.6136C40.0783 32.5581 40.0853 32.5136 40.0907 32.4786C40.096 32.4482 40.0994 32.4328 40.1008 32.433C40.1023 32.4331 40.1016 32.449 40.0992 32.4797C40.0959 32.5151 40.0915 32.5599 40.0861 32.6159C40.072 32.7411 40.0525 32.916 40.0277 33.1381C39.9735 33.5912 39.9027 34.2479 39.8239 35.0599C39.7437 35.8719 39.6651 36.8402 39.5947 37.9167C39.5288 38.9935 39.4736 40.1784 39.445 41.4232C39.4195 42.6677 39.4232 43.8536 39.4423 44.932C39.4658 46.0104 39.5021 46.9813 39.5469 47.7959C39.5903 48.6106 39.6325 49.2696 39.6671 49.7248C39.6823 49.9479 39.6941 50.1234 39.7027 50.2493C39.7056 50.3055 39.708 50.3504 39.7099 50.3859C39.7112 50.4167 39.7111 50.4325 39.7096 50.4327Z" fill="#263238"/>
<path d="M34.9422 24.2425C34.9422 24.2425 34.8857 24.282 34.7732 24.3558C34.6593 24.4299 34.4919 24.5387 34.273 24.6809C34.0534 24.8239 33.7993 25.0265 33.489 25.2513C33.3362 25.3668 33.1828 25.5054 33.0126 25.6457C32.9281 25.7167 32.841 25.79 32.7511 25.8655C32.6626 25.9427 32.5777 26.0291 32.487 26.1142C31.7598 26.7911 30.9337 27.6999 30.1727 28.8923C30.0794 29.0423 29.9846 29.1948 29.8881 29.35C29.7878 29.503 29.71 29.6724 29.6177 29.8369C29.5305 30.0041 29.4334 30.1697 29.3503 30.3455C29.2695 30.5225 29.1876 30.7022 29.1044 30.8843C29.0639 30.9758 29.0185 31.066 28.9812 31.1604C28.945 31.2553 28.9087 31.351 28.8721 31.4471C28.7999 31.6399 28.7225 31.8339 28.6518 32.0331C28.5334 32.439 28.3839 32.8478 28.2946 33.2838C28.0729 34.1451 27.9506 35.0732 27.9012 36.0412C27.8454 37.01 27.9031 38.0239 28.0695 39.0551C28.4063 41.114 29.2186 43.258 30.5994 45.1638C31.9623 47.0753 33.8886 48.738 36.2018 49.8308C38.51 50.9303 41.2111 51.4055 43.9086 51.126C46.61 50.8462 49.1404 49.7828 51.1673 48.2284C51.6783 47.8439 52.1474 47.4164 52.5983 46.9803C52.7068 46.867 52.815 46.754 52.923 46.6412C53.0322 46.5297 53.1377 46.4151 53.2375 46.2961C53.3393 46.1788 53.4407 46.0617 53.542 45.9449C53.6377 45.8235 53.733 45.7023 53.8281 45.5817C54.5887 44.6143 55.1887 43.5593 55.6628 42.4857C56.1361 41.4099 56.4494 40.2991 56.6423 39.2038C56.7415 38.6559 56.7961 38.1094 56.8324 37.5707C56.8495 37.3012 56.8492 37.0331 56.8583 36.7676C56.8532 36.5022 56.8388 36.2388 56.8297 35.9777C56.8246 35.8471 56.8194 35.7172 56.8143 35.5878C56.8065 35.4587 56.7854 35.331 56.7718 35.2035C56.7409 34.9486 56.7105 34.6959 56.6802 34.4457C56.6406 34.1969 56.5831 33.9534 56.5362 33.7105C56.4863 33.4683 56.4446 33.2263 56.3694 32.9953C56.3023 32.7622 56.2359 32.5315 56.1702 32.303C56.1407 32.1876 56.1002 32.0767 56.0572 31.9671C56.0159 31.8571 55.9748 31.7476 55.9338 31.6387C55.8486 31.4223 55.779 31.2022 55.6834 30.9958C55.5871 30.7897 55.4918 30.586 55.3977 30.3847C54.6252 28.7814 53.6332 27.4855 52.6372 26.4854C51.6377 25.483 50.6321 24.7801 49.7849 24.2627C49.5692 24.1388 49.3655 24.0217 49.1742 23.9118C49.0801 23.8539 48.983 23.8092 48.8898 23.7654C48.7967 23.7211 48.707 23.6783 48.6204 23.6371C48.4474 23.5547 48.2879 23.4785 48.1418 23.4089C47.9974 23.3356 47.8559 23.294 47.7351 23.2435C47.4918 23.1491 47.3057 23.0771 47.179 23.0279C47.0538 22.979 46.9903 22.9518 46.9903 22.9518C46.9903 22.9518 47.0556 22.9735 47.1818 23.0199C47.3094 23.0673 47.4966 23.1369 47.7414 23.2279C47.8628 23.2772 48.005 23.3177 48.1502 23.3899C48.297 23.4585 48.4574 23.5335 48.6311 23.6148C48.718 23.6555 48.8082 23.6979 48.9018 23.7415C48.9956 23.7849 49.093 23.8291 49.1878 23.8865C49.3801 23.9956 49.5849 24.1118 49.8017 24.2348C50.6534 24.7492 51.6644 25.45 52.6703 26.4526C53.6727 27.4527 54.6718 28.7507 55.4508 30.359C55.5458 30.5609 55.6418 30.7652 55.739 30.9719C55.8351 31.1791 55.9057 31.3999 55.9916 31.6171C56.0329 31.7263 56.0743 31.8363 56.1161 31.9467C56.1594 32.0566 56.2002 32.1681 56.2302 32.2838C56.2966 32.5131 56.3638 32.7447 56.4316 32.9788C56.5074 33.2108 56.5498 33.4537 56.6004 33.6971C56.6479 33.9409 56.706 34.1855 56.7462 34.4353C56.7769 34.6867 56.8081 34.9404 56.8394 35.1964C56.8534 35.3246 56.8748 35.4527 56.8828 35.5825C56.8881 35.7126 56.8935 35.8431 56.899 35.9742C56.9086 36.2364 56.9233 36.5011 56.9287 36.7678C56.9199 37.0345 56.9206 37.3039 56.9038 37.5747C56.8681 38.1159 56.8138 38.6654 56.7148 39.2161C56.5222 40.3174 56.2082 41.4342 55.7335 42.5163C55.2578 43.5961 54.6553 44.6572 53.8913 45.6305C53.7958 45.7519 53.6999 45.8739 53.6038 45.9959C53.502 46.1134 53.4001 46.2311 53.2978 46.3492C53.1975 46.4691 53.0916 46.5843 52.9817 46.6964C52.8732 46.8099 52.7644 46.9236 52.6554 47.0375C52.2025 47.4764 51.7308 47.9065 51.217 48.2934C49.1796 49.8574 46.6345 50.9276 43.9175 51.2091C41.2049 51.4903 38.4881 51.0116 36.1673 49.9049C33.8414 48.8049 31.9057 47.1316 30.5374 45.2087C29.151 43.2916 28.337 41.1356 28.0015 39.0663C27.8358 38.0299 27.7793 37.0113 27.837 36.0383C27.8882 35.0662 28.013 34.1343 28.2374 33.27C28.3281 32.8324 28.479 32.4222 28.5988 32.0151C28.6702 31.8153 28.7484 31.6207 28.8214 31.4275C28.8583 31.331 28.8951 31.2351 28.9316 31.1399C28.9692 31.0452 29.0151 30.9548 29.0559 30.863C29.1399 30.6804 29.2226 30.5003 29.3041 30.323C29.3878 30.1467 29.4857 29.9807 29.5737 29.8132C29.6668 29.6484 29.7454 29.4787 29.8463 29.3255C29.9436 29.1702 30.0393 29.0174 30.1334 28.8671C30.9006 27.6735 31.7326 26.7655 32.4647 26.0907C32.5561 26.0059 32.6417 25.9198 32.7306 25.843C32.821 25.7678 32.9089 25.6948 32.9938 25.6241C33.1652 25.4846 33.3198 25.3467 33.4735 25.2319C33.7858 25.0087 34.0418 24.8081 34.2633 24.6671C34.4844 24.5278 34.6532 24.4212 34.7682 24.3486C34.8826 24.2772 34.9422 24.2425 34.9422 24.2425Z" fill="#263238"/>
</g>
<defs>
<filter id="filter0_d_572_22369" x="-4" y="0" width="88" height="88" filterUnits="userSpaceOnUse" color-interpolation-filters="sRGB">
<feFlood flood-opacity="0" result="BackgroundImageFix"/>
<feColorMatrix in="SourceAlpha" type="matrix" values="0 0 0 0 0 0 0 0 0 0 0 0 0 0 0 0 0 0 127 0" result="hardAlpha"/>
<feOffset dy="4"/>
<feGaussianBlur stdDeviation="2"/>
<feComposite in2="hardAlpha" operator="out"/>
<feColorMatrix type="matrix" values="0 0 0 0 0 0 0 0 0 0 0 0 0 0 0 0 0 0 0.25 0"/>
<feBlend mode="normal" in2="BackgroundImageFix" result="effect1_dropShadow_572_22369"/>
<feBlend mode="normal" in="SourceGraphic" in2="effect1_dropShadow_572_22369" result="shape"/>
</filter>
</defs>
</svg>
