<svg width="55" height="56" viewBox="0 0 55 56" fill="none" xmlns="http://www.w3.org/2000/svg">
<g clip-path="url(#clip0_851_12872)">
<path d="M47.3172 20.1451C47.3176 19.242 47.0597 18.3577 46.5739 17.5964C46.0882 16.835 45.3949 16.2285 44.5758 15.8482V19.492L42.5477 20.8842L40.5281 19.492V15.8396C39.7139 16.2244 39.0257 16.8325 38.5438 17.5932C38.0618 18.354 37.806 19.236 37.806 20.1365C37.806 21.0371 38.0618 21.9191 38.5438 22.6798C39.0257 23.4405 39.7139 24.0487 40.5281 24.4334V38.4326C39.7082 38.8123 39.0141 39.4186 38.5276 40.1799C38.0411 40.9413 37.7826 41.826 37.7826 42.7295C37.7826 43.633 38.0411 44.5177 38.5276 45.2791C39.0141 46.0404 39.7082 46.6467 40.5281 47.0264V43.3826L42.5563 41.9904L44.5758 43.3826V47.0264C45.39 46.6417 46.0782 46.0335 46.5601 45.2728C47.0421 44.512 47.298 43.63 47.298 42.7295C47.298 41.8289 47.0421 40.9469 46.5601 40.1862C46.0782 39.4255 45.39 38.8173 44.5758 38.4326V24.442C45.3923 24.0584 46.0834 23.451 46.5686 22.6905C47.0538 21.9299 47.3134 21.0473 47.3172 20.1451ZM20.5734 16.2865L20.4188 13.0037L20.3586 11.6717C19.9337 11.1439 19.688 10.4946 19.6571 9.81775C19.6262 9.14094 19.8117 8.47189 20.1867 7.90762L20.1352 6.66152L20.0149 4.17793L19.4477 4.31543C17.3443 5.03489 15.5189 6.39464 14.2274 8.20397C12.9359 10.0133 12.2431 12.1815 12.2461 14.4045V16.3209H20.5734V16.2865ZM25.3688 13.0123L25.2141 16.2865H33.5156V14.3701C33.5173 12.1522 32.828 9.9889 31.5435 8.1808C30.2591 6.3727 28.4433 5.00964 26.3484 4.28105L25.7813 4.14355L25.6695 6.61855L25.6094 7.87324C25.9838 8.4393 26.1689 9.10959 26.138 9.78757C26.1071 10.4656 25.8619 11.1162 25.4375 11.6459L25.3688 13.0123ZM21.1664 12.9693L21.3211 16.2865H24.4664L24.6297 12.9779V12.3592C24.1078 12.7065 23.4949 12.8918 22.868 12.8918C22.2411 12.8918 21.6281 12.7065 21.1063 12.3592L21.1664 12.9693ZM20.8914 7.1084C21.4617 6.65812 22.1671 6.41321 22.8938 6.41321C23.6204 6.41321 24.3258 6.65812 24.8961 7.1084V6.59277L25.0422 3.15527H20.7195L20.8742 6.59277L20.8914 7.1084Z" fill="white"/>
<path d="M22.8949 12.1451C23.3898 12.1451 23.8737 11.9982 24.2851 11.7231C24.6966 11.4479 25.0171 11.0568 25.2061 10.5993C25.3951 10.1419 25.4441 9.63863 25.347 9.15329C25.2498 8.66795 25.0107 8.22237 24.6601 7.87298C24.3095 7.52358 23.8631 7.28608 23.3775 7.19056C22.8918 7.09504 22.3887 7.1458 21.9319 7.33639C21.4751 7.52699 21.0851 7.84886 20.8114 8.26124C20.5376 8.67362 20.3924 9.15796 20.3941 9.65293C20.3941 9.98093 20.4588 10.3057 20.5846 10.6086C20.7104 10.9116 20.8947 11.1867 21.1271 11.4182C21.3594 11.6498 21.6352 11.8331 21.9385 11.9579C22.2419 12.0826 22.5669 12.1462 22.8949 12.1451ZM44.9464 47.8178L44.0355 48.2389C44.1042 49.4248 44.0871 50.4732 44.0355 51.1178H38.4496V46.5545C37.4837 45.5158 36.9491 44.1486 36.9542 42.7303C36.95 42.653 36.95 42.5755 36.9542 42.4982C36.563 42.2992 36.13 42.1961 35.691 42.1975H35.2355L36.0949 37.849C36.9027 38.2615 37.6589 38.7084 38.3378 39.0693C38.7248 38.6142 39.1834 38.2252 39.6957 37.9178C36.5421 36.0521 33.2115 34.5034 29.7527 33.2943V30.5701C31.8518 27.7084 33.019 24.2699 33.0957 20.7217H34.2386C34.4278 20.7217 34.6092 20.6465 34.743 20.5128C34.8768 20.379 34.9519 20.1976 34.9519 20.0084V17.8084C34.9519 17.6184 34.877 17.4361 34.7435 17.301C34.61 17.1658 34.4286 17.0888 34.2386 17.0865H11.6285C11.437 17.0865 11.2534 17.1626 11.118 17.298C10.9826 17.4333 10.9066 17.6169 10.9066 17.8084V20.0084C10.9066 20.1028 10.9253 20.1963 10.9617 20.2834C10.9981 20.3705 11.0514 20.4495 11.1185 20.5158C11.1857 20.5822 11.2653 20.6345 11.3529 20.6699C11.4404 20.7052 11.5341 20.7228 11.6285 20.7217H12.7714C12.8292 24.2465 13.9858 27.6655 16.08 30.5014V33.2943C12.8144 34.4631 2.42456 38.4506 0.860498 43.3061C0.100193 46.1587 -0.161468 49.1213 0.0870607 52.0631C0.110427 52.2743 0.211184 52.4693 0.369886 52.6105C0.528589 52.7518 0.733986 52.8292 0.946436 52.8279H44.8605C45.0729 52.8292 45.2783 52.7518 45.437 52.6105C45.5957 52.4693 45.6965 52.2743 45.7199 52.0631C45.8471 50.516 45.8471 48.961 45.7199 47.4139C45.4707 47.5645 45.2124 47.6994 44.9464 47.8178ZM14.4816 20.7217H31.3167C31.2549 23.9284 30.1978 27.0367 28.2917 29.6162C28.2233 29.6781 28.1653 29.7507 28.1199 29.8311C27.5044 30.6424 26.7164 31.307 25.8128 31.7766C24.9092 32.2462 23.9126 32.5093 22.8949 32.5467C21.8822 32.5098 20.8903 32.2496 19.9899 31.7846C19.0896 31.3196 18.3032 30.6613 17.6871 29.8568C17.647 29.7706 17.5883 29.6943 17.5152 29.6334C15.6078 27.0475 14.548 23.9343 14.4816 20.7217ZM28.0511 33.4748L22.8949 37.6943L17.7816 33.5521V32.5982C19.2331 33.7427 21.0485 34.3254 22.8949 34.2396C24.7906 34.2215 26.6181 33.5301 28.0511 32.2889V33.4748ZM10.1246 42.1975C9.38759 42.1997 8.68158 42.4941 8.16126 43.016C7.64095 43.5379 7.34878 44.2449 7.34878 44.9818V51.1178H1.71987C1.57744 48.6637 1.83282 46.2028 2.47612 43.8303C3.0605 42.0256 5.56987 39.9545 9.73784 37.8146L10.5972 42.1631L10.1246 42.1975ZM12.5136 46.8381C12.3437 46.8381 12.1775 46.7877 12.0362 46.6933C11.8949 46.5988 11.7847 46.4646 11.7197 46.3076C11.6546 46.1506 11.6376 45.9778 11.6708 45.8111C11.7039 45.6444 11.7858 45.4912 11.906 45.371C12.0261 45.2509 12.1793 45.169 12.346 45.1358C12.5127 45.1027 12.6855 45.1197 12.8425 45.1848C12.9995 45.2498 13.1337 45.3599 13.2282 45.5013C13.3226 45.6426 13.373 45.8087 13.373 45.9787C13.373 46.2066 13.2825 46.4252 13.1213 46.5864C12.9601 46.7475 12.7415 46.8381 12.5136 46.8381ZM31.6003 42.1975H14.1894L13.5621 36.1045C14.9972 35.5115 16.1402 35.0732 16.7675 34.8584L22.3449 39.4389C22.4972 39.5651 22.6884 39.6349 22.8863 39.6365C23.0841 39.6349 23.2753 39.5651 23.4277 39.4389L28.9792 34.8756C29.5636 35.0818 30.7582 35.5287 32.2363 36.1389L31.6003 42.1975ZM33.3191 46.8381C33.1491 46.8381 32.983 46.7877 32.8416 46.6933C32.7003 46.5988 32.5902 46.4646 32.5251 46.3076C32.4601 46.1506 32.4431 45.9778 32.4762 45.8111C32.5094 45.6444 32.5912 45.4912 32.7114 45.371C32.8316 45.2509 32.9847 45.169 33.1514 45.1358C33.3181 45.1027 33.4909 45.1197 33.648 45.1848C33.805 45.2498 33.9392 45.3599 34.0336 45.5013C34.1281 45.6426 34.1785 45.8087 34.1785 45.9787C34.1786 46.0945 34.1552 46.2091 34.1099 46.3157C34.0646 46.4223 33.9982 46.5186 33.9147 46.5989C33.8313 46.6791 33.7324 46.7417 33.6241 46.7828C33.5159 46.8239 33.4004 46.8427 33.2847 46.8381H33.3191ZM54.6917 33.9303C54.7331 33.9303 54.7741 33.922 54.8122 33.9059C54.8503 33.8898 54.8848 33.8663 54.9136 33.8366C54.9424 33.807 54.9651 33.7719 54.9801 33.7333C54.9951 33.6948 55.0023 33.6536 55.0011 33.6123V32.4607C55.0012 32.3779 54.9688 32.2983 54.911 32.2389C54.8533 32.1795 54.7746 32.145 54.6917 32.1428H52.973V20.9709L53.7808 19.7506L53.2824 15.7029H50.9792L50.5324 19.7248L51.3402 20.9451V32.117H49.6214C49.5386 32.1192 49.4599 32.1537 49.4021 32.2131C49.3443 32.2725 49.312 32.3521 49.3121 32.435V33.5865C49.3109 33.6279 49.3181 33.669 49.3331 33.7076C49.3481 33.7461 49.3707 33.7812 49.3996 33.8109C49.4284 33.8405 49.4629 33.8641 49.501 33.8801C49.5391 33.8962 49.5801 33.9045 49.6214 33.9045H49.991C50.0324 34.2462 50.012 34.5926 49.9308 34.9272H49.6214C49.5394 34.9272 49.4607 34.9597 49.4027 35.0178C49.3447 35.0758 49.3121 35.1545 49.3121 35.2365V46.4084C49.3109 46.6141 49.3506 46.818 49.4288 47.0083C49.507 47.1986 49.6222 47.3714 49.7676 47.5169C49.9131 47.6624 50.086 47.7775 50.2762 47.8557C50.4665 47.9339 50.6704 47.9736 50.8761 47.9725H53.4542C53.8559 47.9683 54.2405 47.8099 54.5285 47.5299C54.8165 47.2499 54.9857 46.8699 55.0011 46.4686V35.2967C55.0011 35.2146 54.9685 35.1359 54.9105 35.0779C54.8525 35.0199 54.7738 34.9873 54.6917 34.9873H54.3824C54.297 34.6534 54.2766 34.3062 54.3222 33.9646L54.6917 33.9303ZM51.4777 45.5318C51.4905 45.5954 51.489 45.6611 51.4733 45.7241C51.4576 45.787 51.4282 45.8457 51.3871 45.8959C51.346 45.9461 51.2942 45.9865 51.2356 46.0143C51.1769 46.0421 51.1129 46.0565 51.048 46.0565C50.9831 46.0565 50.919 46.0421 50.8604 46.0143C50.8018 45.9865 50.75 45.9461 50.7089 45.8959C50.6678 45.8457 50.6384 45.787 50.6227 45.7241C50.607 45.6611 50.6055 45.5954 50.6183 45.5318V36.7404C50.6055 36.6768 50.607 36.6112 50.6227 36.5482C50.6384 36.4853 50.6678 36.4266 50.7089 36.3764C50.75 36.3262 50.8018 36.2857 50.8604 36.258C50.919 36.2302 50.9831 36.2158 51.048 36.2158C51.1129 36.2158 51.1769 36.2302 51.2356 36.258C51.2942 36.2857 51.346 36.3262 51.3871 36.3764C51.4282 36.4266 51.4576 36.4853 51.4733 36.5482C51.489 36.6112 51.4905 36.6768 51.4777 36.7404V45.5318ZM53.6777 45.5318C53.6777 45.6481 53.6315 45.7596 53.5493 45.8417C53.4671 45.9239 53.3556 45.9701 53.2394 45.9701C53.1822 45.9701 53.1257 45.9587 53.073 45.9366C53.0203 45.9145 52.9725 45.8821 52.9325 45.8412C52.8925 45.8004 52.861 45.752 52.8399 45.6989C52.8188 45.6458 52.8086 45.589 52.8097 45.5318V36.7404C52.8086 36.6833 52.8188 36.6265 52.8399 36.5734C52.861 36.5202 52.8925 36.4718 52.9325 36.431C52.9725 36.3902 53.0203 36.3578 53.073 36.3357C53.1257 36.3135 53.1822 36.3021 53.2394 36.3021C53.3556 36.3021 53.4671 36.3483 53.5493 36.4305C53.6315 36.5127 53.6777 36.6242 53.6777 36.7404V45.5318Z" fill="white"/>
</g>
<defs>
<clipPath id="clip0_851_12872">
<rect width="55" height="55" fill="white" transform="translate(0 0.5)"/>
</clipPath>
</defs>
</svg>
