<svg width="1440" height="234" viewBox="0 0 1440 234" fill="none" xmlns="http://www.w3.org/2000/svg">
<g clip-path="url(#clip0_990_7998)">
<rect width="1440" height="234" fill="#005896"/>
<path d="M127.893 107.688L75.2371 83.82L60.3931 109.776C41.085 105.432 21.5007 105 2.58856 107.952L-10.5515 81L-64.6598 101.352L-56.7756 130.284C-72.9517 140.52 -87.3878 153.769 -99.0399 169.753L-127.312 160.021L-151.18 212.677L-125.224 227.521C-129.568 246.829 -130.012 266.413 -127.048 285.325L-154 298.465L-133.636 352.574L-104.704 344.689C-94.4677 360.866 -81.22 375.29 -65.2359 386.954L-74.9676 415.226L-22.3113 439.094L-7.46727 413.138C11.8408 417.482 31.4248 417.926 50.3369 414.962L63.4769 441.914L117.597 421.55L109.713 392.618C125.877 382.382 140.313 369.134 151.977 353.138L180.249 362.87L204.118 310.213L178.162 295.369C182.506 276.061 182.938 256.477 179.986 237.565L206.938 224.413L186.574 170.305L157.642 178.189C147.406 162.012 134.157 147.577 118.161 135.924L127.893 107.688ZM97.761 293.785C79.917 333.158 33.5368 350.606 -5.83543 332.762C-45.2076 314.917 -62.6555 268.537 -44.8115 229.165C-26.9674 189.793 19.4128 172.344 58.785 190.189C98.1452 208.033 115.605 254.413 97.761 293.785Z" fill="white" fill-opacity="0.2"/>
<path d="M1332.47 130.672L1319.31 124.705L1315.6 131.194C1310.77 130.108 1305.88 130 1301.15 130.738L1297.86 124L1284.34 129.088L1286.31 136.321C1282.26 138.88 1278.65 142.192 1275.74 146.188L1268.67 143.755L1262.7 156.919L1269.19 160.63C1268.11 165.457 1268 170.353 1268.74 175.081L1262 178.366L1267.09 191.893L1274.32 189.922C1276.88 193.966 1280.2 197.572 1284.19 200.488L1281.76 207.556L1294.92 213.524L1298.63 207.034C1303.46 208.12 1308.36 208.231 1313.08 207.49L1316.37 214.229L1329.9 209.137L1327.93 201.904C1331.97 199.345 1335.58 196.033 1338.49 192.034L1345.56 194.467L1351.53 181.303L1345.04 177.592C1346.13 172.765 1346.23 167.869 1345.5 163.141L1352.23 159.853L1347.14 146.326L1339.91 148.297C1337.35 144.253 1334.04 140.644 1330.04 137.731L1332.47 130.672ZM1324.94 177.196C1320.48 187.039 1308.88 191.401 1299.04 186.94C1289.2 182.479 1284.84 170.884 1289.3 161.041C1293.76 151.198 1305.35 146.836 1315.2 151.297C1325.04 155.758 1329.4 167.353 1324.94 177.196Z" fill="white" fill-opacity="0.2"/>
<path d="M1472.95 -30.6559L1446.62 -42.59L1439.2 -29.6119C1429.54 -31.7839 1419.75 -31.9999 1410.29 -30.5239L1403.72 -44L1376.67 -33.8239L1380.61 -19.3578C1372.52 -14.2398 1365.31 -7.61573 1359.48 0.376316L1345.34 -4.48974L1333.41 21.8384L1346.39 29.2604C1344.22 38.9145 1343.99 48.7066 1345.48 58.1626L1332 64.7327L1342.18 91.7868L1356.65 87.8447C1361.77 95.9328 1368.39 103.145 1376.38 108.977L1371.52 123.113L1397.84 135.047L1405.27 122.069C1414.92 124.241 1424.71 124.463 1434.17 122.981L1440.74 136.457L1467.8 126.275L1463.86 111.809C1471.94 106.691 1479.16 100.067 1484.99 92.0688L1499.12 96.9348L1511.06 70.6066L1498.08 63.1846C1500.25 53.5305 1500.47 43.7386 1498.99 34.2825L1512.47 27.7064L1502.29 0.652256L1487.82 4.59426C1482.7 -3.49378 1476.08 -10.7117 1468.08 -16.5378L1472.95 -30.6559ZM1457.88 62.3927C1448.96 82.0788 1425.77 90.8028 1406.08 81.8808C1386.4 72.9587 1377.67 49.7685 1386.59 30.0824C1395.52 10.3963 1418.71 1.67225 1438.39 10.5943C1458.07 19.5163 1466.8 42.7065 1457.88 62.3927Z" fill="white" fill-opacity="0.2"/>
</g>
<defs>
<clipPath id="clip0_990_7998">
<rect width="1440" height="234" fill="white"/>
</clipPath>
</defs>
</svg>
