<svg width="28" height="27" viewBox="0 0 28 27" fill="none" xmlns="http://www.w3.org/2000/svg">
<path d="M21.6799 4.80945H19.4831V3.71106C19.4831 3.41975 19.3674 3.14037 19.1614 2.93438C18.9554 2.72839 18.676 2.61267 18.3847 2.61267C18.0934 2.61267 17.814 2.72839 17.608 2.93438C17.402 3.14037 17.2863 3.41975 17.2863 3.71106V4.80945H10.696V3.71106C10.696 3.41975 10.5802 3.14037 10.3742 2.93438C10.1683 2.72839 9.88887 2.61267 9.59756 2.61267C9.30625 2.61267 9.02687 2.72839 8.82088 2.93438C8.61489 3.14037 8.49917 3.41975 8.49917 3.71106V4.80945H6.30238C5.42844 4.80945 4.5903 5.15662 3.97234 5.77459C3.35437 6.39255 3.0072 7.23069 3.0072 8.10463V21.2853C3.0072 22.1593 3.35437 22.9974 3.97234 23.6154C4.5903 24.2333 5.42844 24.5805 6.30238 24.5805H21.6799C22.5538 24.5805 23.392 24.2333 24.0099 23.6154C24.6279 22.9974 24.9751 22.1593 24.9751 21.2853V8.10463C24.9751 7.23069 24.6279 6.39255 24.0099 5.77459C23.392 5.15662 22.5538 4.80945 21.6799 4.80945ZM22.7783 21.2853C22.7783 21.5766 22.6625 21.856 22.4566 22.062C22.2506 22.268 21.9712 22.3837 21.6799 22.3837H6.30238C6.01107 22.3837 5.73169 22.268 5.5257 22.062C5.31971 21.856 5.20399 21.5766 5.20399 21.2853V13.5966H22.7783V21.2853ZM22.7783 11.3998H5.20399V8.10463C5.20399 7.81332 5.31971 7.53394 5.5257 7.32795C5.73169 7.12196 6.01107 7.00624 6.30238 7.00624H8.49917V8.10463C8.49917 8.39594 8.61489 8.67532 8.82088 8.88131C9.02687 9.0873 9.30625 9.20302 9.59756 9.20302C9.88887 9.20302 10.1683 9.0873 10.3742 8.88131C10.5802 8.67532 10.696 8.39594 10.696 8.10463V7.00624H17.2863V8.10463C17.2863 8.39594 17.402 8.67532 17.608 8.88131C17.814 9.0873 18.0934 9.20302 18.3847 9.20302C18.676 9.20302 18.9554 9.0873 19.1614 8.88131C19.3674 8.67532 19.4831 8.39594 19.4831 8.10463V7.00624H21.6799C21.9712 7.00624 22.2506 7.12196 22.4566 7.32795C22.6625 7.53394 22.7783 7.81332 22.7783 8.10463V11.3998Z" fill="#0F7DFF"/>
</svg>
