<svg width="27" height="27" viewBox="0 0 27 27" fill="none" xmlns="http://www.w3.org/2000/svg">
<g clip-path="url(#clip0_274_1651)">
<path d="M13.4633 0.416504C6.18302 0.416504 0.282593 6.31693 0.282593 13.5972C0.282593 20.8775 6.18302 26.7779 13.4633 26.7779C20.7436 26.7779 26.644 20.8775 26.644 13.5972C26.644 6.31693 20.7436 0.416504 13.4633 0.416504ZM13.4633 24.5794C7.39812 24.5794 2.48109 19.6624 2.48109 13.5972C2.48109 7.53202 7.39812 2.615 13.4633 2.615C19.5285 2.615 24.4455 7.53202 24.4455 13.5972C24.4455 19.6624 19.5285 24.5794 13.4633 24.5794ZM14.56 4.80835H12.3615V13.5972L17.3042 18.54L18.9518 16.8924L14.56 12.5005V4.80835Z" fill="#0F7DFF"/>
</g>
<defs>
<clipPath id="clip0_274_1651">
<rect width="26.3614" height="26.3614" fill="white" transform="translate(0.282959 0.416504)"/>
</clipPath>
</defs>
</svg>
